<?xml version="1.0" encoding="utf-8" standalone="no"?>
<!DOCTYPE svg PUBLIC "-//W3C//DTD SVG 1.1//EN"
  "http://www.w3.org/Graphics/SVG/1.1/DTD/svg11.dtd">
<svg xmlns:xlink="http://www.w3.org/1999/xlink" width="460.8pt" height="345.6pt" viewBox="0 0 460.8 345.6" xmlns="http://www.w3.org/2000/svg" version="1.1">
 <metadata>
  <rdf:RDF xmlns:dc="http://purl.org/dc/elements/1.1/" xmlns:cc="http://creativecommons.org/ns#" xmlns:rdf="http://www.w3.org/1999/02/22-rdf-syntax-ns#">
   <cc:Work>
    <dc:type rdf:resource="http://purl.org/dc/dcmitype/StillImage"/>
    <dc:date>2023-05-29T12:56:51.697053</dc:date>
    <dc:format>image/svg+xml</dc:format>
    <dc:creator>
     <cc:Agent>
      <dc:title>Matplotlib v3.7.1, https://matplotlib.org/</dc:title>
     </cc:Agent>
    </dc:creator>
   </cc:Work>
  </rdf:RDF>
 </metadata>
 <defs>
  <style type="text/css">*{stroke-linejoin: round; stroke-linecap: butt}</style>
 </defs>
 <g id="figure_1">
  <g id="patch_1">
   <path d="M 0 345.6 
L 460.8 345.6 
L 460.8 0 
L 0 0 
z
" style="fill: #ffffff"/>
  </g>
  <g id="axes_1">
   <g id="patch_2">
    <path d="M 57.6 307.584 
L 414.72 307.584 
L 414.72 41.472 
L 57.6 41.472 
z
" style="fill: #ffffff"/>
   </g>
   <g id="matplotlib.axis_1">
    <g id="xtick_1">
     <g id="line2d_1">
      <defs>
       <path id="m5ffa768bc7" d="M 0 0 
L 0 3.5 
" style="stroke: #000000; stroke-width: 0.8"/>
      </defs>
      <g>
       <use xlink:href="#m5ffa768bc7" x="73.832727" y="307.584" style="stroke: #000000; stroke-width: 0.8"/>
      </g>
     </g>
     <g id="text_1">
      <!-- 0.0 -->
      <g transform="translate(65.881165 322.182437) scale(0.1 -0.1)">
       <defs>
        <path id="DejaVuSans-30" d="M 2034 4250 
Q 1547 4250 1301 3770 
Q 1056 3291 1056 2328 
Q 1056 1369 1301 889 
Q 1547 409 2034 409 
Q 2525 409 2770 889 
Q 3016 1369 3016 2328 
Q 3016 3291 2770 3770 
Q 2525 4250 2034 4250 
z
M 2034 4750 
Q 2819 4750 3233 4129 
Q 3647 3509 3647 2328 
Q 3647 1150 3233 529 
Q 2819 -91 2034 -91 
Q 1250 -91 836 529 
Q 422 1150 422 2328 
Q 422 3509 836 4129 
Q 1250 4750 2034 4750 
z
" transform="scale(0.015625)"/>
        <path id="DejaVuSans-2e" d="M 684 794 
L 1344 794 
L 1344 0 
L 684 0 
L 684 794 
z
" transform="scale(0.015625)"/>
       </defs>
       <use xlink:href="#DejaVuSans-30"/>
       <use xlink:href="#DejaVuSans-2e" x="63.623047"/>
       <use xlink:href="#DejaVuSans-30" x="95.410156"/>
      </g>
     </g>
    </g>
    <g id="xtick_2">
     <g id="line2d_2">
      <g>
       <use xlink:href="#m5ffa768bc7" x="138.763636" y="307.584" style="stroke: #000000; stroke-width: 0.8"/>
      </g>
     </g>
     <g id="text_2">
      <!-- 0.2 -->
      <g transform="translate(130.812074 322.182437) scale(0.1 -0.1)">
       <defs>
        <path id="DejaVuSans-32" d="M 1228 531 
L 3431 531 
L 3431 0 
L 469 0 
L 469 531 
Q 828 903 1448 1529 
Q 2069 2156 2228 2338 
Q 2531 2678 2651 2914 
Q 2772 3150 2772 3378 
Q 2772 3750 2511 3984 
Q 2250 4219 1831 4219 
Q 1534 4219 1204 4116 
Q 875 4013 500 3803 
L 500 4441 
Q 881 4594 1212 4672 
Q 1544 4750 1819 4750 
Q 2544 4750 2975 4387 
Q 3406 4025 3406 3419 
Q 3406 3131 3298 2873 
Q 3191 2616 2906 2266 
Q 2828 2175 2409 1742 
Q 1991 1309 1228 531 
z
" transform="scale(0.015625)"/>
       </defs>
       <use xlink:href="#DejaVuSans-30"/>
       <use xlink:href="#DejaVuSans-2e" x="63.623047"/>
       <use xlink:href="#DejaVuSans-32" x="95.410156"/>
      </g>
     </g>
    </g>
    <g id="xtick_3">
     <g id="line2d_3">
      <g>
       <use xlink:href="#m5ffa768bc7" x="203.694545" y="307.584" style="stroke: #000000; stroke-width: 0.8"/>
      </g>
     </g>
     <g id="text_3">
      <!-- 0.4 -->
      <g transform="translate(195.742983 322.182437) scale(0.1 -0.1)">
       <defs>
        <path id="DejaVuSans-34" d="M 2419 4116 
L 825 1625 
L 2419 1625 
L 2419 4116 
z
M 2253 4666 
L 3047 4666 
L 3047 1625 
L 3713 1625 
L 3713 1100 
L 3047 1100 
L 3047 0 
L 2419 0 
L 2419 1100 
L 313 1100 
L 313 1709 
L 2253 4666 
z
" transform="scale(0.015625)"/>
       </defs>
       <use xlink:href="#DejaVuSans-30"/>
       <use xlink:href="#DejaVuSans-2e" x="63.623047"/>
       <use xlink:href="#DejaVuSans-34" x="95.410156"/>
      </g>
     </g>
    </g>
    <g id="xtick_4">
     <g id="line2d_4">
      <g>
       <use xlink:href="#m5ffa768bc7" x="268.625455" y="307.584" style="stroke: #000000; stroke-width: 0.8"/>
      </g>
     </g>
     <g id="text_4">
      <!-- 0.6 -->
      <g transform="translate(260.673892 322.182437) scale(0.1 -0.1)">
       <defs>
        <path id="DejaVuSans-36" d="M 2113 2584 
Q 1688 2584 1439 2293 
Q 1191 2003 1191 1497 
Q 1191 994 1439 701 
Q 1688 409 2113 409 
Q 2538 409 2786 701 
Q 3034 994 3034 1497 
Q 3034 2003 2786 2293 
Q 2538 2584 2113 2584 
z
M 3366 4563 
L 3366 3988 
Q 3128 4100 2886 4159 
Q 2644 4219 2406 4219 
Q 1781 4219 1451 3797 
Q 1122 3375 1075 2522 
Q 1259 2794 1537 2939 
Q 1816 3084 2150 3084 
Q 2853 3084 3261 2657 
Q 3669 2231 3669 1497 
Q 3669 778 3244 343 
Q 2819 -91 2113 -91 
Q 1303 -91 875 529 
Q 447 1150 447 2328 
Q 447 3434 972 4092 
Q 1497 4750 2381 4750 
Q 2619 4750 2861 4703 
Q 3103 4656 3366 4563 
z
" transform="scale(0.015625)"/>
       </defs>
       <use xlink:href="#DejaVuSans-30"/>
       <use xlink:href="#DejaVuSans-2e" x="63.623047"/>
       <use xlink:href="#DejaVuSans-36" x="95.410156"/>
      </g>
     </g>
    </g>
    <g id="xtick_5">
     <g id="line2d_5">
      <g>
       <use xlink:href="#m5ffa768bc7" x="333.556364" y="307.584" style="stroke: #000000; stroke-width: 0.8"/>
      </g>
     </g>
     <g id="text_5">
      <!-- 0.8 -->
      <g transform="translate(325.604801 322.182437) scale(0.1 -0.1)">
       <defs>
        <path id="DejaVuSans-38" d="M 2034 2216 
Q 1584 2216 1326 1975 
Q 1069 1734 1069 1313 
Q 1069 891 1326 650 
Q 1584 409 2034 409 
Q 2484 409 2743 651 
Q 3003 894 3003 1313 
Q 3003 1734 2745 1975 
Q 2488 2216 2034 2216 
z
M 1403 2484 
Q 997 2584 770 2862 
Q 544 3141 544 3541 
Q 544 4100 942 4425 
Q 1341 4750 2034 4750 
Q 2731 4750 3128 4425 
Q 3525 4100 3525 3541 
Q 3525 3141 3298 2862 
Q 3072 2584 2669 2484 
Q 3125 2378 3379 2068 
Q 3634 1759 3634 1313 
Q 3634 634 3220 271 
Q 2806 -91 2034 -91 
Q 1263 -91 848 271 
Q 434 634 434 1313 
Q 434 1759 690 2068 
Q 947 2378 1403 2484 
z
M 1172 3481 
Q 1172 3119 1398 2916 
Q 1625 2713 2034 2713 
Q 2441 2713 2670 2916 
Q 2900 3119 2900 3481 
Q 2900 3844 2670 4047 
Q 2441 4250 2034 4250 
Q 1625 4250 1398 4047 
Q 1172 3844 1172 3481 
z
" transform="scale(0.015625)"/>
       </defs>
       <use xlink:href="#DejaVuSans-30"/>
       <use xlink:href="#DejaVuSans-2e" x="63.623047"/>
       <use xlink:href="#DejaVuSans-38" x="95.410156"/>
      </g>
     </g>
    </g>
    <g id="xtick_6">
     <g id="line2d_6">
      <g>
       <use xlink:href="#m5ffa768bc7" x="398.487273" y="307.584" style="stroke: #000000; stroke-width: 0.8"/>
      </g>
     </g>
     <g id="text_6">
      <!-- 1.0 -->
      <g transform="translate(390.53571 322.182437) scale(0.1 -0.1)">
       <defs>
        <path id="DejaVuSans-31" d="M 794 531 
L 1825 531 
L 1825 4091 
L 703 3866 
L 703 4441 
L 1819 4666 
L 2450 4666 
L 2450 531 
L 3481 531 
L 3481 0 
L 794 0 
L 794 531 
z
" transform="scale(0.015625)"/>
       </defs>
       <use xlink:href="#DejaVuSans-31"/>
       <use xlink:href="#DejaVuSans-2e" x="63.623047"/>
       <use xlink:href="#DejaVuSans-30" x="95.410156"/>
      </g>
     </g>
    </g>
    <g id="text_7">
     <!-- FPR -->
     <g transform="translate(226.795156 335.860562) scale(0.1 -0.1)">
      <defs>
       <path id="DejaVuSans-46" d="M 628 4666 
L 3309 4666 
L 3309 4134 
L 1259 4134 
L 1259 2759 
L 3109 2759 
L 3109 2228 
L 1259 2228 
L 1259 0 
L 628 0 
L 628 4666 
z
" transform="scale(0.015625)"/>
       <path id="DejaVuSans-50" d="M 1259 4147 
L 1259 2394 
L 2053 2394 
Q 2494 2394 2734 2622 
Q 2975 2850 2975 3272 
Q 2975 3691 2734 3919 
Q 2494 4147 2053 4147 
L 1259 4147 
z
M 628 4666 
L 2053 4666 
Q 2838 4666 3239 4311 
Q 3641 3956 3641 3272 
Q 3641 2581 3239 2228 
Q 2838 1875 2053 1875 
L 1259 1875 
L 1259 0 
L 628 0 
L 628 4666 
z
" transform="scale(0.015625)"/>
       <path id="DejaVuSans-52" d="M 2841 2188 
Q 3044 2119 3236 1894 
Q 3428 1669 3622 1275 
L 4263 0 
L 3584 0 
L 2988 1197 
Q 2756 1666 2539 1819 
Q 2322 1972 1947 1972 
L 1259 1972 
L 1259 0 
L 628 0 
L 628 4666 
L 2053 4666 
Q 2853 4666 3247 4331 
Q 3641 3997 3641 3322 
Q 3641 2881 3436 2590 
Q 3231 2300 2841 2188 
z
M 1259 4147 
L 1259 2491 
L 2053 2491 
Q 2509 2491 2742 2702 
Q 2975 2913 2975 3322 
Q 2975 3731 2742 3939 
Q 2509 4147 2053 4147 
L 1259 4147 
z
" transform="scale(0.015625)"/>
      </defs>
      <use xlink:href="#DejaVuSans-46"/>
      <use xlink:href="#DejaVuSans-50" x="57.519531"/>
      <use xlink:href="#DejaVuSans-52" x="117.822266"/>
     </g>
    </g>
   </g>
   <g id="matplotlib.axis_2">
    <g id="ytick_1">
     <g id="line2d_7">
      <defs>
       <path id="m18991451e6" d="M 0 0 
L -3.5 0 
" style="stroke: #000000; stroke-width: 0.8"/>
      </defs>
      <g>
       <use xlink:href="#m18991451e6" x="57.6" y="295.488" style="stroke: #000000; stroke-width: 0.8"/>
      </g>
     </g>
     <g id="text_8">
      <!-- 0.0 -->
      <g transform="translate(34.696875 299.287219) scale(0.1 -0.1)">
       <use xlink:href="#DejaVuSans-30"/>
       <use xlink:href="#DejaVuSans-2e" x="63.623047"/>
       <use xlink:href="#DejaVuSans-30" x="95.410156"/>
      </g>
     </g>
    </g>
    <g id="ytick_2">
     <g id="line2d_8">
      <g>
       <use xlink:href="#m18991451e6" x="57.6" y="247.104" style="stroke: #000000; stroke-width: 0.8"/>
      </g>
     </g>
     <g id="text_9">
      <!-- 0.2 -->
      <g transform="translate(34.696875 250.903219) scale(0.1 -0.1)">
       <use xlink:href="#DejaVuSans-30"/>
       <use xlink:href="#DejaVuSans-2e" x="63.623047"/>
       <use xlink:href="#DejaVuSans-32" x="95.410156"/>
      </g>
     </g>
    </g>
    <g id="ytick_3">
     <g id="line2d_9">
      <g>
       <use xlink:href="#m18991451e6" x="57.6" y="198.72" style="stroke: #000000; stroke-width: 0.8"/>
      </g>
     </g>
     <g id="text_10">
      <!-- 0.4 -->
      <g transform="translate(34.696875 202.519219) scale(0.1 -0.1)">
       <use xlink:href="#DejaVuSans-30"/>
       <use xlink:href="#DejaVuSans-2e" x="63.623047"/>
       <use xlink:href="#DejaVuSans-34" x="95.410156"/>
      </g>
     </g>
    </g>
    <g id="ytick_4">
     <g id="line2d_10">
      <g>
       <use xlink:href="#m18991451e6" x="57.6" y="150.336" style="stroke: #000000; stroke-width: 0.8"/>
      </g>
     </g>
     <g id="text_11">
      <!-- 0.6 -->
      <g transform="translate(34.696875 154.135219) scale(0.1 -0.1)">
       <use xlink:href="#DejaVuSans-30"/>
       <use xlink:href="#DejaVuSans-2e" x="63.623047"/>
       <use xlink:href="#DejaVuSans-36" x="95.410156"/>
      </g>
     </g>
    </g>
    <g id="ytick_5">
     <g id="line2d_11">
      <g>
       <use xlink:href="#m18991451e6" x="57.6" y="101.952" style="stroke: #000000; stroke-width: 0.8"/>
      </g>
     </g>
     <g id="text_12">
      <!-- 0.8 -->
      <g transform="translate(34.696875 105.751219) scale(0.1 -0.1)">
       <use xlink:href="#DejaVuSans-30"/>
       <use xlink:href="#DejaVuSans-2e" x="63.623047"/>
       <use xlink:href="#DejaVuSans-38" x="95.410156"/>
      </g>
     </g>
    </g>
    <g id="ytick_6">
     <g id="line2d_12">
      <g>
       <use xlink:href="#m18991451e6" x="57.6" y="53.568" style="stroke: #000000; stroke-width: 0.8"/>
      </g>
     </g>
     <g id="text_13">
      <!-- 1.0 -->
      <g transform="translate(34.696875 57.367219) scale(0.1 -0.1)">
       <use xlink:href="#DejaVuSans-31"/>
       <use xlink:href="#DejaVuSans-2e" x="63.623047"/>
       <use xlink:href="#DejaVuSans-30" x="95.410156"/>
      </g>
     </g>
    </g>
    <g id="text_14">
     <!-- TPR -->
     <g transform="translate(28.617188 184.070969) rotate(-90) scale(0.1 -0.1)">
      <defs>
       <path id="DejaVuSans-54" d="M -19 4666 
L 3928 4666 
L 3928 4134 
L 2272 4134 
L 2272 0 
L 1638 0 
L 1638 4134 
L -19 4134 
L -19 4666 
z
" transform="scale(0.015625)"/>
      </defs>
      <use xlink:href="#DejaVuSans-54"/>
      <use xlink:href="#DejaVuSans-50" x="61.083984"/>
      <use xlink:href="#DejaVuSans-52" x="121.386719"/>
     </g>
    </g>
   </g>
   <g id="line2d_13">
    <path d="M 73.832727 295.488 
L 73.832727 294.990222 
L 74.077996 294.990222 
L 74.159753 288.021333 
L 74.241509 288.021333 
L 74.323265 286.030222 
L 74.486778 286.030222 
L 74.486778 281.550222 
L 74.813804 281.550222 
L 74.89556 280.056889 
L 74.977316 280.056889 
L 74.977316 279.559111 
L 75.140829 279.559111 
L 75.140829 278.563556 
L 75.549611 278.563556 
L 75.631367 277.568 
L 75.876637 277.568 
L 75.958393 273.585778 
L 76.040149 273.585778 
L 76.121906 272.590222 
L 76.203662 272.590222 
L 76.203662 272.092444 
L 76.530687 272.092444 
L 76.612444 270.101333 
L 76.6942 270.101333 
L 76.6942 269.603556 
L 76.857713 269.603556 
L 76.857713 264.625778 
L 77.184738 264.625778 
L 77.266495 263.132444 
L 77.511764 263.132444 
L 77.59352 261.639111 
L 77.838789 261.639111 
L 77.838789 260.643556 
L 79.065135 260.643556 
L 79.146891 258.652444 
L 79.310404 258.652444 
L 79.39216 257.159111 
L 79.473917 257.159111 
L 79.473917 256.163556 
L 79.800942 256.163556 
L 79.800942 255.665778 
L 80.127968 255.665778 
L 80.127968 254.670222 
L 80.291481 254.670222 
L 80.291481 254.172444 
L 80.863775 254.172444 
L 80.863775 252.679111 
L 80.945531 252.679111 
L 81.354313 252.679111 
L 81.43607 251.185778 
L 81.599582 251.185778 
L 81.599582 250.190222 
L 81.844852 250.190222 
L 81.926608 248.696889 
L 82.008364 248.696889 
L 82.090121 247.701333 
L 82.33539 247.701333 
L 82.33539 247.203556 
L 82.744172 247.203556 
L 82.825928 246.208 
L 82.907684 246.208 
L 82.989441 244.714667 
L 83.152953 244.714667 
L 83.23471 243.719111 
L 83.561735 243.719111 
L 83.561735 243.221333 
L 83.807004 243.221333 
L 83.888761 241.728 
L 83.970517 241.728 
L 83.970517 241.230222 
L 84.297543 241.230222 
L 84.379299 240.234667 
L 84.461055 240.234667 
L 84.461055 239.736889 
L 84.624568 239.736889 
L 84.706324 238.243556 
L 85.278619 238.243556 
L 85.278619 237.745778 
L 85.442132 237.745778 
L 85.442132 237.248 
L 85.687401 237.248 
L 85.687401 236.750222 
L 86.259696 236.750222 
L 86.341452 235.754667 
L 86.423208 235.754667 
L 86.504965 234.759111 
L 86.995503 234.759111 
L 86.995503 234.261333 
L 87.240772 234.261333 
L 87.240772 233.763556 
L 87.486041 233.763556 
L 87.486041 232.768 
L 87.73131 232.768 
L 87.73131 231.772444 
L 88.058336 231.772444 
L 88.140092 230.279111 
L 88.548874 230.279111 
L 88.63063 228.785778 
L 88.794143 228.785778 
L 88.875899 227.292444 
L 88.957656 227.292444 
L 88.957656 226.794667 
L 89.121168 226.794667 
L 89.121168 226.296889 
L 89.284681 226.296889 
L 89.284681 225.799111 
L 89.448194 225.799111 
L 89.448194 225.301333 
L 89.775219 225.301333 
L 89.856976 224.305778 
L 90.020489 224.305778 
L 90.020489 223.310222 
L 90.265758 223.310222 
L 90.265758 222.812444 
L 90.67454 222.812444 
L 90.67454 222.314667 
L 90.919809 222.314667 
L 90.919809 221.816889 
L 91.083321 221.816889 
L 91.083321 220.821333 
L 91.32859 220.821333 
L 91.32859 220.323556 
L 91.655616 220.323556 
L 91.737372 219.328 
L 91.819129 219.328 
L 91.819129 218.830222 
L 92.146154 218.830222 
L 92.146154 218.332444 
L 92.554936 218.332444 
L 92.554936 217.834667 
L 92.718449 217.834667 
L 92.718449 217.336889 
L 92.881961 217.336889 
L 92.963718 216.341333 
L 93.536012 216.341333 
L 93.536012 215.345778 
L 93.699525 215.345778 
L 93.699525 214.848 
L 93.944794 214.848 
L 93.944794 214.350222 
L 94.108307 214.350222 
L 94.108307 213.852444 
L 94.27182 213.852444 
L 94.27182 212.359111 
L 94.435333 212.359111 
L 94.435333 210.865778 
L 94.925871 210.865778 
L 95.007627 209.870222 
L 95.252896 209.870222 
L 95.334653 208.874667 
L 95.906947 208.874667 
L 95.988704 207.381333 
L 96.07046 207.381333 
L 96.07046 206.883556 
L 96.96978 206.883556 
L 96.96978 206.385778 
L 98.114369 206.385778 
L 98.114369 205.888 
L 98.604907 205.888 
L 98.604907 205.390222 
L 98.850177 205.390222 
L 98.850177 204.394667 
L 99.095446 204.394667 
L 99.177202 202.901333 
L 99.340715 202.901333 
L 99.340715 202.403556 
L 100.403548 202.403556 
L 100.403548 201.905778 
L 101.221111 201.905778 
L 101.221111 201.408 
L 101.956919 201.408 
L 101.956919 199.914667 
L 102.120431 199.914667 
L 102.202188 197.923556 
L 102.283944 197.923556 
L 102.283944 197.425778 
L 103.26502 197.425778 
L 103.26502 196.928 
L 103.428533 196.928 
L 103.428533 196.430222 
L 103.673802 196.430222 
L 103.673802 194.439111 
L 103.919071 194.439111 
L 103.919071 193.941333 
L 104.573122 193.941333 
L 104.573122 193.443556 
L 104.818392 193.443556 
L 104.818392 192.945778 
L 105.881224 192.945778 
L 105.881224 192.448 
L 106.044737 192.448 
L 106.044737 191.950222 
L 106.453519 191.950222 
L 106.453519 191.452444 
L 107.025814 191.452444 
L 107.025814 190.954667 
L 107.843377 190.954667 
L 107.843377 190.456889 
L 108.088646 190.456889 
L 108.088646 189.959111 
L 108.579185 189.959111 
L 108.579185 189.461333 
L 109.723774 189.461333 
L 109.723774 188.963556 
L 109.887286 188.963556 
L 109.969043 187.968 
L 110.541337 187.968 
L 110.541337 187.470222 
L 111.685927 187.470222 
L 111.685927 186.972444 
L 111.849439 186.972444 
L 111.849439 186.474667 
L 112.667003 186.474667 
L 112.667003 185.976889 
L 113.566323 185.976889 
L 113.566323 185.479111 
L 113.729836 185.479111 
L 113.811592 184.483556 
L 114.792669 184.483556 
L 114.792669 183.985778 
L 115.773745 183.985778 
L 115.773745 183.488 
L 117.572385 183.488 
L 117.572385 182.990222 
L 117.817654 182.990222 
L 117.817654 181.994667 
L 118.14468 181.994667 
L 118.14468 181.496889 
L 118.553462 181.496889 
L 118.553462 180.999111 
L 118.798731 180.999111 
L 118.798731 180.501333 
L 118.962244 180.501333 
L 118.962244 180.003556 
L 121.169666 180.003556 
L 121.169666 179.505778 
L 121.905473 179.505778 
L 121.905473 179.008 
L 124.276408 179.008 
L 124.276408 178.510222 
L 124.43992 178.510222 
L 124.43992 178.012444 
L 124.766946 178.012444 
L 124.766946 177.514667 
L 125.748022 177.514667 
L 125.748022 177.016889 
L 126.320317 177.016889 
L 126.320317 176.519111 
L 126.565586 176.519111 
L 126.565586 175.523556 
L 126.729099 175.523556 
L 126.729099 175.025778 
L 127.38315 175.025778 
L 127.464906 174.030222 
L 127.955444 174.030222 
L 127.955444 173.532444 
L 128.118957 173.532444 
L 128.118957 173.034667 
L 128.445982 173.034667 
L 128.445982 172.536889 
L 129.100033 172.536889 
L 129.18179 171.541333 
L 130.408135 171.541333 
L 130.408135 171.043556 
L 131.389212 171.043556 
L 131.389212 170.545778 
L 131.797994 170.545778 
L 131.797994 170.048 
L 131.961506 170.048 
L 131.961506 169.550222 
L 132.860826 169.550222 
L 132.860826 168.554667 
L 135.231761 168.554667 
L 135.231761 168.056889 
L 135.558787 168.056889 
L 135.640543 167.061333 
L 136.212838 167.061333 
L 136.212838 166.563556 
L 136.866889 166.563556 
L 136.866889 166.065778 
L 137.112158 166.065778 
L 137.112158 165.568 
L 137.929721 165.568 
L 137.929721 165.070222 
L 138.17499 165.070222 
L 138.17499 163.576889 
L 138.665529 163.576889 
L 138.665529 163.079111 
L 139.728362 163.079111 
L 139.728362 162.581333 
L 140.055387 162.581333 
L 140.055387 162.083556 
L 140.300656 162.083556 
L 140.300656 161.585778 
L 142.01754 161.585778 
L 142.01754 161.088 
L 142.508078 161.088 
L 142.508078 160.590222 
L 143.080373 160.590222 
L 143.080373 159.594667 
L 143.243885 159.594667 
L 143.243885 159.096889 
L 143.979693 159.096889 
L 143.979693 158.599111 
L 144.7155 158.599111 
L 144.7155 158.101333 
L 145.860089 158.101333 
L 145.860089 157.603556 
L 147.658729 157.603556 
L 147.658729 157.105778 
L 148.149268 157.105778 
L 148.149268 156.608 
L 148.31278 156.608 
L 148.31278 156.110222 
L 149.45737 156.110222 
L 149.45737 155.612444 
L 149.784395 155.612444 
L 149.784395 154.616889 
L 150.029664 154.616889 
L 150.029664 154.119111 
L 150.928984 154.119111 
L 150.928984 153.621333 
L 151.501279 153.621333 
L 151.501279 153.123556 
L 152.972893 153.123556 
L 152.972893 152.625778 
L 153.790457 152.625778 
L 153.790457 152.128 
L 154.117483 152.128 
L 154.117483 151.630222 
L 154.771534 151.630222 
L 154.771534 151.132444 
L 156.65193 151.132444 
L 156.65193 150.634667 
L 157.060712 150.634667 
L 157.060712 150.136889 
L 157.305981 150.136889 
L 157.469494 149.639111 
L 157.878276 149.639111 
L 157.878276 149.141333 
L 158.45057 149.141333 
L 158.45057 148.643556 
L 158.941108 148.643556 
L 158.941108 148.145778 
L 159.34989 148.145778 
L 159.34989 147.648 
L 159.595159 147.648 
L 159.595159 147.150222 
L 160.49448 147.150222 
L 160.49448 146.652444 
L 160.657992 146.652444 
L 160.903261 146.154667 
L 161.312043 146.154667 
L 161.312043 145.656889 
L 162.947171 145.656889 
L 162.947171 145.159111 
L 165.563374 145.159111 
L 165.563374 144.661333 
L 166.380938 144.661333 
L 166.380938 144.163556 
L 166.544451 144.163556 
L 166.544451 143.665778 
L 170.632269 143.665778 
L 170.714026 143.168 
L 172.349153 143.168 
L 172.349153 142.670222 
L 173.166717 142.670222 
L 173.166717 142.172444 
L 173.657255 142.172444 
L 173.739011 141.674667 
L 174.556575 141.674667 
L 174.556575 141.176889 
L 176.109946 141.176889 
L 176.191703 140.181333 
L 176.682241 140.181333 
L 176.845754 138.688 
L 178.480881 138.688 
L 178.562637 137.692444 
L 178.889663 137.692444 
L 178.889663 137.194667 
L 180.197765 137.194667 
L 180.197765 136.696889 
L 180.279521 136.696889 
L 180.361277 136.199111 
L 181.505867 136.199111 
L 181.505867 135.701333 
L 182.241674 135.701333 
L 182.241674 135.203556 
L 182.568699 135.203556 
L 182.650456 134.208 
L 183.549776 134.208 
L 183.549776 133.710222 
L 184.36734 133.710222 
L 184.36734 133.212444 
L 184.612609 133.212444 
L 184.612609 132.714667 
L 185.511929 132.714667 
L 185.511929 132.216889 
L 186.738274 132.216889 
L 186.738274 131.719111 
L 187.882863 131.719111 
L 187.882863 131.221333 
L 188.945696 131.221333 
L 188.945696 130.723556 
L 189.109209 130.723556 
L 189.190965 130.225778 
L 190.172042 130.225778 
L 190.172042 129.728 
L 192.134195 129.728 
L 192.134195 129.230222 
L 192.46122 129.230222 
L 192.46122 128.732444 
L 192.624733 128.732444 
L 192.706489 127.736889 
L 196.385526 127.736889 
L 196.385526 127.239111 
L 197.039577 127.239111 
L 197.039577 126.741333 
L 197.611872 126.741333 
L 197.611872 126.243556 
L 197.857141 126.243556 
L 197.857141 125.745778 
L 199.00173 125.745778 
L 199.00173 125.248 
L 199.165243 125.248 
L 199.165243 124.750222 
L 199.492268 124.750222 
L 199.492268 124.252444 
L 200.309832 124.252444 
L 200.309832 123.754667 
L 200.555101 123.754667 
L 200.555101 123.256889 
L 202.108472 123.256889 
L 202.108472 122.759111 
L 203.007792 122.759111 
L 203.007792 122.261333 
L 203.661843 122.261333 
L 203.661843 121.763556 
L 204.561163 121.763556 
L 204.561163 121.265778 
L 204.888188 121.265778 
L 204.888188 120.768 
L 205.378727 120.768 
L 205.378727 120.270222 
L 205.951021 120.270222 
L 206.032778 119.772444 
L 207.504392 119.772444 
L 207.504392 119.274667 
L 209.711814 119.274667 
L 209.711814 118.776889 
L 211.592211 118.776889 
L 211.592211 118.279111 
L 212.000993 118.279111 
L 212.000993 117.781333 
L 213.963146 117.781333 
L 213.963146 117.283556 
L 215.516517 117.283556 
L 215.516517 116.785778 
L 216.824618 116.785778 
L 216.824618 116.288 
L 218.050964 116.288 
L 218.13272 115.292444 
L 221.07595 115.292444 
L 221.07595 114.794667 
L 221.239462 114.794667 
L 221.239462 114.296889 
L 221.893513 114.296889 
L 221.893513 113.799111 
L 223.855666 113.799111 
L 223.855666 113.301333 
L 224.346205 113.301333 
L 224.346205 112.803556 
L 226.063088 112.803556 
L 226.063088 112.305778 
L 227.779972 112.305778 
L 227.779972 111.808 
L 228.515779 111.808 
L 228.515779 110.812444 
L 228.924561 110.812444 
L 228.924561 110.314667 
L 229.251587 110.314667 
L 229.251587 109.816889 
L 229.742125 109.816889 
L 229.905638 109.319111 
L 231.295496 109.319111 
L 231.295496 108.323556 
L 231.786034 108.323556 
L 231.786034 107.825778 
L 232.521842 107.825778 
L 232.521842 107.328 
L 235.383314 107.328 
L 235.546827 106.830222 
L 235.546827 106.332444 
L 236.691416 106.332444 
L 236.691416 105.834667 
L 236.936686 105.834667 
L 236.936686 105.336889 
L 238.898838 105.336889 
L 238.898838 104.839111 
L 239.798158 104.839111 
L 239.798158 104.341333 
L 240.288697 104.341333 
L 240.288697 103.843556 
L 240.615722 103.843556 
L 240.697479 102.848 
L 241.269773 102.848 
L 241.269773 101.852444 
L 243.068413 101.852444 
L 243.068413 100.856889 
L 244.458272 100.856889 
L 244.458272 100.359111 
L 245.194079 100.359111 
L 245.194079 99.861333 
L 249.854192 99.861333 
L 249.854192 99.363556 
L 250.181217 99.363556 
L 250.181217 98.865778 
L 252.225127 98.865778 
L 252.225127 98.368 
L 255.004843 98.368 
L 255.004843 97.870222 
L 256.149432 97.870222 
L 256.149432 97.372444 
L 256.476458 97.372444 
L 256.476458 96.874667 
L 256.88524 96.874667 
L 256.88524 96.376889 
L 258.765636 96.376889 
L 258.765636 95.879111 
L 259.419687 95.879111 
L 259.419687 95.381333 
L 260.073738 95.381333 
L 260.073738 94.883556 
L 260.319007 94.883556 
L 260.319007 94.385778 
L 267.595324 94.385778 
L 267.595324 93.888 
L 268.249375 93.888 
L 268.249375 93.390222 
L 268.985183 93.390222 
L 268.985183 92.892444 
L 269.230452 92.892444 
L 269.230452 92.394667 
L 270.293284 92.394667 
L 270.293284 91.896889 
L 271.764899 91.896889 
L 271.764899 91.399111 
L 272.745976 91.399111 
L 272.827732 90.403556 
L 275.035154 90.403556 
L 275.280423 88.910222 
L 276.425012 88.910222 
L 276.425012 88.412444 
L 278.468921 88.412444 
L 278.468921 87.914667 
L 280.267562 87.914667 
L 280.267562 87.416889 
L 284.682406 87.416889 
L 284.682406 86.919111 
L 285.499969 86.919111 
L 285.499969 86.421333 
L 285.826995 86.421333 
L 285.826995 85.923556 
L 286.072264 85.923556 
L 286.072264 85.425778 
L 289.424275 85.425778 
L 289.424275 84.928 
L 290.160082 84.928 
L 290.160082 84.430222 
L 290.487108 84.430222 
L 290.487108 83.932444 
L 294.411414 83.932444 
L 294.411414 83.434667 
L 294.983708 83.434667 
L 294.983708 82.936889 
L 296.537079 82.936889 
L 296.537079 82.439111 
L 297.19113 82.439111 
L 297.19113 81.941333 
L 298.253963 81.941333 
L 298.335719 80.945778 
L 302.423538 80.945778 
L 302.505294 79.452444 
L 302.995833 79.452444 
L 302.995833 78.954667 
L 303.159345 78.954667 
L 303.159345 78.456889 
L 304.712716 78.456889 
L 304.712716 77.959111 
L 308.146484 77.959111 
L 308.146484 77.461333 
L 308.309997 77.461333 
L 308.309997 76.963556 
L 308.718778 76.963556 
L 308.800535 75.968 
L 309.291073 75.968 
L 309.372829 73.976889 
L 310.108637 73.976889 
L 310.108637 73.479111 
L 310.680931 73.479111 
L 310.680931 72.981333 
L 311.82552 72.981333 
L 311.82552 72.483556 
L 312.07079 72.483556 
L 312.152546 71.488 
L 312.888353 71.488 
L 312.888353 70.990222 
L 316.076852 70.990222 
L 316.076852 70.492444 
L 321.309259 70.492444 
L 321.309259 69.994667 
L 323.1079 69.994667 
L 323.1079 69.496889 
L 325.397078 69.496889 
L 325.397078 68.501333 
L 326.214642 68.501333 
L 326.214642 68.003556 
L 328.749089 68.003556 
L 328.749089 67.505778 
L 329.239627 67.505778 
L 329.239627 67.008 
L 330.874755 67.008 
L 330.874755 66.510222 
L 331.937588 66.510222 
L 331.937588 66.012444 
L 340.44025 66.012444 
L 340.44025 65.514667 
L 348.288862 65.514667 
L 348.288862 65.016889 
L 354.093564 65.016889 
L 354.093564 64.519111 
L 356.137473 64.519111 
L 356.137473 64.021333 
L 357.609088 64.021333 
L 357.609088 63.523556 
L 358.01787 63.523556 
L 358.01787 63.025778 
L 359.325971 63.025778 
L 359.325971 62.528 
L 359.734753 62.528 
L 359.734753 62.030222 
L 360.470561 62.030222 
L 360.552317 61.034667 
L 365.457699 61.034667 
L 365.457699 60.536889 
L 366.520532 60.536889 
L 366.520532 60.039111 
L 367.338096 60.039111 
L 367.338096 59.541333 
L 378.293449 59.541333 
L 378.293449 59.043556 
L 379.765064 59.043556 
L 379.765064 58.545778 
L 384.670446 58.545778 
L 384.670446 58.048 
L 384.833959 58.048 
L 384.833959 57.550222 
L 386.305574 57.550222 
L 386.305574 57.052444 
L 386.469086 57.052444 
L 386.469086 56.554667 
L 390.148123 56.554667 
L 390.148123 56.056889 
L 390.802174 56.056889 
L 390.802174 55.559111 
L 393.173109 55.559111 
L 393.173109 55.061333 
L 395.298774 55.061333 
L 395.298774 54.563556 
L 395.544043 54.563556 
L 395.544043 54.065778 
L 396.933902 54.065778 
L 396.933902 53.568 
L 398.487273 53.568 
L 398.487273 53.568 
" clip-path="url(#pf7a71bf784)" style="fill: none; stroke: #1f77b4; stroke-width: 1.5; stroke-linecap: square"/>
   </g>
   <g id="patch_3">
    <path d="M 57.6 307.584 
L 57.6 41.472 
" style="fill: none; stroke: #000000; stroke-width: 0.8; stroke-linejoin: miter; stroke-linecap: square"/>
   </g>
   <g id="patch_4">
    <path d="M 414.72 307.584 
L 414.72 41.472 
" style="fill: none; stroke: #000000; stroke-width: 0.8; stroke-linejoin: miter; stroke-linecap: square"/>
   </g>
   <g id="patch_5">
    <path d="M 57.6 307.584 
L 414.72 307.584 
" style="fill: none; stroke: #000000; stroke-width: 0.8; stroke-linejoin: miter; stroke-linecap: square"/>
   </g>
   <g id="patch_6">
    <path d="M 57.6 41.472 
L 414.72 41.472 
" style="fill: none; stroke: #000000; stroke-width: 0.8; stroke-linejoin: miter; stroke-linecap: square"/>
   </g>
   <g id="text_15">
    <!-- ROC Curve -->
    <g transform="translate(203.469375 35.472) scale(0.12 -0.12)">
     <defs>
      <path id="DejaVuSans-4f" d="M 2522 4238 
Q 1834 4238 1429 3725 
Q 1025 3213 1025 2328 
Q 1025 1447 1429 934 
Q 1834 422 2522 422 
Q 3209 422 3611 934 
Q 4013 1447 4013 2328 
Q 4013 3213 3611 3725 
Q 3209 4238 2522 4238 
z
M 2522 4750 
Q 3503 4750 4090 4092 
Q 4678 3434 4678 2328 
Q 4678 1225 4090 567 
Q 3503 -91 2522 -91 
Q 1538 -91 948 565 
Q 359 1222 359 2328 
Q 359 3434 948 4092 
Q 1538 4750 2522 4750 
z
" transform="scale(0.015625)"/>
      <path id="DejaVuSans-43" d="M 4122 4306 
L 4122 3641 
Q 3803 3938 3442 4084 
Q 3081 4231 2675 4231 
Q 1875 4231 1450 3742 
Q 1025 3253 1025 2328 
Q 1025 1406 1450 917 
Q 1875 428 2675 428 
Q 3081 428 3442 575 
Q 3803 722 4122 1019 
L 4122 359 
Q 3791 134 3420 21 
Q 3050 -91 2638 -91 
Q 1578 -91 968 557 
Q 359 1206 359 2328 
Q 359 3453 968 4101 
Q 1578 4750 2638 4750 
Q 3056 4750 3426 4639 
Q 3797 4528 4122 4306 
z
" transform="scale(0.015625)"/>
      <path id="DejaVuSans-20" transform="scale(0.015625)"/>
      <path id="DejaVuSans-75" d="M 544 1381 
L 544 3500 
L 1119 3500 
L 1119 1403 
Q 1119 906 1312 657 
Q 1506 409 1894 409 
Q 2359 409 2629 706 
Q 2900 1003 2900 1516 
L 2900 3500 
L 3475 3500 
L 3475 0 
L 2900 0 
L 2900 538 
Q 2691 219 2414 64 
Q 2138 -91 1772 -91 
Q 1169 -91 856 284 
Q 544 659 544 1381 
z
M 1991 3584 
L 1991 3584 
z
" transform="scale(0.015625)"/>
      <path id="DejaVuSans-72" d="M 2631 2963 
Q 2534 3019 2420 3045 
Q 2306 3072 2169 3072 
Q 1681 3072 1420 2755 
Q 1159 2438 1159 1844 
L 1159 0 
L 581 0 
L 581 3500 
L 1159 3500 
L 1159 2956 
Q 1341 3275 1631 3429 
Q 1922 3584 2338 3584 
Q 2397 3584 2469 3576 
Q 2541 3569 2628 3553 
L 2631 2963 
z
" transform="scale(0.015625)"/>
      <path id="DejaVuSans-76" d="M 191 3500 
L 800 3500 
L 1894 563 
L 2988 3500 
L 3597 3500 
L 2284 0 
L 1503 0 
L 191 3500 
z
" transform="scale(0.015625)"/>
      <path id="DejaVuSans-65" d="M 3597 1894 
L 3597 1613 
L 953 1613 
Q 991 1019 1311 708 
Q 1631 397 2203 397 
Q 2534 397 2845 478 
Q 3156 559 3463 722 
L 3463 178 
Q 3153 47 2828 -22 
Q 2503 -91 2169 -91 
Q 1331 -91 842 396 
Q 353 884 353 1716 
Q 353 2575 817 3079 
Q 1281 3584 2069 3584 
Q 2775 3584 3186 3129 
Q 3597 2675 3597 1894 
z
M 3022 2063 
Q 3016 2534 2758 2815 
Q 2500 3097 2075 3097 
Q 1594 3097 1305 2825 
Q 1016 2553 972 2059 
L 3022 2063 
z
" transform="scale(0.015625)"/>
     </defs>
     <use xlink:href="#DejaVuSans-52"/>
     <use xlink:href="#DejaVuSans-4f" x="69.482422"/>
     <use xlink:href="#DejaVuSans-43" x="148.193359"/>
     <use xlink:href="#DejaVuSans-20" x="218.017578"/>
     <use xlink:href="#DejaVuSans-43" x="249.804688"/>
     <use xlink:href="#DejaVuSans-75" x="319.628906"/>
     <use xlink:href="#DejaVuSans-72" x="383.007812"/>
     <use xlink:href="#DejaVuSans-76" x="424.121094"/>
     <use xlink:href="#DejaVuSans-65" x="483.300781"/>
    </g>
   </g>
  </g>
 </g>
 <defs>
  <clipPath id="pf7a71bf784">
   <rect x="57.6" y="41.472" width="357.12" height="266.112"/>
  </clipPath>
 </defs>
</svg>
