<?xml version="1.0" encoding="utf-8" standalone="no"?>
<!DOCTYPE svg PUBLIC "-//W3C//DTD SVG 1.1//EN"
  "http://www.w3.org/Graphics/SVG/1.1/DTD/svg11.dtd">
<svg xmlns:xlink="http://www.w3.org/1999/xlink" width="460.8pt" height="345.6pt" viewBox="0 0 460.8 345.6" xmlns="http://www.w3.org/2000/svg" version="1.1">
 <metadata>
  <rdf:RDF xmlns:dc="http://purl.org/dc/elements/1.1/" xmlns:cc="http://creativecommons.org/ns#" xmlns:rdf="http://www.w3.org/1999/02/22-rdf-syntax-ns#">
   <cc:Work>
    <dc:type rdf:resource="http://purl.org/dc/dcmitype/StillImage"/>
    <dc:date>2023-05-29T12:56:50.854734</dc:date>
    <dc:format>image/svg+xml</dc:format>
    <dc:creator>
     <cc:Agent>
      <dc:title>Matplotlib v3.7.1, https://matplotlib.org/</dc:title>
     </cc:Agent>
    </dc:creator>
   </cc:Work>
  </rdf:RDF>
 </metadata>
 <defs>
  <style type="text/css">*{stroke-linejoin: round; stroke-linecap: butt}</style>
 </defs>
 <g id="figure_1">
  <g id="patch_1">
   <path d="M 0 345.6 
L 460.8 345.6 
L 460.8 0 
L 0 0 
z
" style="fill: #ffffff"/>
  </g>
  <g id="axes_1">
   <g id="patch_2">
    <path d="M 57.6 307.584 
L 414.72 307.584 
L 414.72 41.472 
L 57.6 41.472 
z
" style="fill: #ffffff"/>
   </g>
   <g id="matplotlib.axis_1">
    <g id="xtick_1">
     <g id="line2d_1">
      <defs>
       <path id="m38996fa5b4" d="M 0 0 
L 0 3.5 
" style="stroke: #000000; stroke-width: 0.8"/>
      </defs>
      <g>
       <use xlink:href="#m38996fa5b4" x="73.832727" y="307.584" style="stroke: #000000; stroke-width: 0.8"/>
      </g>
     </g>
     <g id="text_1">
      <!-- 0.0 -->
      <g transform="translate(65.881165 322.182437) scale(0.1 -0.1)">
       <defs>
        <path id="DejaVuSans-30" d="M 2034 4250 
Q 1547 4250 1301 3770 
Q 1056 3291 1056 2328 
Q 1056 1369 1301 889 
Q 1547 409 2034 409 
Q 2525 409 2770 889 
Q 3016 1369 3016 2328 
Q 3016 3291 2770 3770 
Q 2525 4250 2034 4250 
z
M 2034 4750 
Q 2819 4750 3233 4129 
Q 3647 3509 3647 2328 
Q 3647 1150 3233 529 
Q 2819 -91 2034 -91 
Q 1250 -91 836 529 
Q 422 1150 422 2328 
Q 422 3509 836 4129 
Q 1250 4750 2034 4750 
z
" transform="scale(0.015625)"/>
        <path id="DejaVuSans-2e" d="M 684 794 
L 1344 794 
L 1344 0 
L 684 0 
L 684 794 
z
" transform="scale(0.015625)"/>
       </defs>
       <use xlink:href="#DejaVuSans-30"/>
       <use xlink:href="#DejaVuSans-2e" x="63.623047"/>
       <use xlink:href="#DejaVuSans-30" x="95.410156"/>
      </g>
     </g>
    </g>
    <g id="xtick_2">
     <g id="line2d_2">
      <g>
       <use xlink:href="#m38996fa5b4" x="138.763636" y="307.584" style="stroke: #000000; stroke-width: 0.8"/>
      </g>
     </g>
     <g id="text_2">
      <!-- 0.2 -->
      <g transform="translate(130.812074 322.182437) scale(0.1 -0.1)">
       <defs>
        <path id="DejaVuSans-32" d="M 1228 531 
L 3431 531 
L 3431 0 
L 469 0 
L 469 531 
Q 828 903 1448 1529 
Q 2069 2156 2228 2338 
Q 2531 2678 2651 2914 
Q 2772 3150 2772 3378 
Q 2772 3750 2511 3984 
Q 2250 4219 1831 4219 
Q 1534 4219 1204 4116 
Q 875 4013 500 3803 
L 500 4441 
Q 881 4594 1212 4672 
Q 1544 4750 1819 4750 
Q 2544 4750 2975 4387 
Q 3406 4025 3406 3419 
Q 3406 3131 3298 2873 
Q 3191 2616 2906 2266 
Q 2828 2175 2409 1742 
Q 1991 1309 1228 531 
z
" transform="scale(0.015625)"/>
       </defs>
       <use xlink:href="#DejaVuSans-30"/>
       <use xlink:href="#DejaVuSans-2e" x="63.623047"/>
       <use xlink:href="#DejaVuSans-32" x="95.410156"/>
      </g>
     </g>
    </g>
    <g id="xtick_3">
     <g id="line2d_3">
      <g>
       <use xlink:href="#m38996fa5b4" x="203.694545" y="307.584" style="stroke: #000000; stroke-width: 0.8"/>
      </g>
     </g>
     <g id="text_3">
      <!-- 0.4 -->
      <g transform="translate(195.742983 322.182437) scale(0.1 -0.1)">
       <defs>
        <path id="DejaVuSans-34" d="M 2419 4116 
L 825 1625 
L 2419 1625 
L 2419 4116 
z
M 2253 4666 
L 3047 4666 
L 3047 1625 
L 3713 1625 
L 3713 1100 
L 3047 1100 
L 3047 0 
L 2419 0 
L 2419 1100 
L 313 1100 
L 313 1709 
L 2253 4666 
z
" transform="scale(0.015625)"/>
       </defs>
       <use xlink:href="#DejaVuSans-30"/>
       <use xlink:href="#DejaVuSans-2e" x="63.623047"/>
       <use xlink:href="#DejaVuSans-34" x="95.410156"/>
      </g>
     </g>
    </g>
    <g id="xtick_4">
     <g id="line2d_4">
      <g>
       <use xlink:href="#m38996fa5b4" x="268.625455" y="307.584" style="stroke: #000000; stroke-width: 0.8"/>
      </g>
     </g>
     <g id="text_4">
      <!-- 0.6 -->
      <g transform="translate(260.673892 322.182437) scale(0.1 -0.1)">
       <defs>
        <path id="DejaVuSans-36" d="M 2113 2584 
Q 1688 2584 1439 2293 
Q 1191 2003 1191 1497 
Q 1191 994 1439 701 
Q 1688 409 2113 409 
Q 2538 409 2786 701 
Q 3034 994 3034 1497 
Q 3034 2003 2786 2293 
Q 2538 2584 2113 2584 
z
M 3366 4563 
L 3366 3988 
Q 3128 4100 2886 4159 
Q 2644 4219 2406 4219 
Q 1781 4219 1451 3797 
Q 1122 3375 1075 2522 
Q 1259 2794 1537 2939 
Q 1816 3084 2150 3084 
Q 2853 3084 3261 2657 
Q 3669 2231 3669 1497 
Q 3669 778 3244 343 
Q 2819 -91 2113 -91 
Q 1303 -91 875 529 
Q 447 1150 447 2328 
Q 447 3434 972 4092 
Q 1497 4750 2381 4750 
Q 2619 4750 2861 4703 
Q 3103 4656 3366 4563 
z
" transform="scale(0.015625)"/>
       </defs>
       <use xlink:href="#DejaVuSans-30"/>
       <use xlink:href="#DejaVuSans-2e" x="63.623047"/>
       <use xlink:href="#DejaVuSans-36" x="95.410156"/>
      </g>
     </g>
    </g>
    <g id="xtick_5">
     <g id="line2d_5">
      <g>
       <use xlink:href="#m38996fa5b4" x="333.556364" y="307.584" style="stroke: #000000; stroke-width: 0.8"/>
      </g>
     </g>
     <g id="text_5">
      <!-- 0.8 -->
      <g transform="translate(325.604801 322.182437) scale(0.1 -0.1)">
       <defs>
        <path id="DejaVuSans-38" d="M 2034 2216 
Q 1584 2216 1326 1975 
Q 1069 1734 1069 1313 
Q 1069 891 1326 650 
Q 1584 409 2034 409 
Q 2484 409 2743 651 
Q 3003 894 3003 1313 
Q 3003 1734 2745 1975 
Q 2488 2216 2034 2216 
z
M 1403 2484 
Q 997 2584 770 2862 
Q 544 3141 544 3541 
Q 544 4100 942 4425 
Q 1341 4750 2034 4750 
Q 2731 4750 3128 4425 
Q 3525 4100 3525 3541 
Q 3525 3141 3298 2862 
Q 3072 2584 2669 2484 
Q 3125 2378 3379 2068 
Q 3634 1759 3634 1313 
Q 3634 634 3220 271 
Q 2806 -91 2034 -91 
Q 1263 -91 848 271 
Q 434 634 434 1313 
Q 434 1759 690 2068 
Q 947 2378 1403 2484 
z
M 1172 3481 
Q 1172 3119 1398 2916 
Q 1625 2713 2034 2713 
Q 2441 2713 2670 2916 
Q 2900 3119 2900 3481 
Q 2900 3844 2670 4047 
Q 2441 4250 2034 4250 
Q 1625 4250 1398 4047 
Q 1172 3844 1172 3481 
z
" transform="scale(0.015625)"/>
       </defs>
       <use xlink:href="#DejaVuSans-30"/>
       <use xlink:href="#DejaVuSans-2e" x="63.623047"/>
       <use xlink:href="#DejaVuSans-38" x="95.410156"/>
      </g>
     </g>
    </g>
    <g id="xtick_6">
     <g id="line2d_6">
      <g>
       <use xlink:href="#m38996fa5b4" x="398.487273" y="307.584" style="stroke: #000000; stroke-width: 0.8"/>
      </g>
     </g>
     <g id="text_6">
      <!-- 1.0 -->
      <g transform="translate(390.53571 322.182437) scale(0.1 -0.1)">
       <defs>
        <path id="DejaVuSans-31" d="M 794 531 
L 1825 531 
L 1825 4091 
L 703 3866 
L 703 4441 
L 1819 4666 
L 2450 4666 
L 2450 531 
L 3481 531 
L 3481 0 
L 794 0 
L 794 531 
z
" transform="scale(0.015625)"/>
       </defs>
       <use xlink:href="#DejaVuSans-31"/>
       <use xlink:href="#DejaVuSans-2e" x="63.623047"/>
       <use xlink:href="#DejaVuSans-30" x="95.410156"/>
      </g>
     </g>
    </g>
    <g id="text_7">
     <!-- FPR -->
     <g transform="translate(226.795156 335.860562) scale(0.1 -0.1)">
      <defs>
       <path id="DejaVuSans-46" d="M 628 4666 
L 3309 4666 
L 3309 4134 
L 1259 4134 
L 1259 2759 
L 3109 2759 
L 3109 2228 
L 1259 2228 
L 1259 0 
L 628 0 
L 628 4666 
z
" transform="scale(0.015625)"/>
       <path id="DejaVuSans-50" d="M 1259 4147 
L 1259 2394 
L 2053 2394 
Q 2494 2394 2734 2622 
Q 2975 2850 2975 3272 
Q 2975 3691 2734 3919 
Q 2494 4147 2053 4147 
L 1259 4147 
z
M 628 4666 
L 2053 4666 
Q 2838 4666 3239 4311 
Q 3641 3956 3641 3272 
Q 3641 2581 3239 2228 
Q 2838 1875 2053 1875 
L 1259 1875 
L 1259 0 
L 628 0 
L 628 4666 
z
" transform="scale(0.015625)"/>
       <path id="DejaVuSans-52" d="M 2841 2188 
Q 3044 2119 3236 1894 
Q 3428 1669 3622 1275 
L 4263 0 
L 3584 0 
L 2988 1197 
Q 2756 1666 2539 1819 
Q 2322 1972 1947 1972 
L 1259 1972 
L 1259 0 
L 628 0 
L 628 4666 
L 2053 4666 
Q 2853 4666 3247 4331 
Q 3641 3997 3641 3322 
Q 3641 2881 3436 2590 
Q 3231 2300 2841 2188 
z
M 1259 4147 
L 1259 2491 
L 2053 2491 
Q 2509 2491 2742 2702 
Q 2975 2913 2975 3322 
Q 2975 3731 2742 3939 
Q 2509 4147 2053 4147 
L 1259 4147 
z
" transform="scale(0.015625)"/>
      </defs>
      <use xlink:href="#DejaVuSans-46"/>
      <use xlink:href="#DejaVuSans-50" x="57.519531"/>
      <use xlink:href="#DejaVuSans-52" x="117.822266"/>
     </g>
    </g>
   </g>
   <g id="matplotlib.axis_2">
    <g id="ytick_1">
     <g id="line2d_7">
      <defs>
       <path id="m886abaa4c8" d="M 0 0 
L -3.5 0 
" style="stroke: #000000; stroke-width: 0.8"/>
      </defs>
      <g>
       <use xlink:href="#m886abaa4c8" x="57.6" y="295.488" style="stroke: #000000; stroke-width: 0.8"/>
      </g>
     </g>
     <g id="text_8">
      <!-- 0.0 -->
      <g transform="translate(34.696875 299.287219) scale(0.1 -0.1)">
       <use xlink:href="#DejaVuSans-30"/>
       <use xlink:href="#DejaVuSans-2e" x="63.623047"/>
       <use xlink:href="#DejaVuSans-30" x="95.410156"/>
      </g>
     </g>
    </g>
    <g id="ytick_2">
     <g id="line2d_8">
      <g>
       <use xlink:href="#m886abaa4c8" x="57.6" y="247.104" style="stroke: #000000; stroke-width: 0.8"/>
      </g>
     </g>
     <g id="text_9">
      <!-- 0.2 -->
      <g transform="translate(34.696875 250.903219) scale(0.1 -0.1)">
       <use xlink:href="#DejaVuSans-30"/>
       <use xlink:href="#DejaVuSans-2e" x="63.623047"/>
       <use xlink:href="#DejaVuSans-32" x="95.410156"/>
      </g>
     </g>
    </g>
    <g id="ytick_3">
     <g id="line2d_9">
      <g>
       <use xlink:href="#m886abaa4c8" x="57.6" y="198.72" style="stroke: #000000; stroke-width: 0.8"/>
      </g>
     </g>
     <g id="text_10">
      <!-- 0.4 -->
      <g transform="translate(34.696875 202.519219) scale(0.1 -0.1)">
       <use xlink:href="#DejaVuSans-30"/>
       <use xlink:href="#DejaVuSans-2e" x="63.623047"/>
       <use xlink:href="#DejaVuSans-34" x="95.410156"/>
      </g>
     </g>
    </g>
    <g id="ytick_4">
     <g id="line2d_10">
      <g>
       <use xlink:href="#m886abaa4c8" x="57.6" y="150.336" style="stroke: #000000; stroke-width: 0.8"/>
      </g>
     </g>
     <g id="text_11">
      <!-- 0.6 -->
      <g transform="translate(34.696875 154.135219) scale(0.1 -0.1)">
       <use xlink:href="#DejaVuSans-30"/>
       <use xlink:href="#DejaVuSans-2e" x="63.623047"/>
       <use xlink:href="#DejaVuSans-36" x="95.410156"/>
      </g>
     </g>
    </g>
    <g id="ytick_5">
     <g id="line2d_11">
      <g>
       <use xlink:href="#m886abaa4c8" x="57.6" y="101.952" style="stroke: #000000; stroke-width: 0.8"/>
      </g>
     </g>
     <g id="text_12">
      <!-- 0.8 -->
      <g transform="translate(34.696875 105.751219) scale(0.1 -0.1)">
       <use xlink:href="#DejaVuSans-30"/>
       <use xlink:href="#DejaVuSans-2e" x="63.623047"/>
       <use xlink:href="#DejaVuSans-38" x="95.410156"/>
      </g>
     </g>
    </g>
    <g id="ytick_6">
     <g id="line2d_12">
      <g>
       <use xlink:href="#m886abaa4c8" x="57.6" y="53.568" style="stroke: #000000; stroke-width: 0.8"/>
      </g>
     </g>
     <g id="text_13">
      <!-- 1.0 -->
      <g transform="translate(34.696875 57.367219) scale(0.1 -0.1)">
       <use xlink:href="#DejaVuSans-31"/>
       <use xlink:href="#DejaVuSans-2e" x="63.623047"/>
       <use xlink:href="#DejaVuSans-30" x="95.410156"/>
      </g>
     </g>
    </g>
    <g id="text_14">
     <!-- TPR -->
     <g transform="translate(28.617188 184.070969) rotate(-90) scale(0.1 -0.1)">
      <defs>
       <path id="DejaVuSans-54" d="M -19 4666 
L 3928 4666 
L 3928 4134 
L 2272 4134 
L 2272 0 
L 1638 0 
L 1638 4134 
L -19 4134 
L -19 4666 
z
" transform="scale(0.015625)"/>
      </defs>
      <use xlink:href="#DejaVuSans-54"/>
      <use xlink:href="#DejaVuSans-50" x="61.083984"/>
      <use xlink:href="#DejaVuSans-52" x="121.386719"/>
     </g>
    </g>
   </g>
   <g id="line2d_13">
    <path d="M 73.832727 295.488 
L 73.99624 295.488 
L 74.077996 292.501333 
L 74.159753 292.501333 
L 74.241509 289.016889 
L 74.323265 289.016889 
L 74.405022 285.034667 
L 74.486778 285.034667 
L 74.568535 283.043556 
L 74.650291 283.043556 
L 74.732047 281.052444 
L 74.813804 280.554667 
L 74.813804 279.559111 
L 75.059073 279.559111 
L 75.140829 278.563556 
L 75.304342 278.563556 
L 75.304342 277.070222 
L 75.467855 277.070222 
L 75.549611 276.074667 
L 75.713124 276.074667 
L 75.713124 275.576889 
L 75.876637 275.576889 
L 75.958393 274.581333 
L 76.040149 274.581333 
L 76.121906 273.585778 
L 76.285418 273.585778 
L 76.285418 272.590222 
L 76.775957 272.590222 
L 76.775957 272.092444 
L 76.939469 272.092444 
L 76.939469 271.096889 
L 77.102982 271.096889 
L 77.184738 269.105778 
L 77.430008 269.105778 
L 77.430008 266.616889 
L 77.59352 266.616889 
L 77.59352 266.119111 
L 77.757033 266.119111 
L 77.838789 264.625778 
L 77.920546 264.625778 
L 77.920546 264.128 
L 78.084059 264.128 
L 78.165815 263.630222 
L 78.165815 262.136889 
L 78.411084 262.136889 
L 78.411084 259.648 
L 78.656353 259.648 
L 78.738109 258.652444 
L 78.901622 258.652444 
L 78.983379 257.656889 
L 79.228648 257.656889 
L 79.228648 257.159111 
L 79.39216 257.159111 
L 79.39216 256.163556 
L 79.719186 256.163556 
L 79.719186 254.172444 
L 80.127968 252.679111 
L 80.127968 251.683556 
L 80.291481 251.683556 
L 80.291481 251.185778 
L 80.53675 251.185778 
L 80.53675 250.688 
L 81.190801 250.688 
L 81.190801 250.190222 
L 81.599582 250.190222 
L 81.599582 249.692444 
L 81.763095 249.692444 
L 81.844852 248.696889 
L 82.090121 248.696889 
L 82.171877 248.199111 
L 82.417146 248.199111 
L 82.417146 247.701333 
L 82.662415 247.701333 
L 82.744172 246.208 
L 82.825928 246.208 
L 82.907684 245.212444 
L 83.23471 245.212444 
L 83.23471 244.216889 
L 83.398223 244.216889 
L 83.561735 243.221333 
L 83.970517 243.221333 
L 83.970517 242.225778 
L 84.297543 242.225778 
L 84.297543 241.728 
L 84.379299 241.728 
L 84.461055 241.230222 
L 84.461055 239.736889 
L 85.196863 239.736889 
L 85.278619 236.252444 
L 85.523888 236.252444 
L 85.523888 234.759111 
L 86.014426 234.759111 
L 86.096183 233.763556 
L 86.668477 233.763556 
L 86.668477 233.265778 
L 87.077259 233.265778 
L 87.159016 231.772444 
L 87.404285 231.772444 
L 87.404285 231.274667 
L 87.649554 231.274667 
L 87.649554 230.776889 
L 87.976579 230.776889 
L 88.058336 229.781333 
L 88.140092 229.781333 
L 88.140092 229.283556 
L 88.303605 229.283556 
L 88.303605 228.288 
L 88.63063 228.288 
L 88.63063 227.790222 
L 88.794143 227.790222 
L 88.794143 227.292444 
L 89.938732 227.292444 
L 89.938732 226.296889 
L 90.511027 226.296889 
L 90.511027 225.799111 
L 91.246834 225.799111 
L 91.410347 225.301333 
L 91.737372 225.301333 
L 91.737372 224.803556 
L 91.900885 224.803556 
L 91.900885 224.305778 
L 92.309667 224.305778 
L 92.309667 223.808 
L 92.47318 223.808 
L 92.47318 223.310222 
L 93.454256 223.310222 
L 93.454256 222.812444 
L 93.617769 222.812444 
L 93.699525 221.319111 
L 94.108307 221.319111 
L 94.108307 219.825778 
L 94.27182 219.825778 
L 94.27182 219.328 
L 94.925871 219.328 
L 95.007627 218.332444 
L 95.334653 218.332444 
L 95.416409 217.336889 
L 95.743434 217.336889 
L 95.743434 216.839111 
L 95.988704 216.839111 
L 95.988704 215.345778 
L 96.07046 215.345778 
L 96.233973 214.848 
L 96.233973 214.350222 
L 96.560998 214.350222 
L 96.560998 213.852444 
L 96.96978 213.852444 
L 97.051536 212.856889 
L 97.215049 212.856889 
L 97.378562 212.359111 
L 97.542075 212.359111 
L 97.623831 211.363556 
L 97.787344 211.363556 
L 97.787344 210.865778 
L 98.114369 210.865778 
L 98.114369 209.870222 
L 98.359638 209.870222 
L 98.604907 208.874667 
L 98.686664 206.385778 
L 98.76842 206.385778 
L 98.76842 205.888 
L 99.340715 205.888 
L 99.422471 204.394667 
L 99.504227 204.394667 
L 99.504227 203.896889 
L 99.749497 203.896889 
L 99.749497 203.399111 
L 99.994766 203.399111 
L 99.994766 202.901333 
L 100.158278 201.408 
L 100.730573 201.408 
L 100.730573 200.910222 
L 100.894086 200.910222 
L 100.894086 200.412444 
L 101.302868 200.412444 
L 101.302868 199.914667 
L 101.629893 199.914667 
L 101.629893 198.919111 
L 101.875162 198.919111 
L 101.956919 196.430222 
L 102.202188 196.430222 
L 102.202188 195.932444 
L 102.529213 195.932444 
L 102.529213 195.434667 
L 103.101508 195.434667 
L 103.183264 193.941333 
L 103.26502 193.941333 
L 103.26502 193.443556 
L 103.673802 193.443556 
L 103.673802 192.945778 
L 104.900148 192.945778 
L 104.900148 192.448 
L 105.145417 192.448 
L 105.145417 191.452444 
L 105.227173 191.452444 
L 105.881224 191.452444 
L 105.962981 190.456889 
L 107.189326 190.456889 
L 107.189326 189.959111 
L 107.434595 189.959111 
L 107.434595 189.461333 
L 107.925134 189.461333 
L 107.925134 188.963556 
L 108.088646 188.963556 
L 108.333915 188.465778 
L 108.742697 188.465778 
L 108.742697 187.968 
L 110.377825 187.968 
L 110.459581 186.972444 
L 112.094708 186.972444 
L 112.094708 185.976889 
L 113.566323 185.976889 
L 113.566323 185.479111 
L 115.119694 185.479111 
L 115.201451 184.483556 
L 115.364963 184.483556 
L 115.364963 183.985778 
L 115.773745 183.985778 
L 115.773745 183.488 
L 116.019014 183.488 
L 116.019014 182.990222 
L 116.34604 182.990222 
L 116.34604 182.492444 
L 116.673065 182.492444 
L 116.673065 181.994667 
L 116.918334 181.994667 
L 116.918334 181.496889 
L 117.490629 181.496889 
L 117.490629 180.999111 
L 120.352102 180.999111 
L 120.352102 180.501333 
L 120.760884 180.501333 
L 120.760884 180.003556 
L 121.087909 180.003556 
L 121.169666 179.008 
L 122.068986 179.008 
L 122.068986 178.510222 
L 122.723037 178.510222 
L 122.723037 178.012444 
L 122.886549 178.012444 
L 122.886549 177.514667 
L 123.295331 177.514667 
L 123.295331 177.016889 
L 124.194651 177.016889 
L 124.194651 176.519111 
L 124.521677 176.519111 
L 124.521677 176.021333 
L 126.156804 176.021333 
L 126.156804 175.523556 
L 127.955444 175.523556 
L 127.955444 175.025778 
L 128.200713 175.025778 
L 128.28247 174.030222 
L 130.08111 174.030222 
L 130.08111 173.532444 
L 130.489892 173.532444 
L 130.489892 172.536889 
L 131.307455 172.536889 
L 131.389212 171.541333 
L 131.797994 171.541333 
L 132.125019 171.043556 
L 132.860826 171.043556 
L 132.860826 170.545778 
L 133.923659 170.545778 
L 133.923659 170.048 
L 134.986492 170.048 
L 134.986492 169.550222 
L 135.47703 169.550222 
L 135.47703 169.052444 
L 136.621619 169.052444 
L 136.621619 168.554667 
L 136.785132 168.554667 
L 136.785132 168.056889 
L 137.52094 168.056889 
L 137.602696 167.061333 
L 138.093234 167.061333 
L 138.093234 166.563556 
L 138.42026 166.563556 
L 138.42026 166.065778 
L 138.910798 166.065778 
L 138.910798 165.568 
L 139.074311 165.568 
L 139.074311 165.070222 
L 139.401336 165.070222 
L 139.401336 164.572444 
L 139.810118 164.572444 
L 139.891874 163.079111 
L 139.973631 163.079111 
L 140.464169 162.083556 
L 140.464169 161.585778 
L 140.709438 161.585778 
L 140.709438 161.088 
L 140.954707 161.088 
L 140.954707 160.590222 
L 141.363489 160.590222 
L 141.363489 160.092444 
L 141.527002 160.092444 
L 141.527002 159.594667 
L 142.344565 159.594667 
L 142.344565 159.096889 
L 144.306718 159.096889 
L 144.306718 158.599111 
L 146.595897 158.599111 
L 146.595897 158.101333 
L 147.004678 158.101333 
L 147.004678 157.603556 
L 147.41346 157.603556 
L 147.41346 157.105778 
L 148.394537 157.105778 
L 148.394537 156.608 
L 150.438446 156.608 
L 150.438446 156.110222 
L 150.847228 156.110222 
L 150.847228 155.612444 
L 151.174253 155.612444 
L 151.25601 154.616889 
L 151.501279 154.616889 
L 151.501279 154.119111 
L 152.237086 154.119111 
L 152.237086 153.621333 
L 152.972893 153.621333 
L 152.972893 153.123556 
L 156.243148 153.123556 
L 156.897199 152.625778 
L 156.897199 152.128 
L 157.633007 152.128 
L 157.633007 151.630222 
L 157.960032 151.630222 
L 158.041788 150.136889 
L 158.287058 150.136889 
L 158.287058 149.639111 
L 159.34989 149.639111 
L 159.34989 148.643556 
L 159.513403 148.643556 
L 159.513403 148.145778 
L 160.657992 148.145778 
L 160.657992 147.648 
L 161.066774 147.648 
L 161.14853 146.652444 
L 161.720825 146.652444 
L 161.966094 146.154667 
L 164.09176 146.154667 
L 164.09176 145.656889 
L 164.418785 145.656889 
L 164.418785 145.159111 
L 166.953233 145.159111 
L 166.953233 144.661333 
L 167.116745 144.661333 
L 167.116745 144.163556 
L 167.280258 144.163556 
L 167.280258 143.665778 
L 168.343091 143.665778 
L 168.751873 142.670222 
L 169.896462 142.670222 
L 169.896462 142.172444 
L 170.387 142.172444 
L 170.387 141.674667 
L 172.921448 141.674667 
L 172.921448 141.176889 
L 173.657255 141.176889 
L 173.657255 140.679111 
L 175.292383 140.679111 
L 175.864677 140.181333 
L 180.116008 140.181333 
L 180.116008 139.683556 
L 183.059238 139.683556 
L 183.059238 138.688 
L 184.857878 138.688 
L 184.857878 138.190222 
L 186.574762 138.190222 
L 186.574762 137.692444 
L 189.436235 137.692444 
L 189.436235 137.194667 
L 189.845016 137.194667 
L 189.845016 136.696889 
L 190.008529 136.696889 
L 190.008529 136.199111 
L 190.499067 136.199111 
L 190.580824 135.203556 
L 191.807169 135.203556 
L 191.807169 134.705778 
L 191.888926 134.705778 
L 192.052438 133.710222 
L 192.379464 133.710222 
L 192.379464 133.212444 
L 192.542977 133.212444 
L 192.542977 132.714667 
L 192.706489 132.714667 
L 192.706489 132.216889 
L 193.524053 132.216889 
L 193.524053 131.719111 
L 195.15918 131.719111 
L 195.15918 131.221333 
L 195.567962 131.221333 
L 195.567962 130.723556 
L 195.894988 130.723556 
L 195.894988 130.225778 
L 196.794308 130.225778 
L 196.794308 129.728 
L 197.693628 129.728 
L 197.693628 129.230222 
L 199.328755 129.230222 
L 199.410512 128.234667 
L 199.982806 128.234667 
L 199.982806 127.239111 
L 201.863203 127.239111 
L 201.863203 126.741333 
L 203.661843 126.741333 
L 203.743599 125.745778 
L 204.479407 125.745778 
L 204.479407 125.248 
L 205.705752 125.248 
L 205.705752 124.750222 
L 206.523316 124.750222 
L 206.523316 124.252444 
L 206.850341 124.252444 
L 207.34088 123.256889 
L 208.730738 123.256889 
L 208.730738 122.759111 
L 209.793571 122.759111 
L 209.793571 122.261333 
L 210.774647 122.261333 
L 210.774647 121.763556 
L 211.183429 121.763556 
L 211.183429 121.265778 
L 211.428698 121.265778 
L 211.428698 120.768 
L 213.554364 120.768 
L 213.554364 120.270222 
L 214.453684 120.270222 
L 214.453684 119.772444 
L 215.189491 119.772444 
L 215.271247 118.776889 
L 216.742862 118.776889 
L 216.742862 118.279111 
L 217.069888 118.279111 
L 217.069888 117.781333 
L 218.050964 117.781333 
L 218.050964 117.283556 
L 218.459746 117.283556 
L 218.459746 116.785778 
L 219.195553 116.785778 
L 219.195553 116.288 
L 219.440822 116.288 
L 219.522579 115.292444 
L 220.421899 115.292444 
L 220.421899 114.794667 
L 220.912437 114.794667 
L 220.912437 114.296889 
L 222.302295 114.296889 
L 222.302295 113.799111 
L 222.956346 113.799111 
L 222.956346 113.301333 
L 223.283372 113.301333 
L 223.446884 112.803556 
L 224.182692 112.803556 
L 224.182692 112.305778 
L 228.679292 112.305778 
L 228.679292 111.310222 
L 229.742125 111.310222 
L 229.742125 110.812444 
L 231.21374 110.812444 
L 231.21374 110.314667 
L 234.156969 110.314667 
L 234.156969 109.816889 
L 234.320482 109.816889 
L 234.320482 109.319111 
L 235.301558 109.319111 
L 235.301558 108.821333 
L 235.628584 108.821333 
L 235.628584 108.323556 
L 235.873853 108.323556 
L 235.873853 107.825778 
L 237.181955 107.825778 
L 237.181955 107.328 
L 238.898838 107.328 
L 238.898838 106.830222 
L 239.225864 106.830222 
L 239.225864 106.332444 
L 239.798158 106.332444 
L 239.798158 105.834667 
L 240.370453 105.834667 
L 240.370453 105.336889 
L 242.00558 105.336889 
L 242.00558 104.839111 
L 244.621784 104.839111 
L 244.621784 103.843556 
L 245.684617 103.843556 
L 245.684617 103.345778 
L 246.256912 103.345778 
L 246.256912 102.848 
L 247.401501 102.848 
L 247.401501 102.350222 
L 248.382577 102.350222 
L 248.464334 101.354667 
L 248.873116 101.354667 
L 248.873116 100.856889 
L 250.34473 100.856889 
L 250.34473 100.359111 
L 251.734588 100.359111 
L 251.734588 99.861333 
L 251.979858 99.861333 
L 251.979858 99.363556 
L 253.369716 99.363556 
L 253.369716 98.865778 
L 253.614985 98.865778 
L 254.105523 98.368 
L 254.759574 98.368 
L 254.759574 97.372444 
L 255.413625 97.372444 
L 255.413625 96.874667 
L 256.067676 96.874667 
L 256.067676 95.879111 
L 256.639971 95.879111 
L 256.639971 95.381333 
L 257.702804 95.381333 
L 257.702804 94.385778 
L 259.991982 94.385778 
L 259.991982 93.888 
L 260.646033 93.888 
L 260.646033 93.390222 
L 261.463597 93.390222 
L 261.463597 92.892444 
L 265.142633 92.892444 
L 265.142633 92.394667 
L 267.677081 92.394667 
L 267.677081 91.896889 
L 268.004106 91.896889 
L 268.004106 91.399111 
L 271.846656 91.399111 
L 271.846656 90.901333 
L 272.010168 90.901333 
L 272.010168 90.403556 
L 275.198667 90.403556 
L 275.198667 89.905778 
L 276.91555 89.905778 
L 276.91555 89.408 
L 277.651358 89.408 
L 277.651358 88.910222 
L 278.141896 88.910222 
L 278.141896 88.412444 
L 281.65742 88.412444 
L 281.65742 87.914667 
L 282.147958 87.914667 
L 282.147958 87.416889 
L 282.720253 87.416889 
L 282.720253 86.919111 
L 283.537816 86.919111 
L 283.619573 85.923556 
L 284.273624 85.923556 
L 284.273624 85.425778 
L 284.518893 85.425778 
L 284.518893 84.928 
L 287.216853 84.928 
L 287.216853 84.430222 
L 288.116173 84.430222 
L 288.19793 83.434667 
L 289.342519 83.434667 
L 289.342519 82.936889 
L 293.920875 82.936889 
L 293.920875 82.439111 
L 294.247901 82.439111 
L 294.247901 81.941333 
L 294.738439 81.941333 
L 294.738439 81.443556 
L 295.801272 81.443556 
L 295.801272 80.945778 
L 297.272887 80.945778 
L 297.272887 80.448 
L 298.98977 80.448 
L 298.98977 79.950222 
L 299.235039 79.950222 
L 299.235039 79.452444 
L 302.83232 79.452444 
L 302.83232 78.954667 
L 303.73164 78.954667 
L 303.73164 78.456889 
L 306.920138 78.456889 
L 306.920138 77.461333 
L 307.655946 77.461333 
L 307.655946 76.963556 
L 309.12756 76.963556 
L 309.12756 76.465778 
L 311.498495 76.465778 
L 311.498495 75.968 
L 311.662008 75.470222 
L 311.989033 75.470222 
L 311.989033 74.972444 
L 315.014019 74.972444 
L 315.014019 73.976889 
L 315.177532 73.976889 
L 315.177532 73.479111 
L 315.831583 73.479111 
L 315.831583 72.981333 
L 315.995095 72.981333 
L 315.995095 72.483556 
L 317.139685 72.483556 
L 317.139685 71.985778 
L 319.592376 71.985778 
L 319.592376 70.990222 
L 321.391016 70.990222 
L 321.391016 70.492444 
L 321.472772 70.492444 
L 321.718041 69.994667 
L 323.353169 69.994667 
L 323.353169 69.496889 
L 324.90654 69.496889 
L 324.90654 68.999111 
L 327.768013 68.999111 
L 327.768013 68.501333 
L 330.057191 68.501333 
L 330.057191 68.003556 
L 333.409202 68.003556 
L 333.409202 67.505778 
L 335.453111 67.505778 
L 335.453111 67.008 
L 336.025406 67.008 
L 336.025406 66.510222 
L 336.515944 66.510222 
L 336.515944 66.012444 
L 339.704443 66.012444 
L 339.704443 65.514667 
L 343.710505 65.514667 
L 343.710505 65.016889 
L 345.263876 65.016889 
L 345.263876 64.519111 
L 345.427389 64.519111 
L 345.427389 64.021333 
L 345.754414 64.021333 
L 345.754414 63.523556 
L 348.7794 63.523556 
L 348.7794 63.025778 
L 355.238153 63.025778 
L 355.238153 62.528 
L 360.307048 62.528 
L 360.307048 62.030222 
L 361.369881 62.030222 
L 361.369881 61.532444 
L 362.187444 61.532444 
L 362.187444 61.034667 
L 367.01107 61.034667 
L 367.01107 60.536889 
L 368.073903 60.536889 
L 368.073903 60.039111 
L 368.400929 60.039111 
L 368.400929 59.541333 
L 374.4509 59.541333 
L 374.4509 59.043556 
L 377.475886 59.043556 
L 377.475886 58.545778 
L 378.9475 58.545778 
L 378.9475 58.048 
L 379.84682 58.048 
L 379.84682 57.550222 
L 381.073166 57.550222 
L 381.073166 57.052444 
L 385.242741 57.052444 
L 385.242741 56.554667 
L 386.142061 56.554667 
L 386.142061 56.056889 
L 388.18597 56.056889 
L 388.18597 55.559111 
L 392.68257 55.559111 
L 392.68257 55.061333 
L 392.846083 55.061333 
L 392.846083 54.563556 
L 394.971749 54.563556 
L 394.971749 54.065778 
L 397.097414 54.065778 
L 397.097414 53.568 
L 398.487273 53.568 
L 398.487273 53.568 
" clip-path="url(#p50bc7c1810)" style="fill: none; stroke: #1f77b4; stroke-width: 1.5; stroke-linecap: square"/>
   </g>
   <g id="patch_3">
    <path d="M 57.6 307.584 
L 57.6 41.472 
" style="fill: none; stroke: #000000; stroke-width: 0.8; stroke-linejoin: miter; stroke-linecap: square"/>
   </g>
   <g id="patch_4">
    <path d="M 414.72 307.584 
L 414.72 41.472 
" style="fill: none; stroke: #000000; stroke-width: 0.8; stroke-linejoin: miter; stroke-linecap: square"/>
   </g>
   <g id="patch_5">
    <path d="M 57.6 307.584 
L 414.72 307.584 
" style="fill: none; stroke: #000000; stroke-width: 0.8; stroke-linejoin: miter; stroke-linecap: square"/>
   </g>
   <g id="patch_6">
    <path d="M 57.6 41.472 
L 414.72 41.472 
" style="fill: none; stroke: #000000; stroke-width: 0.8; stroke-linejoin: miter; stroke-linecap: square"/>
   </g>
   <g id="text_15">
    <!-- ROC Curve -->
    <g transform="translate(203.469375 35.472) scale(0.12 -0.12)">
     <defs>
      <path id="DejaVuSans-4f" d="M 2522 4238 
Q 1834 4238 1429 3725 
Q 1025 3213 1025 2328 
Q 1025 1447 1429 934 
Q 1834 422 2522 422 
Q 3209 422 3611 934 
Q 4013 1447 4013 2328 
Q 4013 3213 3611 3725 
Q 3209 4238 2522 4238 
z
M 2522 4750 
Q 3503 4750 4090 4092 
Q 4678 3434 4678 2328 
Q 4678 1225 4090 567 
Q 3503 -91 2522 -91 
Q 1538 -91 948 565 
Q 359 1222 359 2328 
Q 359 3434 948 4092 
Q 1538 4750 2522 4750 
z
" transform="scale(0.015625)"/>
      <path id="DejaVuSans-43" d="M 4122 4306 
L 4122 3641 
Q 3803 3938 3442 4084 
Q 3081 4231 2675 4231 
Q 1875 4231 1450 3742 
Q 1025 3253 1025 2328 
Q 1025 1406 1450 917 
Q 1875 428 2675 428 
Q 3081 428 3442 575 
Q 3803 722 4122 1019 
L 4122 359 
Q 3791 134 3420 21 
Q 3050 -91 2638 -91 
Q 1578 -91 968 557 
Q 359 1206 359 2328 
Q 359 3453 968 4101 
Q 1578 4750 2638 4750 
Q 3056 4750 3426 4639 
Q 3797 4528 4122 4306 
z
" transform="scale(0.015625)"/>
      <path id="DejaVuSans-20" transform="scale(0.015625)"/>
      <path id="DejaVuSans-75" d="M 544 1381 
L 544 3500 
L 1119 3500 
L 1119 1403 
Q 1119 906 1312 657 
Q 1506 409 1894 409 
Q 2359 409 2629 706 
Q 2900 1003 2900 1516 
L 2900 3500 
L 3475 3500 
L 3475 0 
L 2900 0 
L 2900 538 
Q 2691 219 2414 64 
Q 2138 -91 1772 -91 
Q 1169 -91 856 284 
Q 544 659 544 1381 
z
M 1991 3584 
L 1991 3584 
z
" transform="scale(0.015625)"/>
      <path id="DejaVuSans-72" d="M 2631 2963 
Q 2534 3019 2420 3045 
Q 2306 3072 2169 3072 
Q 1681 3072 1420 2755 
Q 1159 2438 1159 1844 
L 1159 0 
L 581 0 
L 581 3500 
L 1159 3500 
L 1159 2956 
Q 1341 3275 1631 3429 
Q 1922 3584 2338 3584 
Q 2397 3584 2469 3576 
Q 2541 3569 2628 3553 
L 2631 2963 
z
" transform="scale(0.015625)"/>
      <path id="DejaVuSans-76" d="M 191 3500 
L 800 3500 
L 1894 563 
L 2988 3500 
L 3597 3500 
L 2284 0 
L 1503 0 
L 191 3500 
z
" transform="scale(0.015625)"/>
      <path id="DejaVuSans-65" d="M 3597 1894 
L 3597 1613 
L 953 1613 
Q 991 1019 1311 708 
Q 1631 397 2203 397 
Q 2534 397 2845 478 
Q 3156 559 3463 722 
L 3463 178 
Q 3153 47 2828 -22 
Q 2503 -91 2169 -91 
Q 1331 -91 842 396 
Q 353 884 353 1716 
Q 353 2575 817 3079 
Q 1281 3584 2069 3584 
Q 2775 3584 3186 3129 
Q 3597 2675 3597 1894 
z
M 3022 2063 
Q 3016 2534 2758 2815 
Q 2500 3097 2075 3097 
Q 1594 3097 1305 2825 
Q 1016 2553 972 2059 
L 3022 2063 
z
" transform="scale(0.015625)"/>
     </defs>
     <use xlink:href="#DejaVuSans-52"/>
     <use xlink:href="#DejaVuSans-4f" x="69.482422"/>
     <use xlink:href="#DejaVuSans-43" x="148.193359"/>
     <use xlink:href="#DejaVuSans-20" x="218.017578"/>
     <use xlink:href="#DejaVuSans-43" x="249.804688"/>
     <use xlink:href="#DejaVuSans-75" x="319.628906"/>
     <use xlink:href="#DejaVuSans-72" x="383.007812"/>
     <use xlink:href="#DejaVuSans-76" x="424.121094"/>
     <use xlink:href="#DejaVuSans-65" x="483.300781"/>
    </g>
   </g>
  </g>
 </g>
 <defs>
  <clipPath id="p50bc7c1810">
   <rect x="57.6" y="41.472" width="357.12" height="266.112"/>
  </clipPath>
 </defs>
</svg>
