<?xml version="1.0" encoding="utf-8" standalone="no"?>
<!DOCTYPE svg PUBLIC "-//W3C//DTD SVG 1.1//EN"
  "http://www.w3.org/Graphics/SVG/1.1/DTD/svg11.dtd">
<svg xmlns:xlink="http://www.w3.org/1999/xlink" width="460.8pt" height="345.6pt" viewBox="0 0 460.8 345.6" xmlns="http://www.w3.org/2000/svg" version="1.1">
 <metadata>
  <rdf:RDF xmlns:dc="http://purl.org/dc/elements/1.1/" xmlns:cc="http://creativecommons.org/ns#" xmlns:rdf="http://www.w3.org/1999/02/22-rdf-syntax-ns#">
   <cc:Work>
    <dc:type rdf:resource="http://purl.org/dc/dcmitype/StillImage"/>
    <dc:date>2023-05-29T13:33:30.799571</dc:date>
    <dc:format>image/svg+xml</dc:format>
    <dc:creator>
     <cc:Agent>
      <dc:title>Matplotlib v3.7.1, https://matplotlib.org/</dc:title>
     </cc:Agent>
    </dc:creator>
   </cc:Work>
  </rdf:RDF>
 </metadata>
 <defs>
  <style type="text/css">*{stroke-linejoin: round; stroke-linecap: butt}</style>
 </defs>
 <g id="figure_1">
  <g id="patch_1">
   <path d="M 0 345.6 
L 460.8 345.6 
L 460.8 0 
L 0 0 
z
" style="fill: #ffffff"/>
  </g>
  <g id="axes_1">
   <g id="patch_2">
    <path d="M 57.6 307.584 
L 414.72 307.584 
L 414.72 41.472 
L 57.6 41.472 
z
" style="fill: #ffffff"/>
   </g>
   <g id="matplotlib.axis_1">
    <g id="xtick_1">
     <g id="line2d_1">
      <defs>
       <path id="m0f1e40e35a" d="M 0 0 
L 0 3.5 
" style="stroke: #000000; stroke-width: 0.8"/>
      </defs>
      <g>
       <use xlink:href="#m0f1e40e35a" x="73.832727" y="307.584" style="stroke: #000000; stroke-width: 0.8"/>
      </g>
     </g>
     <g id="text_1">
      <!-- 0.0 -->
      <g transform="translate(65.881165 322.182437) scale(0.1 -0.1)">
       <defs>
        <path id="DejaVuSans-30" d="M 2034 4250 
Q 1547 4250 1301 3770 
Q 1056 3291 1056 2328 
Q 1056 1369 1301 889 
Q 1547 409 2034 409 
Q 2525 409 2770 889 
Q 3016 1369 3016 2328 
Q 3016 3291 2770 3770 
Q 2525 4250 2034 4250 
z
M 2034 4750 
Q 2819 4750 3233 4129 
Q 3647 3509 3647 2328 
Q 3647 1150 3233 529 
Q 2819 -91 2034 -91 
Q 1250 -91 836 529 
Q 422 1150 422 2328 
Q 422 3509 836 4129 
Q 1250 4750 2034 4750 
z
" transform="scale(0.015625)"/>
        <path id="DejaVuSans-2e" d="M 684 794 
L 1344 794 
L 1344 0 
L 684 0 
L 684 794 
z
" transform="scale(0.015625)"/>
       </defs>
       <use xlink:href="#DejaVuSans-30"/>
       <use xlink:href="#DejaVuSans-2e" x="63.623047"/>
       <use xlink:href="#DejaVuSans-30" x="95.410156"/>
      </g>
     </g>
    </g>
    <g id="xtick_2">
     <g id="line2d_2">
      <g>
       <use xlink:href="#m0f1e40e35a" x="138.763636" y="307.584" style="stroke: #000000; stroke-width: 0.8"/>
      </g>
     </g>
     <g id="text_2">
      <!-- 0.2 -->
      <g transform="translate(130.812074 322.182437) scale(0.1 -0.1)">
       <defs>
        <path id="DejaVuSans-32" d="M 1228 531 
L 3431 531 
L 3431 0 
L 469 0 
L 469 531 
Q 828 903 1448 1529 
Q 2069 2156 2228 2338 
Q 2531 2678 2651 2914 
Q 2772 3150 2772 3378 
Q 2772 3750 2511 3984 
Q 2250 4219 1831 4219 
Q 1534 4219 1204 4116 
Q 875 4013 500 3803 
L 500 4441 
Q 881 4594 1212 4672 
Q 1544 4750 1819 4750 
Q 2544 4750 2975 4387 
Q 3406 4025 3406 3419 
Q 3406 3131 3298 2873 
Q 3191 2616 2906 2266 
Q 2828 2175 2409 1742 
Q 1991 1309 1228 531 
z
" transform="scale(0.015625)"/>
       </defs>
       <use xlink:href="#DejaVuSans-30"/>
       <use xlink:href="#DejaVuSans-2e" x="63.623047"/>
       <use xlink:href="#DejaVuSans-32" x="95.410156"/>
      </g>
     </g>
    </g>
    <g id="xtick_3">
     <g id="line2d_3">
      <g>
       <use xlink:href="#m0f1e40e35a" x="203.694545" y="307.584" style="stroke: #000000; stroke-width: 0.8"/>
      </g>
     </g>
     <g id="text_3">
      <!-- 0.4 -->
      <g transform="translate(195.742983 322.182437) scale(0.1 -0.1)">
       <defs>
        <path id="DejaVuSans-34" d="M 2419 4116 
L 825 1625 
L 2419 1625 
L 2419 4116 
z
M 2253 4666 
L 3047 4666 
L 3047 1625 
L 3713 1625 
L 3713 1100 
L 3047 1100 
L 3047 0 
L 2419 0 
L 2419 1100 
L 313 1100 
L 313 1709 
L 2253 4666 
z
" transform="scale(0.015625)"/>
       </defs>
       <use xlink:href="#DejaVuSans-30"/>
       <use xlink:href="#DejaVuSans-2e" x="63.623047"/>
       <use xlink:href="#DejaVuSans-34" x="95.410156"/>
      </g>
     </g>
    </g>
    <g id="xtick_4">
     <g id="line2d_4">
      <g>
       <use xlink:href="#m0f1e40e35a" x="268.625455" y="307.584" style="stroke: #000000; stroke-width: 0.8"/>
      </g>
     </g>
     <g id="text_4">
      <!-- 0.6 -->
      <g transform="translate(260.673892 322.182437) scale(0.1 -0.1)">
       <defs>
        <path id="DejaVuSans-36" d="M 2113 2584 
Q 1688 2584 1439 2293 
Q 1191 2003 1191 1497 
Q 1191 994 1439 701 
Q 1688 409 2113 409 
Q 2538 409 2786 701 
Q 3034 994 3034 1497 
Q 3034 2003 2786 2293 
Q 2538 2584 2113 2584 
z
M 3366 4563 
L 3366 3988 
Q 3128 4100 2886 4159 
Q 2644 4219 2406 4219 
Q 1781 4219 1451 3797 
Q 1122 3375 1075 2522 
Q 1259 2794 1537 2939 
Q 1816 3084 2150 3084 
Q 2853 3084 3261 2657 
Q 3669 2231 3669 1497 
Q 3669 778 3244 343 
Q 2819 -91 2113 -91 
Q 1303 -91 875 529 
Q 447 1150 447 2328 
Q 447 3434 972 4092 
Q 1497 4750 2381 4750 
Q 2619 4750 2861 4703 
Q 3103 4656 3366 4563 
z
" transform="scale(0.015625)"/>
       </defs>
       <use xlink:href="#DejaVuSans-30"/>
       <use xlink:href="#DejaVuSans-2e" x="63.623047"/>
       <use xlink:href="#DejaVuSans-36" x="95.410156"/>
      </g>
     </g>
    </g>
    <g id="xtick_5">
     <g id="line2d_5">
      <g>
       <use xlink:href="#m0f1e40e35a" x="333.556364" y="307.584" style="stroke: #000000; stroke-width: 0.8"/>
      </g>
     </g>
     <g id="text_5">
      <!-- 0.8 -->
      <g transform="translate(325.604801 322.182437) scale(0.1 -0.1)">
       <defs>
        <path id="DejaVuSans-38" d="M 2034 2216 
Q 1584 2216 1326 1975 
Q 1069 1734 1069 1313 
Q 1069 891 1326 650 
Q 1584 409 2034 409 
Q 2484 409 2743 651 
Q 3003 894 3003 1313 
Q 3003 1734 2745 1975 
Q 2488 2216 2034 2216 
z
M 1403 2484 
Q 997 2584 770 2862 
Q 544 3141 544 3541 
Q 544 4100 942 4425 
Q 1341 4750 2034 4750 
Q 2731 4750 3128 4425 
Q 3525 4100 3525 3541 
Q 3525 3141 3298 2862 
Q 3072 2584 2669 2484 
Q 3125 2378 3379 2068 
Q 3634 1759 3634 1313 
Q 3634 634 3220 271 
Q 2806 -91 2034 -91 
Q 1263 -91 848 271 
Q 434 634 434 1313 
Q 434 1759 690 2068 
Q 947 2378 1403 2484 
z
M 1172 3481 
Q 1172 3119 1398 2916 
Q 1625 2713 2034 2713 
Q 2441 2713 2670 2916 
Q 2900 3119 2900 3481 
Q 2900 3844 2670 4047 
Q 2441 4250 2034 4250 
Q 1625 4250 1398 4047 
Q 1172 3844 1172 3481 
z
" transform="scale(0.015625)"/>
       </defs>
       <use xlink:href="#DejaVuSans-30"/>
       <use xlink:href="#DejaVuSans-2e" x="63.623047"/>
       <use xlink:href="#DejaVuSans-38" x="95.410156"/>
      </g>
     </g>
    </g>
    <g id="xtick_6">
     <g id="line2d_6">
      <g>
       <use xlink:href="#m0f1e40e35a" x="398.487273" y="307.584" style="stroke: #000000; stroke-width: 0.8"/>
      </g>
     </g>
     <g id="text_6">
      <!-- 1.0 -->
      <g transform="translate(390.53571 322.182437) scale(0.1 -0.1)">
       <defs>
        <path id="DejaVuSans-31" d="M 794 531 
L 1825 531 
L 1825 4091 
L 703 3866 
L 703 4441 
L 1819 4666 
L 2450 4666 
L 2450 531 
L 3481 531 
L 3481 0 
L 794 0 
L 794 531 
z
" transform="scale(0.015625)"/>
       </defs>
       <use xlink:href="#DejaVuSans-31"/>
       <use xlink:href="#DejaVuSans-2e" x="63.623047"/>
       <use xlink:href="#DejaVuSans-30" x="95.410156"/>
      </g>
     </g>
    </g>
    <g id="text_7">
     <!-- FPR -->
     <g transform="translate(226.795156 335.860562) scale(0.1 -0.1)">
      <defs>
       <path id="DejaVuSans-46" d="M 628 4666 
L 3309 4666 
L 3309 4134 
L 1259 4134 
L 1259 2759 
L 3109 2759 
L 3109 2228 
L 1259 2228 
L 1259 0 
L 628 0 
L 628 4666 
z
" transform="scale(0.015625)"/>
       <path id="DejaVuSans-50" d="M 1259 4147 
L 1259 2394 
L 2053 2394 
Q 2494 2394 2734 2622 
Q 2975 2850 2975 3272 
Q 2975 3691 2734 3919 
Q 2494 4147 2053 4147 
L 1259 4147 
z
M 628 4666 
L 2053 4666 
Q 2838 4666 3239 4311 
Q 3641 3956 3641 3272 
Q 3641 2581 3239 2228 
Q 2838 1875 2053 1875 
L 1259 1875 
L 1259 0 
L 628 0 
L 628 4666 
z
" transform="scale(0.015625)"/>
       <path id="DejaVuSans-52" d="M 2841 2188 
Q 3044 2119 3236 1894 
Q 3428 1669 3622 1275 
L 4263 0 
L 3584 0 
L 2988 1197 
Q 2756 1666 2539 1819 
Q 2322 1972 1947 1972 
L 1259 1972 
L 1259 0 
L 628 0 
L 628 4666 
L 2053 4666 
Q 2853 4666 3247 4331 
Q 3641 3997 3641 3322 
Q 3641 2881 3436 2590 
Q 3231 2300 2841 2188 
z
M 1259 4147 
L 1259 2491 
L 2053 2491 
Q 2509 2491 2742 2702 
Q 2975 2913 2975 3322 
Q 2975 3731 2742 3939 
Q 2509 4147 2053 4147 
L 1259 4147 
z
" transform="scale(0.015625)"/>
      </defs>
      <use xlink:href="#DejaVuSans-46"/>
      <use xlink:href="#DejaVuSans-50" x="57.519531"/>
      <use xlink:href="#DejaVuSans-52" x="117.822266"/>
     </g>
    </g>
   </g>
   <g id="matplotlib.axis_2">
    <g id="ytick_1">
     <g id="line2d_7">
      <defs>
       <path id="mbe0b95c2ae" d="M 0 0 
L -3.5 0 
" style="stroke: #000000; stroke-width: 0.8"/>
      </defs>
      <g>
       <use xlink:href="#mbe0b95c2ae" x="57.6" y="295.488" style="stroke: #000000; stroke-width: 0.8"/>
      </g>
     </g>
     <g id="text_8">
      <!-- 0.0 -->
      <g transform="translate(34.696875 299.287219) scale(0.1 -0.1)">
       <use xlink:href="#DejaVuSans-30"/>
       <use xlink:href="#DejaVuSans-2e" x="63.623047"/>
       <use xlink:href="#DejaVuSans-30" x="95.410156"/>
      </g>
     </g>
    </g>
    <g id="ytick_2">
     <g id="line2d_8">
      <g>
       <use xlink:href="#mbe0b95c2ae" x="57.6" y="247.104" style="stroke: #000000; stroke-width: 0.8"/>
      </g>
     </g>
     <g id="text_9">
      <!-- 0.2 -->
      <g transform="translate(34.696875 250.903219) scale(0.1 -0.1)">
       <use xlink:href="#DejaVuSans-30"/>
       <use xlink:href="#DejaVuSans-2e" x="63.623047"/>
       <use xlink:href="#DejaVuSans-32" x="95.410156"/>
      </g>
     </g>
    </g>
    <g id="ytick_3">
     <g id="line2d_9">
      <g>
       <use xlink:href="#mbe0b95c2ae" x="57.6" y="198.72" style="stroke: #000000; stroke-width: 0.8"/>
      </g>
     </g>
     <g id="text_10">
      <!-- 0.4 -->
      <g transform="translate(34.696875 202.519219) scale(0.1 -0.1)">
       <use xlink:href="#DejaVuSans-30"/>
       <use xlink:href="#DejaVuSans-2e" x="63.623047"/>
       <use xlink:href="#DejaVuSans-34" x="95.410156"/>
      </g>
     </g>
    </g>
    <g id="ytick_4">
     <g id="line2d_10">
      <g>
       <use xlink:href="#mbe0b95c2ae" x="57.6" y="150.336" style="stroke: #000000; stroke-width: 0.8"/>
      </g>
     </g>
     <g id="text_11">
      <!-- 0.6 -->
      <g transform="translate(34.696875 154.135219) scale(0.1 -0.1)">
       <use xlink:href="#DejaVuSans-30"/>
       <use xlink:href="#DejaVuSans-2e" x="63.623047"/>
       <use xlink:href="#DejaVuSans-36" x="95.410156"/>
      </g>
     </g>
    </g>
    <g id="ytick_5">
     <g id="line2d_11">
      <g>
       <use xlink:href="#mbe0b95c2ae" x="57.6" y="101.952" style="stroke: #000000; stroke-width: 0.8"/>
      </g>
     </g>
     <g id="text_12">
      <!-- 0.8 -->
      <g transform="translate(34.696875 105.751219) scale(0.1 -0.1)">
       <use xlink:href="#DejaVuSans-30"/>
       <use xlink:href="#DejaVuSans-2e" x="63.623047"/>
       <use xlink:href="#DejaVuSans-38" x="95.410156"/>
      </g>
     </g>
    </g>
    <g id="ytick_6">
     <g id="line2d_12">
      <g>
       <use xlink:href="#mbe0b95c2ae" x="57.6" y="53.568" style="stroke: #000000; stroke-width: 0.8"/>
      </g>
     </g>
     <g id="text_13">
      <!-- 1.0 -->
      <g transform="translate(34.696875 57.367219) scale(0.1 -0.1)">
       <use xlink:href="#DejaVuSans-31"/>
       <use xlink:href="#DejaVuSans-2e" x="63.623047"/>
       <use xlink:href="#DejaVuSans-30" x="95.410156"/>
      </g>
     </g>
    </g>
    <g id="text_14">
     <!-- TPR -->
     <g transform="translate(28.617188 184.070969) rotate(-90) scale(0.1 -0.1)">
      <defs>
       <path id="DejaVuSans-54" d="M -19 4666 
L 3928 4666 
L 3928 4134 
L 2272 4134 
L 2272 0 
L 1638 0 
L 1638 4134 
L -19 4134 
L -19 4666 
z
" transform="scale(0.015625)"/>
      </defs>
      <use xlink:href="#DejaVuSans-54"/>
      <use xlink:href="#DejaVuSans-50" x="61.083984"/>
      <use xlink:href="#DejaVuSans-52" x="121.386719"/>
     </g>
    </g>
   </g>
   <g id="line2d_13">
    <path d="M 73.832727 295.488 
L 73.914484 295.488 
L 73.99624 293.496889 
L 74.077996 293.496889 
L 74.159753 291.008 
L 74.323265 291.008 
L 74.405022 290.012444 
L 74.486778 290.012444 
L 74.568535 288.021333 
L 74.650291 288.021333 
L 74.732047 286.030222 
L 74.813804 286.030222 
L 74.89556 283.541333 
L 74.977316 283.541333 
L 74.977316 283.043556 
L 75.140829 283.043556 
L 75.140829 282.545778 
L 75.304342 282.545778 
L 75.304342 280.056889 
L 75.467855 280.056889 
L 75.549611 278.065778 
L 75.631367 278.065778 
L 75.713124 273.088 
L 75.79488 273.088 
L 75.79488 272.590222 
L 75.958393 272.590222 
L 76.040149 271.096889 
L 76.367175 271.096889 
L 76.367175 270.101333 
L 76.530687 270.101333 
L 76.530687 269.603556 
L 76.857713 269.603556 
L 76.939469 268.110222 
L 77.021226 268.110222 
L 77.102982 267.114667 
L 77.266495 267.114667 
L 77.348251 265.621333 
L 77.59352 265.621333 
L 77.675277 263.630222 
L 77.757033 263.630222 
L 77.838789 261.639111 
L 78.084059 261.639111 
L 78.084059 261.141333 
L 78.247571 261.141333 
L 78.247571 260.643556 
L 78.411084 260.643556 
L 78.49284 259.648 
L 78.656353 259.648 
L 78.656353 258.652444 
L 78.819866 258.652444 
L 78.901622 257.656889 
L 79.228648 257.656889 
L 79.310404 256.163556 
L 79.39216 256.163556 
L 79.39216 254.670222 
L 79.63743 254.670222 
L 79.719186 252.679111 
L 80.127968 252.679111 
L 80.127968 252.181333 
L 80.291481 252.181333 
L 80.291481 251.683556 
L 80.454993 251.683556 
L 80.454993 251.185778 
L 80.700262 251.185778 
L 80.700262 250.190222 
L 81.109044 250.190222 
L 81.109044 248.696889 
L 82.008364 248.696889 
L 82.008364 248.199111 
L 82.33539 248.199111 
L 82.417146 247.203556 
L 82.498902 247.203556 
L 82.580659 245.710222 
L 83.316466 245.710222 
L 83.316466 245.212444 
L 83.725248 245.212444 
L 83.807004 242.723556 
L 84.052274 242.723556 
L 84.13403 241.728 
L 84.215786 241.728 
L 84.215786 241.230222 
L 84.869837 241.230222 
L 84.869837 240.732444 
L 85.196863 240.732444 
L 85.196863 237.745778 
L 85.605645 237.745778 
L 85.605645 236.750222 
L 85.769157 236.750222 
L 85.850914 235.754667 
L 85.93267 235.754667 
L 86.014426 232.768 
L 86.750234 232.768 
L 86.83199 231.772444 
L 87.159016 231.772444 
L 87.159016 231.274667 
L 87.322528 231.274667 
L 87.322528 230.279111 
L 87.649554 230.279111 
L 87.73131 229.283556 
L 87.894823 229.283556 
L 87.894823 228.785778 
L 88.058336 228.785778 
L 88.058336 227.292444 
L 88.221848 227.292444 
L 88.221848 226.794667 
L 88.467118 226.794667 
L 88.467118 226.296889 
L 88.63063 226.296889 
L 88.63063 225.799111 
L 88.794143 225.799111 
L 88.875899 224.305778 
L 89.039412 224.305778 
L 89.121168 222.812444 
L 89.366438 222.812444 
L 89.448194 221.319111 
L 89.693463 221.319111 
L 89.693463 220.821333 
L 89.938732 220.821333 
L 90.020489 219.825778 
L 90.102245 219.825778 
L 90.102245 219.328 
L 90.756296 219.328 
L 90.756296 218.830222 
L 91.410347 218.830222 
L 91.410347 217.336889 
L 91.57386 217.336889 
L 91.57386 216.839111 
L 92.146154 216.839111 
L 92.227911 215.843556 
L 92.309667 215.843556 
L 92.309667 215.345778 
L 92.47318 215.345778 
L 92.554936 213.852444 
L 92.636692 213.852444 
L 92.636692 212.359111 
L 93.290743 212.359111 
L 93.290743 211.861333 
L 93.536012 211.861333 
L 93.536012 211.363556 
L 94.108307 211.363556 
L 94.190063 210.368 
L 94.353576 210.368 
L 94.353576 208.874667 
L 95.089383 208.874667 
L 95.089383 208.376889 
L 95.416409 208.376889 
L 95.498165 207.381333 
L 95.661678 207.381333 
L 95.661678 206.883556 
L 95.906947 206.883556 
L 95.906947 206.385778 
L 96.397485 206.385778 
L 96.397485 205.888 
L 96.560998 205.888 
L 96.560998 205.390222 
L 96.806267 205.390222 
L 96.806267 204.892444 
L 97.133293 204.892444 
L 97.133293 203.399111 
L 98.604907 203.399111 
L 98.604907 202.901333 
L 99.913009 202.901333 
L 99.913009 202.403556 
L 100.076522 202.403556 
L 100.076522 201.408 
L 100.240035 201.408 
L 100.321791 200.412444 
L 100.56706 200.412444 
L 100.648817 199.416889 
L 100.730573 199.416889 
L 100.730573 198.919111 
L 101.221111 198.919111 
L 101.221111 198.421333 
L 101.629893 198.421333 
L 101.629893 197.923556 
L 101.875162 197.923556 
L 101.875162 196.430222 
L 102.447457 196.430222 
L 102.447457 195.932444 
L 103.346777 195.932444 
L 103.346777 195.434667 
L 103.919071 195.434667 
L 103.919071 194.936889 
L 105.799468 194.936889 
L 105.799468 194.439111 
L 106.453519 194.439111 
L 106.453519 193.443556 
L 108.987966 193.443556 
L 108.987966 192.448 
L 109.887286 192.448 
L 109.887286 191.950222 
L 110.050799 191.950222 
L 110.050799 191.452444 
L 110.214312 191.452444 
L 110.214312 190.954667 
L 111.031876 190.954667 
L 111.031876 190.456889 
L 111.277145 190.456889 
L 111.358901 188.465778 
L 112.748759 188.465778 
L 112.748759 187.968 
L 113.484567 187.968 
L 113.484567 187.470222 
L 115.44672 187.470222 
L 115.44672 186.972444 
L 115.855501 186.972444 
L 115.855501 186.474667 
L 116.509552 186.474667 
L 116.509552 185.976889 
L 116.918334 185.976889 
L 116.918334 184.981333 
L 117.24536 184.981333 
L 117.24536 184.483556 
L 117.490629 184.483556 
L 117.490629 183.985778 
L 119.207513 183.985778 
L 119.207513 183.488 
L 119.534538 183.488 
L 119.616294 182.492444 
L 120.188589 182.492444 
L 120.188589 181.994667 
L 123.458844 181.994667 
L 123.458844 181.496889 
L 124.276408 181.496889 
L 124.276408 180.999111 
L 124.43992 180.999111 
L 124.43992 180.501333 
L 124.603433 180.501333 
L 124.603433 180.003556 
L 125.748022 180.003556 
L 125.829779 179.008 
L 126.156804 179.008 
L 126.156804 178.510222 
L 126.48383 178.510222 
L 126.48383 178.012444 
L 126.647342 178.012444 
L 126.729099 177.016889 
L 127.873688 177.016889 
L 127.955444 176.021333 
L 129.100033 176.021333 
L 129.100033 175.523556 
L 129.345303 175.523556 
L 129.345303 174.528 
L 129.590572 174.528 
L 129.590572 174.030222 
L 130.898674 174.030222 
L 130.898674 173.532444 
L 131.87975 173.532444 
L 131.87975 172.039111 
L 132.942583 172.039111 
L 132.942583 171.541333 
L 133.433121 171.541333 
L 133.433121 171.043556 
L 133.596634 171.043556 
L 133.596634 170.545778 
L 134.57771 170.545778 
L 134.57771 170.048 
L 135.804056 170.048 
L 135.804056 169.550222 
L 136.621619 169.550222 
L 136.621619 169.052444 
L 137.27567 169.052444 
L 137.27567 168.554667 
L 137.766209 168.554667 
L 137.847965 167.559111 
L 138.502016 167.559111 
L 138.502016 167.061333 
L 138.910798 167.061333 
L 138.910798 166.563556 
L 139.156067 166.563556 
L 139.237823 165.568 
L 139.31958 165.568 
L 139.31958 165.070222 
L 140.137143 165.070222 
L 140.137143 164.572444 
L 141.199976 164.572444 
L 141.199976 164.074667 
L 142.344565 164.074667 
L 142.344565 163.576889 
L 142.508078 163.576889 
L 142.508078 163.079111 
L 142.671591 163.079111 
L 142.671591 162.581333 
L 143.162129 162.581333 
L 143.162129 162.083556 
L 143.979693 162.083556 
L 143.979693 161.585778 
L 144.960769 161.585778 
L 144.960769 161.088 
L 145.778333 161.088 
L 145.778333 160.590222 
L 146.350628 160.590222 
L 146.350628 160.092444 
L 146.677653 160.092444 
L 146.677653 159.594667 
L 147.740486 159.594667 
L 147.740486 159.096889 
L 148.885075 159.096889 
L 148.966831 158.101333 
L 150.193177 158.101333 
L 150.274933 156.608 
L 150.847228 156.608 
L 150.847228 156.110222 
L 151.419522 156.110222 
L 151.419522 155.612444 
L 152.482355 155.612444 
L 152.482355 155.114667 
L 153.95397 155.114667 
L 153.95397 154.119111 
L 154.444508 154.119111 
L 154.444508 153.621333 
L 154.608021 153.621333 
L 154.608021 153.123556 
L 155.180315 153.123556 
L 155.180315 152.625778 
L 156.488417 152.625778 
L 156.570174 151.630222 
L 157.633007 151.630222 
L 157.633007 151.132444 
L 159.268134 151.132444 
L 159.268134 150.634667 
L 159.431647 150.634667 
L 159.431647 150.136889 
L 159.676916 150.136889 
L 159.676916 149.639111 
L 160.576236 149.639111 
L 160.576236 149.141333 
L 161.230287 149.141333 
L 161.230287 148.643556 
L 162.701902 148.643556 
L 162.701902 148.145778 
L 166.871476 148.145778 
L 166.871476 147.648 
L 167.770796 147.648 
L 167.770796 147.150222 
L 167.934309 147.150222 
L 168.016066 146.154667 
L 168.997142 146.154667 
L 168.997142 145.656889 
L 170.059975 145.656889 
L 170.059975 144.661333 
L 171.695102 144.661333 
L 171.695102 144.163556 
L 171.858615 144.163556 
L 171.858615 143.665778 
L 172.839691 143.665778 
L 172.839691 143.168 
L 173.166717 143.168 
L 173.166717 142.172444 
L 173.657255 142.172444 
L 173.657255 141.674667 
L 175.455895 141.674667 
L 175.455895 141.176889 
L 175.864677 141.176889 
L 175.864677 140.679111 
L 176.92751 140.679111 
L 176.92751 140.181333 
L 177.663317 140.181333 
L 177.663317 139.683556 
L 183.386263 139.683556 
L 183.386263 139.185778 
L 184.040314 139.185778 
L 184.040314 138.688 
L 184.203827 138.688 
L 184.203827 138.190222 
L 185.430172 138.190222 
L 185.430172 137.692444 
L 187.474082 137.692444 
L 187.474082 136.696889 
L 187.719351 136.696889 
L 187.719351 136.199111 
L 188.86394 136.199111 
L 188.86394 135.203556 
L 189.599747 135.203556 
L 189.599747 134.705778 
L 190.008529 134.705778 
L 190.008529 134.208 
L 190.335555 134.208 
L 190.335555 133.710222 
L 190.989606 133.710222 
L 190.989606 133.212444 
L 191.398387 133.212444 
L 191.398387 132.714667 
L 192.951758 132.714667 
L 192.951758 132.216889 
L 193.442297 132.216889 
L 193.442297 131.719111 
L 195.322693 131.719111 
L 195.322693 131.221333 
L 195.649719 131.221333 
L 195.649719 130.723556 
L 195.813231 130.723556 
L 195.813231 130.225778 
L 196.222013 130.225778 
L 196.222013 129.728 
L 196.876064 129.728 
L 196.876064 129.230222 
L 200.636857 129.230222 
L 200.636857 128.732444 
L 201.781446 128.732444 
L 201.781446 128.234667 
L 202.59901 128.234667 
L 202.59901 127.736889 
L 204.806432 127.736889 
L 204.806432 126.741333 
L 205.787509 126.741333 
L 205.787509 126.243556 
L 207.177367 126.243556 
L 207.259123 125.248 
L 208.158443 125.248 
L 208.158443 124.750222 
L 208.485469 124.750222 
L 208.485469 124.252444 
L 209.711814 124.252444 
L 209.711814 123.754667 
L 211.346942 123.754667 
L 211.346942 123.256889 
L 212.900313 123.256889 
L 212.900313 122.759111 
L 213.963146 122.759111 
L 213.963146 122.261333 
L 214.126658 122.261333 
L 214.126658 121.763556 
L 215.189491 121.763556 
L 215.189491 121.265778 
L 215.925298 121.265778 
L 215.925298 120.768 
L 217.887451 120.768 
L 217.887451 120.270222 
L 218.868528 120.270222 
L 218.868528 119.274667 
L 220.17663 119.274667 
L 220.17663 118.776889 
L 221.239462 118.776889 
L 221.239462 118.279111 
L 221.730001 118.279111 
L 221.730001 117.781333 
L 221.893513 117.781333 
L 221.893513 117.283556 
L 222.87459 117.283556 
L 222.87459 116.785778 
L 223.77391 116.785778 
L 223.77391 116.288 
L 224.591474 116.288 
L 224.591474 115.790222 
L 225.490794 115.790222 
L 225.490794 115.292444 
L 225.981332 115.292444 
L 225.981332 114.794667 
L 226.390114 114.794667 
L 226.390114 114.296889 
L 229.496856 114.296889 
L 229.496856 113.799111 
L 229.742125 113.799111 
L 229.742125 113.301333 
L 235.465071 113.301333 
L 235.465071 112.803556 
L 236.119122 112.803556 
L 236.119122 112.305778 
L 236.60966 112.305778 
L 236.60966 111.808 
L 237.836006 111.808 
L 237.836006 111.310222 
L 238.4083 111.310222 
L 238.4083 110.812444 
L 240.288697 110.812444 
L 240.288697 109.816889 
L 240.452209 109.816889 
L 240.452209 109.319111 
L 241.433286 109.319111 
L 241.515042 108.323556 
L 242.332606 108.323556 
L 242.332606 107.328 
L 244.376515 107.328 
L 244.376515 106.830222 
L 244.867053 106.830222 
L 244.94881 105.834667 
L 246.011643 105.834667 
L 246.011643 105.336889 
L 246.665694 105.336889 
L 246.665694 104.839111 
L 247.728526 104.839111 
L 247.728526 104.341333 
L 248.137308 104.341333 
L 248.137308 103.345778 
L 249.200141 103.345778 
L 249.200141 102.848 
L 249.854192 102.848 
L 249.854192 102.350222 
L 251.734588 102.350222 
L 251.734588 101.852444 
L 252.879178 101.852444 
L 252.879178 100.856889 
L 253.451472 100.856889 
L 253.451472 100.359111 
L 256.394702 100.359111 
L 256.394702 99.861333 
L 257.212265 99.861333 
L 257.212265 98.865778 
L 257.375778 98.865778 
L 257.375778 98.368 
L 258.029829 98.368 
L 258.029829 97.870222 
L 259.419687 97.870222 
L 259.419687 97.372444 
L 259.746713 97.372444 
L 259.746713 96.874667 
L 259.910225 96.874667 
L 259.910225 96.376889 
L 261.872378 96.376889 
L 261.872378 95.879111 
L 264.97912 95.879111 
L 264.97912 95.381333 
L 265.633171 95.381333 
L 265.633171 94.883556 
L 266.205466 94.883556 
L 266.205466 94.385778 
L 267.840593 94.385778 
L 267.840593 93.888 
L 268.167619 93.888 
L 268.167619 93.390222 
L 272.337194 93.390222 
L 272.337194 92.892444 
L 274.544616 92.892444 
L 274.544616 92.394667 
L 274.708128 92.394667 
L 274.708128 91.896889 
L 278.632434 91.896889 
L 278.632434 91.399111 
L 281.820933 91.399111 
L 281.820933 90.901333 
L 282.147958 90.901333 
L 282.147958 90.403556 
L 282.965522 90.403556 
L 282.965522 89.905778 
L 283.619573 89.905778 
L 283.619573 89.408 
L 284.600649 89.408 
L 284.600649 88.910222 
L 286.235777 88.910222 
L 286.235777 88.412444 
L 287.543879 88.412444 
L 287.543879 87.914667 
L 288.19793 87.914667 
L 288.19793 87.416889 
L 289.260762 87.416889 
L 289.260762 86.919111 
L 290.323595 86.919111 
L 290.323595 86.421333 
L 290.487108 86.421333 
L 290.487108 85.923556 
L 291.631697 85.923556 
L 291.631697 85.425778 
L 292.122235 85.425778 
L 292.122235 84.928 
L 292.367504 84.928 
L 292.367504 83.932444 
L 293.839119 83.932444 
L 293.839119 83.434667 
L 295.719516 83.434667 
L 295.719516 82.439111 
L 298.662745 82.439111 
L 298.662745 81.941333 
L 299.153283 81.941333 
L 299.153283 81.443556 
L 299.562065 81.443556 
L 299.562065 80.945778 
L 301.115436 80.945778 
L 301.197192 79.950222 
L 301.442461 79.950222 
L 301.524218 78.954667 
L 303.568127 78.954667 
L 303.568127 78.456889 
L 303.895153 78.456889 
L 303.895153 77.959111 
L 304.957985 77.959111 
L 304.957985 77.461333 
L 306.511356 77.461333 
L 306.511356 76.465778 
L 312.397815 76.465778 
L 312.397815 75.968 
L 314.523481 75.968 
L 314.523481 75.470222 
L 315.586314 75.470222 
L 315.586314 74.972444 
L 320.573452 74.972444 
L 320.573452 74.474667 
L 325.151809 74.474667 
L 325.151809 73.976889 
L 325.478834 73.976889 
L 325.478834 73.479111 
L 325.724103 73.479111 
L 325.724103 72.981333 
L 327.849769 72.981333 
L 327.849769 72.483556 
L 329.239627 72.483556 
L 329.239627 71.985778 
L 331.038267 71.985778 
L 331.038267 71.488 
L 331.855831 71.488 
L 331.855831 70.990222 
L 333.163933 70.990222 
L 333.163933 70.492444 
L 333.736228 70.492444 
L 333.736228 69.994667 
L 335.289599 69.994667 
L 335.289599 69.496889 
L 339.622686 69.496889 
L 339.622686 68.999111 
L 340.767275 68.999111 
L 340.767275 68.501333 
L 342.320647 68.501333 
L 342.320647 68.003556 
L 343.465236 68.003556 
L 343.465236 67.505778 
L 343.628748 67.505778 
L 343.628748 67.008 
L 348.288862 67.008 
L 348.288862 66.510222 
L 355.892204 66.510222 
L 355.892204 66.012444 
L 358.671921 66.012444 
L 358.671921 65.514667 
L 359.325971 65.514667 
L 359.325971 65.016889 
L 361.61515 65.016889 
L 361.61515 64.519111 
L 364.721892 64.519111 
L 364.721892 64.021333 
L 366.11175 64.021333 
L 366.11175 63.523556 
L 369.463761 63.523556 
L 369.463761 63.025778 
L 375.268464 63.025778 
L 375.268464 62.528 
L 377.475886 62.528 
L 377.475886 61.532444 
L 378.783988 61.532444 
L 378.783988 61.034667 
L 379.601551 61.034667 
L 379.601551 60.536889 
L 380.74614 60.536889 
L 380.74614 60.039111 
L 381.154922 60.039111 
L 381.154922 59.541333 
L 383.035319 59.541333 
L 383.035319 59.043556 
L 383.607613 59.043556 
L 383.607613 58.545778 
L 386.714355 58.545778 
L 386.714355 58.048 
L 387.450163 58.048 
L 387.450163 57.550222 
L 387.613676 57.550222 
L 387.613676 57.052444 
L 388.431239 57.052444 
L 388.431239 56.554667 
L 388.758265 56.554667 
L 388.758265 56.056889 
L 389.494072 56.056889 
L 389.494072 55.061333 
L 392.273789 55.061333 
L 392.273789 54.563556 
L 393.745403 54.563556 
L 393.745403 54.065778 
L 394.808236 54.065778 
L 394.808236 53.568 
L 398.487273 53.568 
L 398.487273 53.568 
" clip-path="url(#p9f51756422)" style="fill: none; stroke: #1f77b4; stroke-width: 1.5; stroke-linecap: square"/>
   </g>
   <g id="patch_3">
    <path d="M 57.6 307.584 
L 57.6 41.472 
" style="fill: none; stroke: #000000; stroke-width: 0.8; stroke-linejoin: miter; stroke-linecap: square"/>
   </g>
   <g id="patch_4">
    <path d="M 414.72 307.584 
L 414.72 41.472 
" style="fill: none; stroke: #000000; stroke-width: 0.8; stroke-linejoin: miter; stroke-linecap: square"/>
   </g>
   <g id="patch_5">
    <path d="M 57.6 307.584 
L 414.72 307.584 
" style="fill: none; stroke: #000000; stroke-width: 0.8; stroke-linejoin: miter; stroke-linecap: square"/>
   </g>
   <g id="patch_6">
    <path d="M 57.6 41.472 
L 414.72 41.472 
" style="fill: none; stroke: #000000; stroke-width: 0.8; stroke-linejoin: miter; stroke-linecap: square"/>
   </g>
   <g id="text_15">
    <!-- ROC Curve -->
    <g transform="translate(203.469375 35.472) scale(0.12 -0.12)">
     <defs>
      <path id="DejaVuSans-4f" d="M 2522 4238 
Q 1834 4238 1429 3725 
Q 1025 3213 1025 2328 
Q 1025 1447 1429 934 
Q 1834 422 2522 422 
Q 3209 422 3611 934 
Q 4013 1447 4013 2328 
Q 4013 3213 3611 3725 
Q 3209 4238 2522 4238 
z
M 2522 4750 
Q 3503 4750 4090 4092 
Q 4678 3434 4678 2328 
Q 4678 1225 4090 567 
Q 3503 -91 2522 -91 
Q 1538 -91 948 565 
Q 359 1222 359 2328 
Q 359 3434 948 4092 
Q 1538 4750 2522 4750 
z
" transform="scale(0.015625)"/>
      <path id="DejaVuSans-43" d="M 4122 4306 
L 4122 3641 
Q 3803 3938 3442 4084 
Q 3081 4231 2675 4231 
Q 1875 4231 1450 3742 
Q 1025 3253 1025 2328 
Q 1025 1406 1450 917 
Q 1875 428 2675 428 
Q 3081 428 3442 575 
Q 3803 722 4122 1019 
L 4122 359 
Q 3791 134 3420 21 
Q 3050 -91 2638 -91 
Q 1578 -91 968 557 
Q 359 1206 359 2328 
Q 359 3453 968 4101 
Q 1578 4750 2638 4750 
Q 3056 4750 3426 4639 
Q 3797 4528 4122 4306 
z
" transform="scale(0.015625)"/>
      <path id="DejaVuSans-20" transform="scale(0.015625)"/>
      <path id="DejaVuSans-75" d="M 544 1381 
L 544 3500 
L 1119 3500 
L 1119 1403 
Q 1119 906 1312 657 
Q 1506 409 1894 409 
Q 2359 409 2629 706 
Q 2900 1003 2900 1516 
L 2900 3500 
L 3475 3500 
L 3475 0 
L 2900 0 
L 2900 538 
Q 2691 219 2414 64 
Q 2138 -91 1772 -91 
Q 1169 -91 856 284 
Q 544 659 544 1381 
z
M 1991 3584 
L 1991 3584 
z
" transform="scale(0.015625)"/>
      <path id="DejaVuSans-72" d="M 2631 2963 
Q 2534 3019 2420 3045 
Q 2306 3072 2169 3072 
Q 1681 3072 1420 2755 
Q 1159 2438 1159 1844 
L 1159 0 
L 581 0 
L 581 3500 
L 1159 3500 
L 1159 2956 
Q 1341 3275 1631 3429 
Q 1922 3584 2338 3584 
Q 2397 3584 2469 3576 
Q 2541 3569 2628 3553 
L 2631 2963 
z
" transform="scale(0.015625)"/>
      <path id="DejaVuSans-76" d="M 191 3500 
L 800 3500 
L 1894 563 
L 2988 3500 
L 3597 3500 
L 2284 0 
L 1503 0 
L 191 3500 
z
" transform="scale(0.015625)"/>
      <path id="DejaVuSans-65" d="M 3597 1894 
L 3597 1613 
L 953 1613 
Q 991 1019 1311 708 
Q 1631 397 2203 397 
Q 2534 397 2845 478 
Q 3156 559 3463 722 
L 3463 178 
Q 3153 47 2828 -22 
Q 2503 -91 2169 -91 
Q 1331 -91 842 396 
Q 353 884 353 1716 
Q 353 2575 817 3079 
Q 1281 3584 2069 3584 
Q 2775 3584 3186 3129 
Q 3597 2675 3597 1894 
z
M 3022 2063 
Q 3016 2534 2758 2815 
Q 2500 3097 2075 3097 
Q 1594 3097 1305 2825 
Q 1016 2553 972 2059 
L 3022 2063 
z
" transform="scale(0.015625)"/>
     </defs>
     <use xlink:href="#DejaVuSans-52"/>
     <use xlink:href="#DejaVuSans-4f" x="69.482422"/>
     <use xlink:href="#DejaVuSans-43" x="148.193359"/>
     <use xlink:href="#DejaVuSans-20" x="218.017578"/>
     <use xlink:href="#DejaVuSans-43" x="249.804688"/>
     <use xlink:href="#DejaVuSans-75" x="319.628906"/>
     <use xlink:href="#DejaVuSans-72" x="383.007812"/>
     <use xlink:href="#DejaVuSans-76" x="424.121094"/>
     <use xlink:href="#DejaVuSans-65" x="483.300781"/>
    </g>
   </g>
  </g>
 </g>
 <defs>
  <clipPath id="p9f51756422">
   <rect x="57.6" y="41.472" width="357.12" height="266.112"/>
  </clipPath>
 </defs>
</svg>
