<?xml version="1.0" encoding="utf-8" standalone="no"?>
<!DOCTYPE svg PUBLIC "-//W3C//DTD SVG 1.1//EN"
  "http://www.w3.org/Graphics/SVG/1.1/DTD/svg11.dtd">
<svg xmlns:xlink="http://www.w3.org/1999/xlink" width="460.8pt" height="345.6pt" viewBox="0 0 460.8 345.6" xmlns="http://www.w3.org/2000/svg" version="1.1">
 <metadata>
  <rdf:RDF xmlns:dc="http://purl.org/dc/elements/1.1/" xmlns:cc="http://creativecommons.org/ns#" xmlns:rdf="http://www.w3.org/1999/02/22-rdf-syntax-ns#">
   <cc:Work>
    <dc:type rdf:resource="http://purl.org/dc/dcmitype/StillImage"/>
    <dc:date>2023-05-29T12:56:50.251464</dc:date>
    <dc:format>image/svg+xml</dc:format>
    <dc:creator>
     <cc:Agent>
      <dc:title>Matplotlib v3.7.1, https://matplotlib.org/</dc:title>
     </cc:Agent>
    </dc:creator>
   </cc:Work>
  </rdf:RDF>
 </metadata>
 <defs>
  <style type="text/css">*{stroke-linejoin: round; stroke-linecap: butt}</style>
 </defs>
 <g id="figure_1">
  <g id="patch_1">
   <path d="M 0 345.6 
L 460.8 345.6 
L 460.8 0 
L 0 0 
z
" style="fill: #ffffff"/>
  </g>
  <g id="axes_1">
   <g id="patch_2">
    <path d="M 57.6 307.584 
L 414.72 307.584 
L 414.72 41.472 
L 57.6 41.472 
z
" style="fill: #ffffff"/>
   </g>
   <g id="matplotlib.axis_1">
    <g id="xtick_1">
     <g id="line2d_1">
      <defs>
       <path id="m66480e1834" d="M 0 0 
L 0 3.5 
" style="stroke: #000000; stroke-width: 0.8"/>
      </defs>
      <g>
       <use xlink:href="#m66480e1834" x="73.832727" y="307.584" style="stroke: #000000; stroke-width: 0.8"/>
      </g>
     </g>
     <g id="text_1">
      <!-- 0.0 -->
      <g transform="translate(65.881165 322.182437) scale(0.1 -0.1)">
       <defs>
        <path id="DejaVuSans-30" d="M 2034 4250 
Q 1547 4250 1301 3770 
Q 1056 3291 1056 2328 
Q 1056 1369 1301 889 
Q 1547 409 2034 409 
Q 2525 409 2770 889 
Q 3016 1369 3016 2328 
Q 3016 3291 2770 3770 
Q 2525 4250 2034 4250 
z
M 2034 4750 
Q 2819 4750 3233 4129 
Q 3647 3509 3647 2328 
Q 3647 1150 3233 529 
Q 2819 -91 2034 -91 
Q 1250 -91 836 529 
Q 422 1150 422 2328 
Q 422 3509 836 4129 
Q 1250 4750 2034 4750 
z
" transform="scale(0.015625)"/>
        <path id="DejaVuSans-2e" d="M 684 794 
L 1344 794 
L 1344 0 
L 684 0 
L 684 794 
z
" transform="scale(0.015625)"/>
       </defs>
       <use xlink:href="#DejaVuSans-30"/>
       <use xlink:href="#DejaVuSans-2e" x="63.623047"/>
       <use xlink:href="#DejaVuSans-30" x="95.410156"/>
      </g>
     </g>
    </g>
    <g id="xtick_2">
     <g id="line2d_2">
      <g>
       <use xlink:href="#m66480e1834" x="138.763636" y="307.584" style="stroke: #000000; stroke-width: 0.8"/>
      </g>
     </g>
     <g id="text_2">
      <!-- 0.2 -->
      <g transform="translate(130.812074 322.182437) scale(0.1 -0.1)">
       <defs>
        <path id="DejaVuSans-32" d="M 1228 531 
L 3431 531 
L 3431 0 
L 469 0 
L 469 531 
Q 828 903 1448 1529 
Q 2069 2156 2228 2338 
Q 2531 2678 2651 2914 
Q 2772 3150 2772 3378 
Q 2772 3750 2511 3984 
Q 2250 4219 1831 4219 
Q 1534 4219 1204 4116 
Q 875 4013 500 3803 
L 500 4441 
Q 881 4594 1212 4672 
Q 1544 4750 1819 4750 
Q 2544 4750 2975 4387 
Q 3406 4025 3406 3419 
Q 3406 3131 3298 2873 
Q 3191 2616 2906 2266 
Q 2828 2175 2409 1742 
Q 1991 1309 1228 531 
z
" transform="scale(0.015625)"/>
       </defs>
       <use xlink:href="#DejaVuSans-30"/>
       <use xlink:href="#DejaVuSans-2e" x="63.623047"/>
       <use xlink:href="#DejaVuSans-32" x="95.410156"/>
      </g>
     </g>
    </g>
    <g id="xtick_3">
     <g id="line2d_3">
      <g>
       <use xlink:href="#m66480e1834" x="203.694545" y="307.584" style="stroke: #000000; stroke-width: 0.8"/>
      </g>
     </g>
     <g id="text_3">
      <!-- 0.4 -->
      <g transform="translate(195.742983 322.182437) scale(0.1 -0.1)">
       <defs>
        <path id="DejaVuSans-34" d="M 2419 4116 
L 825 1625 
L 2419 1625 
L 2419 4116 
z
M 2253 4666 
L 3047 4666 
L 3047 1625 
L 3713 1625 
L 3713 1100 
L 3047 1100 
L 3047 0 
L 2419 0 
L 2419 1100 
L 313 1100 
L 313 1709 
L 2253 4666 
z
" transform="scale(0.015625)"/>
       </defs>
       <use xlink:href="#DejaVuSans-30"/>
       <use xlink:href="#DejaVuSans-2e" x="63.623047"/>
       <use xlink:href="#DejaVuSans-34" x="95.410156"/>
      </g>
     </g>
    </g>
    <g id="xtick_4">
     <g id="line2d_4">
      <g>
       <use xlink:href="#m66480e1834" x="268.625455" y="307.584" style="stroke: #000000; stroke-width: 0.8"/>
      </g>
     </g>
     <g id="text_4">
      <!-- 0.6 -->
      <g transform="translate(260.673892 322.182437) scale(0.1 -0.1)">
       <defs>
        <path id="DejaVuSans-36" d="M 2113 2584 
Q 1688 2584 1439 2293 
Q 1191 2003 1191 1497 
Q 1191 994 1439 701 
Q 1688 409 2113 409 
Q 2538 409 2786 701 
Q 3034 994 3034 1497 
Q 3034 2003 2786 2293 
Q 2538 2584 2113 2584 
z
M 3366 4563 
L 3366 3988 
Q 3128 4100 2886 4159 
Q 2644 4219 2406 4219 
Q 1781 4219 1451 3797 
Q 1122 3375 1075 2522 
Q 1259 2794 1537 2939 
Q 1816 3084 2150 3084 
Q 2853 3084 3261 2657 
Q 3669 2231 3669 1497 
Q 3669 778 3244 343 
Q 2819 -91 2113 -91 
Q 1303 -91 875 529 
Q 447 1150 447 2328 
Q 447 3434 972 4092 
Q 1497 4750 2381 4750 
Q 2619 4750 2861 4703 
Q 3103 4656 3366 4563 
z
" transform="scale(0.015625)"/>
       </defs>
       <use xlink:href="#DejaVuSans-30"/>
       <use xlink:href="#DejaVuSans-2e" x="63.623047"/>
       <use xlink:href="#DejaVuSans-36" x="95.410156"/>
      </g>
     </g>
    </g>
    <g id="xtick_5">
     <g id="line2d_5">
      <g>
       <use xlink:href="#m66480e1834" x="333.556364" y="307.584" style="stroke: #000000; stroke-width: 0.8"/>
      </g>
     </g>
     <g id="text_5">
      <!-- 0.8 -->
      <g transform="translate(325.604801 322.182437) scale(0.1 -0.1)">
       <defs>
        <path id="DejaVuSans-38" d="M 2034 2216 
Q 1584 2216 1326 1975 
Q 1069 1734 1069 1313 
Q 1069 891 1326 650 
Q 1584 409 2034 409 
Q 2484 409 2743 651 
Q 3003 894 3003 1313 
Q 3003 1734 2745 1975 
Q 2488 2216 2034 2216 
z
M 1403 2484 
Q 997 2584 770 2862 
Q 544 3141 544 3541 
Q 544 4100 942 4425 
Q 1341 4750 2034 4750 
Q 2731 4750 3128 4425 
Q 3525 4100 3525 3541 
Q 3525 3141 3298 2862 
Q 3072 2584 2669 2484 
Q 3125 2378 3379 2068 
Q 3634 1759 3634 1313 
Q 3634 634 3220 271 
Q 2806 -91 2034 -91 
Q 1263 -91 848 271 
Q 434 634 434 1313 
Q 434 1759 690 2068 
Q 947 2378 1403 2484 
z
M 1172 3481 
Q 1172 3119 1398 2916 
Q 1625 2713 2034 2713 
Q 2441 2713 2670 2916 
Q 2900 3119 2900 3481 
Q 2900 3844 2670 4047 
Q 2441 4250 2034 4250 
Q 1625 4250 1398 4047 
Q 1172 3844 1172 3481 
z
" transform="scale(0.015625)"/>
       </defs>
       <use xlink:href="#DejaVuSans-30"/>
       <use xlink:href="#DejaVuSans-2e" x="63.623047"/>
       <use xlink:href="#DejaVuSans-38" x="95.410156"/>
      </g>
     </g>
    </g>
    <g id="xtick_6">
     <g id="line2d_6">
      <g>
       <use xlink:href="#m66480e1834" x="398.487273" y="307.584" style="stroke: #000000; stroke-width: 0.8"/>
      </g>
     </g>
     <g id="text_6">
      <!-- 1.0 -->
      <g transform="translate(390.53571 322.182437) scale(0.1 -0.1)">
       <defs>
        <path id="DejaVuSans-31" d="M 794 531 
L 1825 531 
L 1825 4091 
L 703 3866 
L 703 4441 
L 1819 4666 
L 2450 4666 
L 2450 531 
L 3481 531 
L 3481 0 
L 794 0 
L 794 531 
z
" transform="scale(0.015625)"/>
       </defs>
       <use xlink:href="#DejaVuSans-31"/>
       <use xlink:href="#DejaVuSans-2e" x="63.623047"/>
       <use xlink:href="#DejaVuSans-30" x="95.410156"/>
      </g>
     </g>
    </g>
    <g id="text_7">
     <!-- FPR -->
     <g transform="translate(226.795156 335.860562) scale(0.1 -0.1)">
      <defs>
       <path id="DejaVuSans-46" d="M 628 4666 
L 3309 4666 
L 3309 4134 
L 1259 4134 
L 1259 2759 
L 3109 2759 
L 3109 2228 
L 1259 2228 
L 1259 0 
L 628 0 
L 628 4666 
z
" transform="scale(0.015625)"/>
       <path id="DejaVuSans-50" d="M 1259 4147 
L 1259 2394 
L 2053 2394 
Q 2494 2394 2734 2622 
Q 2975 2850 2975 3272 
Q 2975 3691 2734 3919 
Q 2494 4147 2053 4147 
L 1259 4147 
z
M 628 4666 
L 2053 4666 
Q 2838 4666 3239 4311 
Q 3641 3956 3641 3272 
Q 3641 2581 3239 2228 
Q 2838 1875 2053 1875 
L 1259 1875 
L 1259 0 
L 628 0 
L 628 4666 
z
" transform="scale(0.015625)"/>
       <path id="DejaVuSans-52" d="M 2841 2188 
Q 3044 2119 3236 1894 
Q 3428 1669 3622 1275 
L 4263 0 
L 3584 0 
L 2988 1197 
Q 2756 1666 2539 1819 
Q 2322 1972 1947 1972 
L 1259 1972 
L 1259 0 
L 628 0 
L 628 4666 
L 2053 4666 
Q 2853 4666 3247 4331 
Q 3641 3997 3641 3322 
Q 3641 2881 3436 2590 
Q 3231 2300 2841 2188 
z
M 1259 4147 
L 1259 2491 
L 2053 2491 
Q 2509 2491 2742 2702 
Q 2975 2913 2975 3322 
Q 2975 3731 2742 3939 
Q 2509 4147 2053 4147 
L 1259 4147 
z
" transform="scale(0.015625)"/>
      </defs>
      <use xlink:href="#DejaVuSans-46"/>
      <use xlink:href="#DejaVuSans-50" x="57.519531"/>
      <use xlink:href="#DejaVuSans-52" x="117.822266"/>
     </g>
    </g>
   </g>
   <g id="matplotlib.axis_2">
    <g id="ytick_1">
     <g id="line2d_7">
      <defs>
       <path id="ma38c4c5727" d="M 0 0 
L -3.5 0 
" style="stroke: #000000; stroke-width: 0.8"/>
      </defs>
      <g>
       <use xlink:href="#ma38c4c5727" x="57.6" y="295.488" style="stroke: #000000; stroke-width: 0.8"/>
      </g>
     </g>
     <g id="text_8">
      <!-- 0.0 -->
      <g transform="translate(34.696875 299.287219) scale(0.1 -0.1)">
       <use xlink:href="#DejaVuSans-30"/>
       <use xlink:href="#DejaVuSans-2e" x="63.623047"/>
       <use xlink:href="#DejaVuSans-30" x="95.410156"/>
      </g>
     </g>
    </g>
    <g id="ytick_2">
     <g id="line2d_8">
      <g>
       <use xlink:href="#ma38c4c5727" x="57.6" y="247.104" style="stroke: #000000; stroke-width: 0.8"/>
      </g>
     </g>
     <g id="text_9">
      <!-- 0.2 -->
      <g transform="translate(34.696875 250.903219) scale(0.1 -0.1)">
       <use xlink:href="#DejaVuSans-30"/>
       <use xlink:href="#DejaVuSans-2e" x="63.623047"/>
       <use xlink:href="#DejaVuSans-32" x="95.410156"/>
      </g>
     </g>
    </g>
    <g id="ytick_3">
     <g id="line2d_9">
      <g>
       <use xlink:href="#ma38c4c5727" x="57.6" y="198.72" style="stroke: #000000; stroke-width: 0.8"/>
      </g>
     </g>
     <g id="text_10">
      <!-- 0.4 -->
      <g transform="translate(34.696875 202.519219) scale(0.1 -0.1)">
       <use xlink:href="#DejaVuSans-30"/>
       <use xlink:href="#DejaVuSans-2e" x="63.623047"/>
       <use xlink:href="#DejaVuSans-34" x="95.410156"/>
      </g>
     </g>
    </g>
    <g id="ytick_4">
     <g id="line2d_10">
      <g>
       <use xlink:href="#ma38c4c5727" x="57.6" y="150.336" style="stroke: #000000; stroke-width: 0.8"/>
      </g>
     </g>
     <g id="text_11">
      <!-- 0.6 -->
      <g transform="translate(34.696875 154.135219) scale(0.1 -0.1)">
       <use xlink:href="#DejaVuSans-30"/>
       <use xlink:href="#DejaVuSans-2e" x="63.623047"/>
       <use xlink:href="#DejaVuSans-36" x="95.410156"/>
      </g>
     </g>
    </g>
    <g id="ytick_5">
     <g id="line2d_11">
      <g>
       <use xlink:href="#ma38c4c5727" x="57.6" y="101.952" style="stroke: #000000; stroke-width: 0.8"/>
      </g>
     </g>
     <g id="text_12">
      <!-- 0.8 -->
      <g transform="translate(34.696875 105.751219) scale(0.1 -0.1)">
       <use xlink:href="#DejaVuSans-30"/>
       <use xlink:href="#DejaVuSans-2e" x="63.623047"/>
       <use xlink:href="#DejaVuSans-38" x="95.410156"/>
      </g>
     </g>
    </g>
    <g id="ytick_6">
     <g id="line2d_12">
      <g>
       <use xlink:href="#ma38c4c5727" x="57.6" y="53.568" style="stroke: #000000; stroke-width: 0.8"/>
      </g>
     </g>
     <g id="text_13">
      <!-- 1.0 -->
      <g transform="translate(34.696875 57.367219) scale(0.1 -0.1)">
       <use xlink:href="#DejaVuSans-31"/>
       <use xlink:href="#DejaVuSans-2e" x="63.623047"/>
       <use xlink:href="#DejaVuSans-30" x="95.410156"/>
      </g>
     </g>
    </g>
    <g id="text_14">
     <!-- TPR -->
     <g transform="translate(28.617188 184.070969) rotate(-90) scale(0.1 -0.1)">
      <defs>
       <path id="DejaVuSans-54" d="M -19 4666 
L 3928 4666 
L 3928 4134 
L 2272 4134 
L 2272 0 
L 1638 0 
L 1638 4134 
L -19 4134 
L -19 4666 
z
" transform="scale(0.015625)"/>
      </defs>
      <use xlink:href="#DejaVuSans-54"/>
      <use xlink:href="#DejaVuSans-50" x="61.083984"/>
      <use xlink:href="#DejaVuSans-52" x="121.386719"/>
     </g>
    </g>
   </g>
   <g id="line2d_13">
    <path d="M 73.832727 295.488 
L 74.241509 292.999111 
L 74.241509 289.514667 
L 74.405022 289.514667 
L 74.486778 286.528 
L 74.650291 286.528 
L 74.732047 284.536889 
L 74.813804 284.536889 
L 74.813804 282.545778 
L 74.977316 282.545778 
L 74.977316 281.550222 
L 75.140829 281.550222 
L 75.222586 280.056889 
L 75.386098 280.056889 
L 75.386098 279.559111 
L 75.631367 279.559111 
L 75.79488 278.065778 
L 75.876637 278.065778 
L 75.876637 277.070222 
L 76.121906 277.070222 
L 76.203662 274.083556 
L 76.775957 274.083556 
L 76.857713 271.594667 
L 77.102982 271.594667 
L 77.184738 269.603556 
L 77.430008 269.603556 
L 77.430008 268.110222 
L 77.675277 268.110222 
L 78.084059 265.621333 
L 78.165815 263.132444 
L 78.247571 263.132444 
L 78.329328 261.141333 
L 78.819866 261.141333 
L 78.819866 260.643556 
L 79.065135 260.643556 
L 79.065135 260.145778 
L 79.228648 260.145778 
L 79.228648 259.150222 
L 79.310404 259.150222 
L 79.473917 255.168 
L 79.800942 255.168 
L 80.046211 252.679111 
L 80.291481 252.679111 
L 80.291481 252.181333 
L 80.53675 252.181333 
L 80.945531 250.190222 
L 81.272557 250.190222 
L 81.354313 249.194667 
L 81.517826 249.194667 
L 81.517826 248.199111 
L 81.681339 248.199111 
L 81.926608 246.705778 
L 82.907684 246.705778 
L 82.907684 246.208 
L 83.071197 246.208 
L 83.071197 245.710222 
L 83.152953 245.710222 
L 83.725248 243.719111 
L 83.725248 242.723556 
L 85.03335 242.723556 
L 85.115106 241.230222 
L 85.196863 241.230222 
L 85.196863 240.234667 
L 85.360375 240.234667 
L 85.442132 239.239111 
L 85.605645 239.239111 
L 86.014426 237.745778 
L 86.014426 237.248 
L 86.750234 237.248 
L 86.750234 236.750222 
L 87.077259 236.750222 
L 87.159016 235.256889 
L 87.567797 235.256889 
L 88.058336 234.759111 
L 88.058336 234.261333 
L 88.140092 234.261333 
L 88.467118 234.261333 
L 88.467118 233.265778 
L 89.693463 233.265778 
L 89.693463 232.270222 
L 89.938732 232.270222 
L 89.938732 231.772444 
L 90.592783 231.772444 
L 90.592783 231.274667 
L 91.246834 229.781333 
L 91.57386 229.781333 
L 91.655616 228.785778 
L 91.819129 228.785778 
L 91.819129 228.288 
L 92.064398 228.288 
L 92.064398 227.790222 
L 92.636692 227.790222 
L 92.636692 227.292444 
L 92.718449 227.292444 
L 93.290743 224.803556 
L 93.290743 223.808 
L 93.536012 223.808 
L 93.617769 222.314667 
L 93.699525 222.314667 
L 93.781282 220.821333 
L 94.27182 220.821333 
L 94.27182 220.323556 
L 94.517089 220.323556 
L 94.598845 219.328 
L 95.17114 216.839111 
L 95.825191 216.839111 
L 95.825191 216.341333 
L 96.724511 216.341333 
L 96.724511 215.843556 
L 96.888024 215.843556 
L 96.888024 215.345778 
L 97.460318 215.345778 
L 97.542075 214.350222 
L 97.950856 214.350222 
L 97.950856 213.852444 
L 98.604907 211.861333 
L 99.422471 211.861333 
L 99.422471 210.865778 
L 99.66774 210.865778 
L 99.749497 209.870222 
L 99.913009 209.870222 
L 99.913009 209.372444 
L 100.321791 209.372444 
L 100.321791 208.874667 
L 100.485304 208.874667 
L 100.56706 206.883556 
L 101.221111 206.883556 
L 101.221111 206.385778 
L 101.384624 206.385778 
L 101.384624 205.888 
L 101.548137 205.888 
L 102.529213 204.394667 
L 102.692726 204.394667 
L 102.774482 203.399111 
L 103.019751 203.399111 
L 103.019751 202.901333 
L 104.082584 202.901333 
L 104.082584 202.403556 
L 105.30893 202.403556 
L 105.390686 201.408 
L 106.371763 201.408 
L 106.371763 200.910222 
L 106.944057 197.425778 
L 107.10757 197.425778 
L 107.189326 196.928 
L 107.434595 196.928 
L 107.434595 196.430222 
L 107.761621 196.430222 
L 107.843377 194.936889 
L 108.00689 194.936889 
L 108.00689 194.439111 
L 108.90621 194.439111 
L 108.90621 193.941333 
L 109.642017 193.941333 
L 109.642017 193.443556 
L 109.80553 193.443556 
L 109.80553 192.945778 
L 110.868363 192.945778 
L 110.868363 192.448 
L 111.195388 192.448 
L 111.195388 191.950222 
L 111.440657 191.950222 
L 111.440657 191.452444 
L 111.60417 191.452444 
L 111.60417 190.954667 
L 112.585247 187.470222 
L 112.585247 186.474667 
L 112.830516 186.474667 
L 112.912272 184.981333 
L 114.138618 184.981333 
L 114.138618 184.483556 
L 115.201451 184.483556 
L 115.201451 183.985778 
L 117.000091 183.985778 
L 117.000091 183.488 
L 117.24536 183.488 
L 118.389949 182.990222 
L 118.716974 182.990222 
L 118.716974 181.994667 
L 121.251422 181.994667 
L 121.251422 181.496889 
L 121.414935 181.496889 
L 121.414935 180.999111 
L 121.578447 180.999111 
L 121.578447 180.501333 
L 121.74196 180.501333 
L 121.74196 180.003556 
L 121.905473 180.003556 
L 121.905473 179.505778 
L 122.232498 179.505778 
L 122.232498 179.008 
L 122.396011 179.008 
L 122.396011 178.510222 
L 122.559524 178.510222 
L 122.559524 178.012444 
L 122.968306 178.012444 
L 124.276408 177.514667 
L 124.276408 177.016889 
L 124.848702 177.016889 
L 124.848702 176.519111 
L 125.012215 176.519111 
L 125.012215 176.021333 
L 125.420997 176.021333 
L 125.420997 175.523556 
L 127.219637 175.523556 
L 127.219637 175.025778 
L 128.773008 175.025778 
L 128.773008 174.528 
L 129.427059 174.528 
L 130.326379 173.034667 
L 130.653404 173.034667 
L 130.653404 172.536889 
L 131.307455 172.536889 
L 131.307455 172.039111 
L 131.552725 172.039111 
L 131.634481 171.043556 
L 133.024339 171.043556 
L 133.106096 170.048 
L 133.187852 170.048 
L 133.187852 169.550222 
L 135.558787 169.550222 
L 135.558787 169.052444 
L 135.967569 169.052444 
L 135.967569 168.554667 
L 136.131081 168.554667 
L 136.131081 168.056889 
L 136.458107 168.056889 
L 136.458107 167.559111 
L 137.766209 166.563556 
L 137.766209 165.568 
L 138.093234 165.568 
L 138.093234 165.070222 
L 138.42026 165.070222 
L 138.502016 164.074667 
L 138.910798 164.074667 
L 138.910798 163.576889 
L 139.074311 163.576889 
L 139.074311 163.079111 
L 139.891874 163.079111 
L 139.891874 162.581333 
L 140.627682 162.581333 
L 140.627682 162.083556 
L 141.199976 162.083556 
L 141.199976 161.585778 
L 142.589834 161.585778 
L 142.589834 161.088 
L 142.998616 161.088 
L 142.998616 160.590222 
L 143.243885 160.590222 
L 143.243885 160.092444 
L 143.81618 160.092444 
L 143.81618 159.594667 
L 144.633744 159.594667 
L 144.633744 159.096889 
L 145.042526 159.096889 
L 145.042526 158.599111 
L 145.941846 158.599111 
L 145.941846 157.603556 
L 149.130344 157.603556 
L 149.130344 157.105778 
L 151.010741 157.105778 
L 151.010741 156.608 
L 151.25601 156.608 
L 151.25601 156.110222 
L 153.545188 156.110222 
L 153.545188 155.612444 
L 154.526265 155.612444 
L 154.526265 155.114667 
L 155.016803 155.114667 
L 155.016803 154.616889 
L 156.324905 154.616889 
L 156.324905 154.119111 
L 157.633007 154.119111 
L 158.859352 151.630222 
L 158.859352 151.132444 
L 159.513403 151.132444 
L 159.513403 150.634667 
L 160.657992 150.634667 
L 160.657992 150.136889 
L 161.966094 150.136889 
L 161.966094 149.639111 
L 162.374876 149.639111 
L 162.374876 149.141333 
L 163.764734 149.141333 
L 163.764734 148.145778 
L 164.909324 148.145778 
L 164.99108 147.150222 
L 165.563374 147.150222 
L 165.563374 146.652444 
L 166.053913 146.652444 
L 166.053913 146.154667 
L 166.544451 146.154667 
L 166.626207 145.159111 
L 166.871476 145.159111 
L 166.871476 144.661333 
L 167.034989 144.661333 
L 167.034989 144.163556 
L 167.525527 144.163556 
L 167.525527 143.665778 
L 168.424847 143.665778 
L 168.424847 142.172444 
L 169.324167 142.172444 
L 170.714026 139.683556 
L 170.959295 139.683556 
L 170.959295 139.185778 
L 172.022128 139.185778 
L 172.022128 138.688 
L 173.902524 138.688 
L 173.902524 138.190222 
L 174.720088 138.190222 
L 174.720088 137.692444 
L 177.254535 137.692444 
L 177.254535 137.194667 
L 178.562637 137.194667 
L 178.562637 136.199111 
L 179.380201 136.199111 
L 179.380201 135.701333 
L 179.62547 135.701333 
L 179.62547 135.203556 
L 179.788983 135.203556 
L 179.788983 134.705778 
L 181.342354 134.705778 
L 181.42411 133.710222 
L 181.505867 133.710222 
L 181.505867 133.212444 
L 183.140994 133.212444 
L 184.612609 132.714667 
L 186.574762 132.714667 
L 186.574762 132.216889 
L 187.637594 132.216889 
L 187.637594 131.719111 
L 188.700427 131.719111 
L 188.700427 131.221333 
L 189.517991 131.221333 
L 189.517991 130.723556 
L 189.926773 130.723556 
L 189.926773 130.225778 
L 190.580824 130.225778 
L 190.580824 129.728 
L 191.234875 129.728 
L 191.234875 129.230222 
L 191.480144 129.230222 
L 191.5619 128.234667 
L 193.605809 128.234667 
L 193.605809 127.736889 
L 194.832155 127.736889 
L 194.832155 127.239111 
L 195.649719 127.239111 
L 195.649719 126.741333 
L 197.775384 126.741333 
L 197.775384 126.243556 
L 198.756461 125.248 
L 199.246999 125.248 
L 199.246999 124.750222 
L 199.410512 124.750222 
L 199.410512 124.252444 
L 199.574024 124.252444 
L 199.574024 123.754667 
L 200.473344 123.754667 
L 200.473344 123.256889 
L 200.636857 123.256889 
L 200.636857 122.759111 
L 201.536177 122.759111 
L 201.536177 122.261333 
L 201.863203 122.261333 
L 201.863203 121.763556 
L 202.926036 121.763556 
L 202.926036 121.265778 
L 204.479407 121.265778 
L 204.479407 120.768 
L 205.787509 120.768 
L 205.869265 119.772444 
L 206.278047 119.772444 
L 206.278047 119.274667 
L 210.365865 119.274667 
L 210.365865 118.776889 
L 211.510454 118.776889 
L 211.510454 118.279111 
L 212.328018 118.279111 
L 212.328018 117.781333 
L 216.170568 117.781333 
L 216.170568 117.283556 
L 216.33408 117.283556 
L 216.33408 116.288 
L 216.906375 116.288 
L 216.906375 115.790222 
L 217.315157 115.790222 
L 217.315157 115.292444 
L 220.340142 115.292444 
L 220.340142 114.794667 
L 221.321219 114.794667 
L 221.321219 113.799111 
L 222.384052 113.799111 
L 222.384052 113.301333 
L 223.201615 113.301333 
L 223.201615 112.803556 
L 225.000255 112.803556 
L 225.000255 112.305778 
L 225.245525 112.305778 
L 225.245525 111.808 
L 225.899576 111.808 
L 225.899576 111.310222 
L 229.16983 111.310222 
L 229.16983 110.812444 
L 231.622521 110.812444 
L 231.622521 109.816889 
L 233.584674 109.816889 
L 236.119122 108.323556 
L 237.018442 108.323556 
L 237.100198 107.328 
L 238.571813 107.328 
L 238.571813 106.830222 
L 239.879915 106.830222 
L 239.879915 105.834667 
L 240.452209 105.834667 
L 240.452209 105.336889 
L 244.94881 105.336889 
L 244.94881 104.839111 
L 245.275835 104.839111 
L 245.275835 104.341333 
L 245.684617 104.341333 
L 245.766373 103.345778 
L 247.074475 103.345778 
L 247.074475 102.848 
L 247.810283 102.848 
L 247.810283 102.350222 
L 249.036628 102.350222 
L 249.036628 101.852444 
L 250.835268 101.852444 
L 250.835268 101.354667 
L 252.960934 101.354667 
L 254.432549 100.856889 
L 255.168356 100.856889 
L 255.168356 100.359111 
L 255.495382 100.359111 
L 255.495382 99.861333 
L 255.740651 99.861333 
L 255.740651 99.363556 
L 257.78456 99.363556 
L 257.78456 98.865778 
L 258.275098 98.865778 
L 258.275098 98.368 
L 258.929149 98.368 
L 258.929149 97.870222 
L 259.910225 97.870222 
L 259.910225 97.372444 
L 261.38184 97.372444 
L 261.38184 96.874667 
L 265.960197 96.874667 
L 266.041953 95.879111 
L 266.696004 95.879111 
L 266.696004 95.381333 
L 267.758837 95.381333 
L 267.758837 94.883556 
L 268.985183 94.883556 
L 268.985183 94.385778 
L 269.475721 94.385778 
L 269.475721 93.888 
L 270.293284 93.888 
L 270.293284 92.892444 
L 271.192605 92.892444 
L 272.664219 91.399111 
L 272.909488 91.399111 
L 272.909488 90.901333 
L 273.645296 90.901333 
L 273.645296 89.408 
L 274.381103 89.408 
L 274.381103 88.910222 
L 275.198667 88.910222 
L 275.198667 88.412444 
L 277.896627 88.412444 
L 277.896627 87.914667 
L 278.06014 87.914667 
L 278.06014 87.416889 
L 279.449998 87.416889 
L 279.449998 86.919111 
L 279.613511 86.919111 
L 279.613511 86.421333 
L 284.191867 86.421333 
L 284.191867 85.425778 
L 285.826995 85.425778 
L 285.826995 84.928 
L 286.562802 84.928 
L 286.562802 84.430222 
L 288.606711 84.430222 
L 288.606711 83.434667 
L 289.09725 83.434667 
L 289.179006 81.941333 
L 290.650621 81.941333 
L 292.285748 80.945778 
L 292.776286 80.945778 
L 292.776286 80.448 
L 294.329657 80.448 
L 294.329657 79.452444 
L 295.556003 79.452444 
L 295.556003 78.954667 
L 300.706654 78.954667 
L 300.706654 78.456889 
L 302.995833 78.456889 
L 303.077589 77.461333 
L 304.712716 77.461333 
L 304.712716 76.963556 
L 306.020818 76.963556 
L 306.020818 76.465778 
L 310.108637 76.465778 
L 310.108637 75.968 
L 310.435662 75.968 
L 310.435662 75.470222 
L 312.561328 75.470222 
L 312.561328 74.972444 
L 312.97011 74.972444 
L 312.97011 74.474667 
L 313.542404 74.474667 
L 313.542404 73.976889 
L 313.86943 73.976889 
L 313.86943 73.479111 
L 314.76875 73.479111 
L 314.76875 72.981333 
L 315.177532 72.981333 
L 315.177532 72.483556 
L 315.749826 72.483556 
L 315.749826 71.985778 
L 322.944387 71.985778 
L 322.944387 71.488 
L 324.416001 71.488 
L 324.416001 70.990222 
L 326.132885 70.990222 
L 326.132885 70.492444 
L 326.296398 70.492444 
L 326.296398 69.496889 
L 328.912602 69.496889 
L 328.912602 68.999111 
L 334.390279 68.999111 
L 334.390279 68.501333 
L 334.717304 68.501333 
L 334.717304 68.003556 
L 335.453111 68.003556 
L 335.453111 67.505778 
L 337.169995 67.505778 
L 337.169995 67.008 
L 338.314584 67.008 
L 338.314584 66.510222 
L 338.886879 66.510222 
L 338.886879 66.012444 
L 339.377417 66.012444 
L 339.377417 65.514667 
L 343.13821 65.514667 
L 343.13821 65.016889 
L 343.301723 65.016889 
L 343.301723 64.519111 
L 352.37668 64.519111 
L 352.37668 64.021333 
L 353.112487 64.021333 
L 353.112487 63.523556 
L 358.181382 63.523556 
L 358.181382 63.025778 
L 359.162459 63.025778 
L 359.162459 62.528 
L 359.652997 62.528 
L 359.652997 62.030222 
L 361.533393 62.030222 
L 361.533393 61.532444 
L 362.51447 61.532444 
L 362.51447 61.034667 
L 362.677983 61.034667 
L 362.677983 60.536889 
L 363.740815 60.536889 
L 363.740815 60.039111 
L 367.91039 60.039111 
L 367.91039 59.541333 
L 369.627274 59.541333 
L 369.627274 59.043556 
L 370.117812 59.043556 
L 370.117812 58.545778 
L 374.287387 58.545778 
L 374.287387 58.048 
L 380.092089 58.048 
L 380.092089 57.550222 
L 389.494072 57.550222 
L 389.494072 57.052444 
L 389.821098 57.052444 
L 389.821098 56.554667 
L 391.292712 56.554667 
L 391.292712 56.056889 
L 392.600814 56.056889 
L 392.600814 55.559111 
L 393.418378 55.559111 
L 393.418378 55.061333 
L 395.135262 55.061333 
L 395.135262 54.563556 
L 395.544043 54.563556 
L 395.544043 54.065778 
L 396.688633 54.065778 
L 396.688633 53.568 
L 398.487273 53.568 
L 398.487273 53.568 
" clip-path="url(#p401ef4b99a)" style="fill: none; stroke: #1f77b4; stroke-width: 1.5; stroke-linecap: square"/>
   </g>
   <g id="patch_3">
    <path d="M 57.6 307.584 
L 57.6 41.472 
" style="fill: none; stroke: #000000; stroke-width: 0.8; stroke-linejoin: miter; stroke-linecap: square"/>
   </g>
   <g id="patch_4">
    <path d="M 414.72 307.584 
L 414.72 41.472 
" style="fill: none; stroke: #000000; stroke-width: 0.8; stroke-linejoin: miter; stroke-linecap: square"/>
   </g>
   <g id="patch_5">
    <path d="M 57.6 307.584 
L 414.72 307.584 
" style="fill: none; stroke: #000000; stroke-width: 0.8; stroke-linejoin: miter; stroke-linecap: square"/>
   </g>
   <g id="patch_6">
    <path d="M 57.6 41.472 
L 414.72 41.472 
" style="fill: none; stroke: #000000; stroke-width: 0.8; stroke-linejoin: miter; stroke-linecap: square"/>
   </g>
   <g id="text_15">
    <!-- ROC Curve -->
    <g transform="translate(203.469375 35.472) scale(0.12 -0.12)">
     <defs>
      <path id="DejaVuSans-4f" d="M 2522 4238 
Q 1834 4238 1429 3725 
Q 1025 3213 1025 2328 
Q 1025 1447 1429 934 
Q 1834 422 2522 422 
Q 3209 422 3611 934 
Q 4013 1447 4013 2328 
Q 4013 3213 3611 3725 
Q 3209 4238 2522 4238 
z
M 2522 4750 
Q 3503 4750 4090 4092 
Q 4678 3434 4678 2328 
Q 4678 1225 4090 567 
Q 3503 -91 2522 -91 
Q 1538 -91 948 565 
Q 359 1222 359 2328 
Q 359 3434 948 4092 
Q 1538 4750 2522 4750 
z
" transform="scale(0.015625)"/>
      <path id="DejaVuSans-43" d="M 4122 4306 
L 4122 3641 
Q 3803 3938 3442 4084 
Q 3081 4231 2675 4231 
Q 1875 4231 1450 3742 
Q 1025 3253 1025 2328 
Q 1025 1406 1450 917 
Q 1875 428 2675 428 
Q 3081 428 3442 575 
Q 3803 722 4122 1019 
L 4122 359 
Q 3791 134 3420 21 
Q 3050 -91 2638 -91 
Q 1578 -91 968 557 
Q 359 1206 359 2328 
Q 359 3453 968 4101 
Q 1578 4750 2638 4750 
Q 3056 4750 3426 4639 
Q 3797 4528 4122 4306 
z
" transform="scale(0.015625)"/>
      <path id="DejaVuSans-20" transform="scale(0.015625)"/>
      <path id="DejaVuSans-75" d="M 544 1381 
L 544 3500 
L 1119 3500 
L 1119 1403 
Q 1119 906 1312 657 
Q 1506 409 1894 409 
Q 2359 409 2629 706 
Q 2900 1003 2900 1516 
L 2900 3500 
L 3475 3500 
L 3475 0 
L 2900 0 
L 2900 538 
Q 2691 219 2414 64 
Q 2138 -91 1772 -91 
Q 1169 -91 856 284 
Q 544 659 544 1381 
z
M 1991 3584 
L 1991 3584 
z
" transform="scale(0.015625)"/>
      <path id="DejaVuSans-72" d="M 2631 2963 
Q 2534 3019 2420 3045 
Q 2306 3072 2169 3072 
Q 1681 3072 1420 2755 
Q 1159 2438 1159 1844 
L 1159 0 
L 581 0 
L 581 3500 
L 1159 3500 
L 1159 2956 
Q 1341 3275 1631 3429 
Q 1922 3584 2338 3584 
Q 2397 3584 2469 3576 
Q 2541 3569 2628 3553 
L 2631 2963 
z
" transform="scale(0.015625)"/>
      <path id="DejaVuSans-76" d="M 191 3500 
L 800 3500 
L 1894 563 
L 2988 3500 
L 3597 3500 
L 2284 0 
L 1503 0 
L 191 3500 
z
" transform="scale(0.015625)"/>
      <path id="DejaVuSans-65" d="M 3597 1894 
L 3597 1613 
L 953 1613 
Q 991 1019 1311 708 
Q 1631 397 2203 397 
Q 2534 397 2845 478 
Q 3156 559 3463 722 
L 3463 178 
Q 3153 47 2828 -22 
Q 2503 -91 2169 -91 
Q 1331 -91 842 396 
Q 353 884 353 1716 
Q 353 2575 817 3079 
Q 1281 3584 2069 3584 
Q 2775 3584 3186 3129 
Q 3597 2675 3597 1894 
z
M 3022 2063 
Q 3016 2534 2758 2815 
Q 2500 3097 2075 3097 
Q 1594 3097 1305 2825 
Q 1016 2553 972 2059 
L 3022 2063 
z
" transform="scale(0.015625)"/>
     </defs>
     <use xlink:href="#DejaVuSans-52"/>
     <use xlink:href="#DejaVuSans-4f" x="69.482422"/>
     <use xlink:href="#DejaVuSans-43" x="148.193359"/>
     <use xlink:href="#DejaVuSans-20" x="218.017578"/>
     <use xlink:href="#DejaVuSans-43" x="249.804688"/>
     <use xlink:href="#DejaVuSans-75" x="319.628906"/>
     <use xlink:href="#DejaVuSans-72" x="383.007812"/>
     <use xlink:href="#DejaVuSans-76" x="424.121094"/>
     <use xlink:href="#DejaVuSans-65" x="483.300781"/>
    </g>
   </g>
  </g>
 </g>
 <defs>
  <clipPath id="p401ef4b99a">
   <rect x="57.6" y="41.472" width="357.12" height="266.112"/>
  </clipPath>
 </defs>
</svg>
