<?xml version="1.0" encoding="utf-8" standalone="no"?>
<!DOCTYPE svg PUBLIC "-//W3C//DTD SVG 1.1//EN"
  "http://www.w3.org/Graphics/SVG/1.1/DTD/svg11.dtd">
<svg xmlns:xlink="http://www.w3.org/1999/xlink" width="460.8pt" height="345.6pt" viewBox="0 0 460.8 345.6" xmlns="http://www.w3.org/2000/svg" version="1.1">
 <metadata>
  <rdf:RDF xmlns:dc="http://purl.org/dc/elements/1.1/" xmlns:cc="http://creativecommons.org/ns#" xmlns:rdf="http://www.w3.org/1999/02/22-rdf-syntax-ns#">
   <cc:Work>
    <dc:type rdf:resource="http://purl.org/dc/dcmitype/StillImage"/>
    <dc:date>2023-05-29T12:56:51.349287</dc:date>
    <dc:format>image/svg+xml</dc:format>
    <dc:creator>
     <cc:Agent>
      <dc:title>Matplotlib v3.7.1, https://matplotlib.org/</dc:title>
     </cc:Agent>
    </dc:creator>
   </cc:Work>
  </rdf:RDF>
 </metadata>
 <defs>
  <style type="text/css">*{stroke-linejoin: round; stroke-linecap: butt}</style>
 </defs>
 <g id="figure_1">
  <g id="patch_1">
   <path d="M 0 345.6 
L 460.8 345.6 
L 460.8 0 
L 0 0 
z
" style="fill: #ffffff"/>
  </g>
  <g id="axes_1">
   <g id="patch_2">
    <path d="M 57.6 307.584 
L 414.72 307.584 
L 414.72 41.472 
L 57.6 41.472 
z
" style="fill: #ffffff"/>
   </g>
   <g id="matplotlib.axis_1">
    <g id="xtick_1">
     <g id="line2d_1">
      <defs>
       <path id="mfb40e1053c" d="M 0 0 
L 0 3.5 
" style="stroke: #000000; stroke-width: 0.8"/>
      </defs>
      <g>
       <use xlink:href="#mfb40e1053c" x="73.832727" y="307.584" style="stroke: #000000; stroke-width: 0.8"/>
      </g>
     </g>
     <g id="text_1">
      <!-- 0.0 -->
      <g transform="translate(65.881165 322.182437) scale(0.1 -0.1)">
       <defs>
        <path id="DejaVuSans-30" d="M 2034 4250 
Q 1547 4250 1301 3770 
Q 1056 3291 1056 2328 
Q 1056 1369 1301 889 
Q 1547 409 2034 409 
Q 2525 409 2770 889 
Q 3016 1369 3016 2328 
Q 3016 3291 2770 3770 
Q 2525 4250 2034 4250 
z
M 2034 4750 
Q 2819 4750 3233 4129 
Q 3647 3509 3647 2328 
Q 3647 1150 3233 529 
Q 2819 -91 2034 -91 
Q 1250 -91 836 529 
Q 422 1150 422 2328 
Q 422 3509 836 4129 
Q 1250 4750 2034 4750 
z
" transform="scale(0.015625)"/>
        <path id="DejaVuSans-2e" d="M 684 794 
L 1344 794 
L 1344 0 
L 684 0 
L 684 794 
z
" transform="scale(0.015625)"/>
       </defs>
       <use xlink:href="#DejaVuSans-30"/>
       <use xlink:href="#DejaVuSans-2e" x="63.623047"/>
       <use xlink:href="#DejaVuSans-30" x="95.410156"/>
      </g>
     </g>
    </g>
    <g id="xtick_2">
     <g id="line2d_2">
      <g>
       <use xlink:href="#mfb40e1053c" x="138.763636" y="307.584" style="stroke: #000000; stroke-width: 0.8"/>
      </g>
     </g>
     <g id="text_2">
      <!-- 0.2 -->
      <g transform="translate(130.812074 322.182437) scale(0.1 -0.1)">
       <defs>
        <path id="DejaVuSans-32" d="M 1228 531 
L 3431 531 
L 3431 0 
L 469 0 
L 469 531 
Q 828 903 1448 1529 
Q 2069 2156 2228 2338 
Q 2531 2678 2651 2914 
Q 2772 3150 2772 3378 
Q 2772 3750 2511 3984 
Q 2250 4219 1831 4219 
Q 1534 4219 1204 4116 
Q 875 4013 500 3803 
L 500 4441 
Q 881 4594 1212 4672 
Q 1544 4750 1819 4750 
Q 2544 4750 2975 4387 
Q 3406 4025 3406 3419 
Q 3406 3131 3298 2873 
Q 3191 2616 2906 2266 
Q 2828 2175 2409 1742 
Q 1991 1309 1228 531 
z
" transform="scale(0.015625)"/>
       </defs>
       <use xlink:href="#DejaVuSans-30"/>
       <use xlink:href="#DejaVuSans-2e" x="63.623047"/>
       <use xlink:href="#DejaVuSans-32" x="95.410156"/>
      </g>
     </g>
    </g>
    <g id="xtick_3">
     <g id="line2d_3">
      <g>
       <use xlink:href="#mfb40e1053c" x="203.694545" y="307.584" style="stroke: #000000; stroke-width: 0.8"/>
      </g>
     </g>
     <g id="text_3">
      <!-- 0.4 -->
      <g transform="translate(195.742983 322.182437) scale(0.1 -0.1)">
       <defs>
        <path id="DejaVuSans-34" d="M 2419 4116 
L 825 1625 
L 2419 1625 
L 2419 4116 
z
M 2253 4666 
L 3047 4666 
L 3047 1625 
L 3713 1625 
L 3713 1100 
L 3047 1100 
L 3047 0 
L 2419 0 
L 2419 1100 
L 313 1100 
L 313 1709 
L 2253 4666 
z
" transform="scale(0.015625)"/>
       </defs>
       <use xlink:href="#DejaVuSans-30"/>
       <use xlink:href="#DejaVuSans-2e" x="63.623047"/>
       <use xlink:href="#DejaVuSans-34" x="95.410156"/>
      </g>
     </g>
    </g>
    <g id="xtick_4">
     <g id="line2d_4">
      <g>
       <use xlink:href="#mfb40e1053c" x="268.625455" y="307.584" style="stroke: #000000; stroke-width: 0.8"/>
      </g>
     </g>
     <g id="text_4">
      <!-- 0.6 -->
      <g transform="translate(260.673892 322.182437) scale(0.1 -0.1)">
       <defs>
        <path id="DejaVuSans-36" d="M 2113 2584 
Q 1688 2584 1439 2293 
Q 1191 2003 1191 1497 
Q 1191 994 1439 701 
Q 1688 409 2113 409 
Q 2538 409 2786 701 
Q 3034 994 3034 1497 
Q 3034 2003 2786 2293 
Q 2538 2584 2113 2584 
z
M 3366 4563 
L 3366 3988 
Q 3128 4100 2886 4159 
Q 2644 4219 2406 4219 
Q 1781 4219 1451 3797 
Q 1122 3375 1075 2522 
Q 1259 2794 1537 2939 
Q 1816 3084 2150 3084 
Q 2853 3084 3261 2657 
Q 3669 2231 3669 1497 
Q 3669 778 3244 343 
Q 2819 -91 2113 -91 
Q 1303 -91 875 529 
Q 447 1150 447 2328 
Q 447 3434 972 4092 
Q 1497 4750 2381 4750 
Q 2619 4750 2861 4703 
Q 3103 4656 3366 4563 
z
" transform="scale(0.015625)"/>
       </defs>
       <use xlink:href="#DejaVuSans-30"/>
       <use xlink:href="#DejaVuSans-2e" x="63.623047"/>
       <use xlink:href="#DejaVuSans-36" x="95.410156"/>
      </g>
     </g>
    </g>
    <g id="xtick_5">
     <g id="line2d_5">
      <g>
       <use xlink:href="#mfb40e1053c" x="333.556364" y="307.584" style="stroke: #000000; stroke-width: 0.8"/>
      </g>
     </g>
     <g id="text_5">
      <!-- 0.8 -->
      <g transform="translate(325.604801 322.182437) scale(0.1 -0.1)">
       <defs>
        <path id="DejaVuSans-38" d="M 2034 2216 
Q 1584 2216 1326 1975 
Q 1069 1734 1069 1313 
Q 1069 891 1326 650 
Q 1584 409 2034 409 
Q 2484 409 2743 651 
Q 3003 894 3003 1313 
Q 3003 1734 2745 1975 
Q 2488 2216 2034 2216 
z
M 1403 2484 
Q 997 2584 770 2862 
Q 544 3141 544 3541 
Q 544 4100 942 4425 
Q 1341 4750 2034 4750 
Q 2731 4750 3128 4425 
Q 3525 4100 3525 3541 
Q 3525 3141 3298 2862 
Q 3072 2584 2669 2484 
Q 3125 2378 3379 2068 
Q 3634 1759 3634 1313 
Q 3634 634 3220 271 
Q 2806 -91 2034 -91 
Q 1263 -91 848 271 
Q 434 634 434 1313 
Q 434 1759 690 2068 
Q 947 2378 1403 2484 
z
M 1172 3481 
Q 1172 3119 1398 2916 
Q 1625 2713 2034 2713 
Q 2441 2713 2670 2916 
Q 2900 3119 2900 3481 
Q 2900 3844 2670 4047 
Q 2441 4250 2034 4250 
Q 1625 4250 1398 4047 
Q 1172 3844 1172 3481 
z
" transform="scale(0.015625)"/>
       </defs>
       <use xlink:href="#DejaVuSans-30"/>
       <use xlink:href="#DejaVuSans-2e" x="63.623047"/>
       <use xlink:href="#DejaVuSans-38" x="95.410156"/>
      </g>
     </g>
    </g>
    <g id="xtick_6">
     <g id="line2d_6">
      <g>
       <use xlink:href="#mfb40e1053c" x="398.487273" y="307.584" style="stroke: #000000; stroke-width: 0.8"/>
      </g>
     </g>
     <g id="text_6">
      <!-- 1.0 -->
      <g transform="translate(390.53571 322.182437) scale(0.1 -0.1)">
       <defs>
        <path id="DejaVuSans-31" d="M 794 531 
L 1825 531 
L 1825 4091 
L 703 3866 
L 703 4441 
L 1819 4666 
L 2450 4666 
L 2450 531 
L 3481 531 
L 3481 0 
L 794 0 
L 794 531 
z
" transform="scale(0.015625)"/>
       </defs>
       <use xlink:href="#DejaVuSans-31"/>
       <use xlink:href="#DejaVuSans-2e" x="63.623047"/>
       <use xlink:href="#DejaVuSans-30" x="95.410156"/>
      </g>
     </g>
    </g>
    <g id="text_7">
     <!-- FPR -->
     <g transform="translate(226.795156 335.860562) scale(0.1 -0.1)">
      <defs>
       <path id="DejaVuSans-46" d="M 628 4666 
L 3309 4666 
L 3309 4134 
L 1259 4134 
L 1259 2759 
L 3109 2759 
L 3109 2228 
L 1259 2228 
L 1259 0 
L 628 0 
L 628 4666 
z
" transform="scale(0.015625)"/>
       <path id="DejaVuSans-50" d="M 1259 4147 
L 1259 2394 
L 2053 2394 
Q 2494 2394 2734 2622 
Q 2975 2850 2975 3272 
Q 2975 3691 2734 3919 
Q 2494 4147 2053 4147 
L 1259 4147 
z
M 628 4666 
L 2053 4666 
Q 2838 4666 3239 4311 
Q 3641 3956 3641 3272 
Q 3641 2581 3239 2228 
Q 2838 1875 2053 1875 
L 1259 1875 
L 1259 0 
L 628 0 
L 628 4666 
z
" transform="scale(0.015625)"/>
       <path id="DejaVuSans-52" d="M 2841 2188 
Q 3044 2119 3236 1894 
Q 3428 1669 3622 1275 
L 4263 0 
L 3584 0 
L 2988 1197 
Q 2756 1666 2539 1819 
Q 2322 1972 1947 1972 
L 1259 1972 
L 1259 0 
L 628 0 
L 628 4666 
L 2053 4666 
Q 2853 4666 3247 4331 
Q 3641 3997 3641 3322 
Q 3641 2881 3436 2590 
Q 3231 2300 2841 2188 
z
M 1259 4147 
L 1259 2491 
L 2053 2491 
Q 2509 2491 2742 2702 
Q 2975 2913 2975 3322 
Q 2975 3731 2742 3939 
Q 2509 4147 2053 4147 
L 1259 4147 
z
" transform="scale(0.015625)"/>
      </defs>
      <use xlink:href="#DejaVuSans-46"/>
      <use xlink:href="#DejaVuSans-50" x="57.519531"/>
      <use xlink:href="#DejaVuSans-52" x="117.822266"/>
     </g>
    </g>
   </g>
   <g id="matplotlib.axis_2">
    <g id="ytick_1">
     <g id="line2d_7">
      <defs>
       <path id="m1e1d1f3a68" d="M 0 0 
L -3.5 0 
" style="stroke: #000000; stroke-width: 0.8"/>
      </defs>
      <g>
       <use xlink:href="#m1e1d1f3a68" x="57.6" y="295.488" style="stroke: #000000; stroke-width: 0.8"/>
      </g>
     </g>
     <g id="text_8">
      <!-- 0.0 -->
      <g transform="translate(34.696875 299.287219) scale(0.1 -0.1)">
       <use xlink:href="#DejaVuSans-30"/>
       <use xlink:href="#DejaVuSans-2e" x="63.623047"/>
       <use xlink:href="#DejaVuSans-30" x="95.410156"/>
      </g>
     </g>
    </g>
    <g id="ytick_2">
     <g id="line2d_8">
      <g>
       <use xlink:href="#m1e1d1f3a68" x="57.6" y="247.104" style="stroke: #000000; stroke-width: 0.8"/>
      </g>
     </g>
     <g id="text_9">
      <!-- 0.2 -->
      <g transform="translate(34.696875 250.903219) scale(0.1 -0.1)">
       <use xlink:href="#DejaVuSans-30"/>
       <use xlink:href="#DejaVuSans-2e" x="63.623047"/>
       <use xlink:href="#DejaVuSans-32" x="95.410156"/>
      </g>
     </g>
    </g>
    <g id="ytick_3">
     <g id="line2d_9">
      <g>
       <use xlink:href="#m1e1d1f3a68" x="57.6" y="198.72" style="stroke: #000000; stroke-width: 0.8"/>
      </g>
     </g>
     <g id="text_10">
      <!-- 0.4 -->
      <g transform="translate(34.696875 202.519219) scale(0.1 -0.1)">
       <use xlink:href="#DejaVuSans-30"/>
       <use xlink:href="#DejaVuSans-2e" x="63.623047"/>
       <use xlink:href="#DejaVuSans-34" x="95.410156"/>
      </g>
     </g>
    </g>
    <g id="ytick_4">
     <g id="line2d_10">
      <g>
       <use xlink:href="#m1e1d1f3a68" x="57.6" y="150.336" style="stroke: #000000; stroke-width: 0.8"/>
      </g>
     </g>
     <g id="text_11">
      <!-- 0.6 -->
      <g transform="translate(34.696875 154.135219) scale(0.1 -0.1)">
       <use xlink:href="#DejaVuSans-30"/>
       <use xlink:href="#DejaVuSans-2e" x="63.623047"/>
       <use xlink:href="#DejaVuSans-36" x="95.410156"/>
      </g>
     </g>
    </g>
    <g id="ytick_5">
     <g id="line2d_11">
      <g>
       <use xlink:href="#m1e1d1f3a68" x="57.6" y="101.952" style="stroke: #000000; stroke-width: 0.8"/>
      </g>
     </g>
     <g id="text_12">
      <!-- 0.8 -->
      <g transform="translate(34.696875 105.751219) scale(0.1 -0.1)">
       <use xlink:href="#DejaVuSans-30"/>
       <use xlink:href="#DejaVuSans-2e" x="63.623047"/>
       <use xlink:href="#DejaVuSans-38" x="95.410156"/>
      </g>
     </g>
    </g>
    <g id="ytick_6">
     <g id="line2d_12">
      <g>
       <use xlink:href="#m1e1d1f3a68" x="57.6" y="53.568" style="stroke: #000000; stroke-width: 0.8"/>
      </g>
     </g>
     <g id="text_13">
      <!-- 1.0 -->
      <g transform="translate(34.696875 57.367219) scale(0.1 -0.1)">
       <use xlink:href="#DejaVuSans-31"/>
       <use xlink:href="#DejaVuSans-2e" x="63.623047"/>
       <use xlink:href="#DejaVuSans-30" x="95.410156"/>
      </g>
     </g>
    </g>
    <g id="text_14">
     <!-- TPR -->
     <g transform="translate(28.617188 184.070969) rotate(-90) scale(0.1 -0.1)">
      <defs>
       <path id="DejaVuSans-54" d="M -19 4666 
L 3928 4666 
L 3928 4134 
L 2272 4134 
L 2272 0 
L 1638 0 
L 1638 4134 
L -19 4134 
L -19 4666 
z
" transform="scale(0.015625)"/>
      </defs>
      <use xlink:href="#DejaVuSans-54"/>
      <use xlink:href="#DejaVuSans-50" x="61.083984"/>
      <use xlink:href="#DejaVuSans-52" x="121.386719"/>
     </g>
    </g>
   </g>
   <g id="line2d_13">
    <path d="M 73.832727 295.488 
L 73.914484 295.488 
L 73.914484 292.999111 
L 74.077996 292.999111 
L 74.077996 292.501333 
L 74.241509 292.501333 
L 74.323265 286.528 
L 74.650291 286.528 
L 74.732047 281.550222 
L 74.89556 281.550222 
L 74.977316 280.056889 
L 75.059073 280.056889 
L 75.059073 279.559111 
L 75.222586 279.559111 
L 75.304342 278.065778 
L 75.386098 278.065778 
L 75.467855 275.079111 
L 75.549611 275.079111 
L 75.631367 274.083556 
L 75.876637 274.083556 
L 75.958393 272.092444 
L 76.040149 272.092444 
L 76.040149 270.599111 
L 76.203662 270.599111 
L 76.203662 267.612444 
L 76.367175 267.612444 
L 76.448931 266.119111 
L 76.530687 266.119111 
L 76.530687 265.621333 
L 76.775957 265.621333 
L 76.775957 264.128 
L 77.102982 264.128 
L 77.184738 261.639111 
L 77.266495 261.639111 
L 77.266495 261.141333 
L 77.511764 261.141333 
L 77.511764 260.145778 
L 77.757033 260.145778 
L 77.838789 259.150222 
L 77.920546 259.150222 
L 78.002302 257.656889 
L 78.49284 257.656889 
L 78.49284 257.159111 
L 79.065135 257.159111 
L 79.146891 256.163556 
L 79.310404 256.163556 
L 79.310404 255.168 
L 79.473917 255.168 
L 79.555673 254.172444 
L 79.63743 254.172444 
L 79.719186 252.679111 
L 79.800942 252.679111 
L 79.800942 252.181333 
L 80.046211 252.181333 
L 80.127968 251.185778 
L 80.373237 251.185778 
L 80.454993 250.190222 
L 80.618506 250.190222 
L 80.618506 249.692444 
L 81.190801 249.692444 
L 81.190801 249.194667 
L 81.599582 249.194667 
L 81.681339 248.199111 
L 82.090121 248.199111 
L 82.171877 247.203556 
L 82.989441 247.203556 
L 82.989441 245.710222 
L 83.316466 245.710222 
L 83.398223 244.216889 
L 83.725248 244.216889 
L 83.725248 241.728 
L 84.215786 241.728 
L 84.215786 241.230222 
L 84.461055 241.230222 
L 84.461055 240.234667 
L 84.706324 240.234667 
L 84.788081 239.239111 
L 85.523888 239.239111 
L 85.523888 238.243556 
L 85.769157 238.243556 
L 85.769157 237.248 
L 86.014426 237.248 
L 86.014426 236.252444 
L 86.177939 236.252444 
L 86.259696 234.261333 
L 86.341452 234.261333 
L 86.341452 232.768 
L 86.586721 232.768 
L 86.586721 231.274667 
L 86.995503 231.274667 
L 87.077259 230.279111 
L 87.322528 230.279111 
L 87.322528 228.785778 
L 88.058336 228.785778 
L 88.058336 227.292444 
L 88.794143 227.292444 
L 88.875899 226.296889 
L 89.039412 226.296889 
L 89.039412 225.799111 
L 89.284681 225.799111 
L 89.284681 225.301333 
L 89.52995 225.301333 
L 89.52995 224.803556 
L 89.693463 224.803556 
L 89.775219 221.816889 
L 90.020489 221.816889 
L 90.020489 220.821333 
L 90.347514 220.821333 
L 90.347514 220.323556 
L 90.756296 220.323556 
L 90.756296 219.825778 
L 91.246834 219.825778 
L 91.32859 218.332444 
L 91.57386 218.332444 
L 91.655616 217.336889 
L 92.064398 217.336889 
L 92.064398 216.341333 
L 92.309667 216.341333 
L 92.391423 215.345778 
L 92.718449 215.345778 
L 92.800205 212.856889 
L 93.127231 212.856889 
L 93.127231 212.359111 
L 93.290743 212.359111 
L 93.3725 211.363556 
L 93.454256 211.363556 
L 93.454256 210.865778 
L 93.781282 210.865778 
L 93.863038 208.874667 
L 94.844114 208.874667 
L 94.844114 208.376889 
L 95.334653 208.376889 
L 95.416409 207.381333 
L 95.498165 207.381333 
L 95.498165 206.883556 
L 96.07046 206.883556 
L 96.07046 206.385778 
L 96.397485 206.385778 
L 96.397485 205.888 
L 97.133293 205.888 
L 97.215049 204.394667 
L 99.095446 204.394667 
L 99.095446 203.896889 
L 99.585984 203.896889 
L 99.585984 203.399111 
L 99.994766 203.399111 
L 99.994766 202.901333 
L 100.56706 202.901333 
L 100.56706 202.403556 
L 100.812329 202.403556 
L 100.812329 201.905778 
L 101.057598 201.905778 
L 101.057598 201.408 
L 101.629893 201.408 
L 101.629893 200.910222 
L 102.120431 200.910222 
L 102.202188 199.914667 
L 102.283944 199.914667 
L 102.283944 199.416889 
L 102.529213 199.416889 
L 102.61097 198.421333 
L 102.774482 198.421333 
L 102.856239 197.425778 
L 102.937995 197.425778 
L 102.937995 196.430222 
L 103.101508 196.430222 
L 103.183264 195.434667 
L 103.346777 195.434667 
L 103.346777 194.936889 
L 103.755559 194.936889 
L 103.755559 194.439111 
L 104.327853 194.439111 
L 104.327853 193.941333 
L 104.900148 193.941333 
L 104.981904 192.448 
L 106.453519 192.448 
L 106.453519 191.950222 
L 106.698788 191.950222 
L 106.698788 190.456889 
L 107.189326 190.456889 
L 107.189326 189.461333 
L 107.843377 189.461333 
L 107.843377 188.963556 
L 108.333915 188.963556 
L 108.333915 188.465778 
L 108.579185 188.465778 
L 108.660941 187.470222 
L 110.623094 187.470222 
L 110.623094 186.972444 
L 111.277145 186.972444 
L 111.277145 186.474667 
L 112.667003 186.474667 
L 112.667003 185.976889 
L 114.792669 185.976889 
L 114.792669 185.479111 
L 116.100771 185.479111 
L 116.100771 184.981333 
L 117.408873 184.981333 
L 117.408873 184.483556 
L 117.572385 184.483556 
L 117.572385 183.985778 
L 117.817654 183.985778 
L 117.817654 183.488 
L 119.125756 183.488 
L 119.125756 182.990222 
L 120.679127 182.990222 
L 120.679127 181.994667 
L 121.006153 181.994667 
L 121.006153 181.496889 
L 121.169666 181.496889 
L 121.169666 180.999111 
L 122.314255 180.999111 
L 122.314255 179.008 
L 123.867626 179.008 
L 123.867626 178.510222 
L 124.194651 178.510222 
L 124.276408 177.514667 
L 125.33924 177.514667 
L 125.420997 176.519111 
L 125.911535 176.519111 
L 125.911535 176.021333 
L 127.056124 176.021333 
L 127.056124 175.523556 
L 128.691252 175.523556 
L 128.691252 175.025778 
L 129.427059 175.025778 
L 129.427059 174.528 
L 129.590572 174.528 
L 129.672328 173.532444 
L 129.917597 173.532444 
L 129.917597 173.034667 
L 130.489892 173.034667 
L 130.489892 172.536889 
L 130.653404 172.536889 
L 130.653404 172.039111 
L 131.143943 172.039111 
L 131.143943 171.541333 
L 131.470968 171.541333 
L 131.470968 171.043556 
L 131.87975 171.043556 
L 131.87975 170.545778 
L 133.760147 170.545778 
L 133.760147 170.048 
L 134.659467 170.048 
L 134.741223 169.052444 
L 136.212838 169.052444 
L 136.212838 168.554667 
L 136.37635 168.554667 
L 136.37635 167.559111 
L 137.52094 167.559111 
L 137.52094 167.061333 
L 137.929721 167.061333 
L 137.929721 166.563556 
L 138.502016 166.563556 
L 138.502016 166.065778 
L 140.300656 166.065778 
L 140.300656 165.568 
L 140.464169 165.568 
L 140.464169 164.572444 
L 140.791194 164.572444 
L 140.791194 164.074667 
L 141.527002 164.074667 
L 141.527002 163.576889 
L 141.690514 163.576889 
L 141.690514 163.079111 
L 142.508078 163.079111 
L 142.508078 162.083556 
L 142.91686 162.083556 
L 142.91686 161.585778 
L 143.734424 161.585778 
L 143.734424 161.088 
L 145.860089 161.088 
L 145.860089 160.590222 
L 146.023602 160.590222 
L 146.023602 160.092444 
L 147.086435 160.092444 
L 147.086435 159.594667 
L 148.639806 159.594667 
L 148.639806 159.096889 
L 151.337766 159.096889 
L 151.337766 158.599111 
L 151.501279 158.599111 
L 151.501279 158.101333 
L 151.991817 158.101333 
L 151.991817 157.603556 
L 152.727624 157.603556 
L 152.727624 156.110222 
L 153.95397 156.110222 
L 153.95397 155.612444 
L 154.199239 155.612444 
L 154.199239 155.114667 
L 154.444508 155.114667 
L 154.444508 154.616889 
L 154.935046 154.616889 
L 155.016803 153.621333 
L 155.425585 153.621333 
L 155.425585 153.123556 
L 155.916123 153.123556 
L 155.997879 152.128 
L 158.941108 152.128 
L 158.941108 151.630222 
L 161.14853 151.630222 
L 161.14853 151.132444 
L 161.802581 151.132444 
L 161.802581 150.634667 
L 162.947171 150.634667 
L 162.947171 150.136889 
L 163.110683 150.136889 
L 163.110683 149.639111 
L 167.116745 149.639111 
L 167.116745 148.643556 
L 167.362015 148.643556 
L 167.362015 148.145778 
L 167.607284 148.145778 
L 167.607284 147.648 
L 167.934309 147.648 
L 167.934309 147.150222 
L 169.405924 147.150222 
L 169.405924 146.652444 
L 170.305244 146.652444 
L 170.305244 146.154667 
L 173.166717 146.154667 
L 173.166717 145.656889 
L 173.493742 145.656889 
L 173.493742 145.159111 
L 175.864677 145.159111 
L 175.864677 144.661333 
L 176.273459 144.661333 
L 176.273459 144.163556 
L 176.845754 144.163556 
L 176.92751 143.168 
L 177.581561 143.168 
L 177.581561 142.670222 
L 178.72615 142.670222 
L 178.72615 141.674667 
L 178.889663 141.674667 
L 178.889663 141.176889 
L 179.380201 141.176889 
L 179.380201 140.181333 
L 182.159918 140.181333 
L 182.159918 139.683556 
L 182.568699 139.683556 
L 182.568699 138.688 
L 183.22275 138.688 
L 183.22275 138.190222 
L 183.46802 138.190222 
L 183.46802 137.692444 
L 183.876801 137.692444 
L 183.876801 137.194667 
L 185.430172 137.194667 
L 185.430172 136.696889 
L 185.675441 136.696889 
L 185.675441 136.199111 
L 186.16598 136.199111 
L 186.16598 135.701333 
L 187.96462 135.701333 
L 187.96462 135.203556 
L 189.354478 135.203556 
L 189.354478 134.705778 
L 189.599747 134.705778 
L 189.599747 134.208 
L 189.926773 134.208 
L 189.926773 133.212444 
L 191.970682 133.212444 
L 191.970682 132.714667 
L 192.870002 132.714667 
L 192.870002 132.216889 
L 195.15918 132.216889 
L 195.15918 131.719111 
L 195.40445 131.719111 
L 195.40445 130.723556 
L 196.222013 130.723556 
L 196.222013 130.225778 
L 198.756461 130.225778 
L 198.756461 129.728 
L 199.328755 129.728 
L 199.328755 129.230222 
L 200.146319 129.230222 
L 200.146319 128.732444 
L 202.108472 128.732444 
L 202.108472 128.234667 
L 202.844279 128.234667 
L 202.844279 127.736889 
L 203.416574 127.736889 
L 203.416574 126.243556 
L 206.932098 126.243556 
L 206.932098 125.248 
L 209.303032 125.248 
L 209.303032 124.750222 
L 209.548302 124.750222 
L 209.548302 124.252444 
L 212.900313 124.252444 
L 212.900313 123.754667 
L 214.126658 123.754667 
L 214.126658 123.256889 
L 214.698953 123.256889 
L 214.698953 122.759111 
L 214.862466 122.759111 
L 214.862466 122.261333 
L 216.170568 122.261333 
L 216.170568 121.763556 
L 216.33408 121.763556 
L 216.33408 120.768 
L 216.824618 120.768 
L 216.906375 119.772444 
L 217.969208 119.772444 
L 217.969208 119.274667 
L 218.541502 119.274667 
L 218.541502 118.776889 
L 218.950284 118.776889 
L 219.03204 117.283556 
L 219.604335 117.283556 
L 219.604335 116.785778 
L 221.484732 116.785778 
L 221.484732 116.288 
L 223.77391 116.288 
L 223.77391 115.790222 
L 224.346205 115.790222 
L 224.346205 115.292444 
L 225.899576 115.292444 
L 225.899576 114.794667 
L 227.125921 114.794667 
L 227.207677 113.301333 
L 229.251587 113.301333 
L 229.251587 112.803556 
L 229.496856 112.803556 
L 229.496856 112.305778 
L 230.641445 112.305778 
L 230.641445 111.808 
L 230.968471 111.808 
L 230.968471 111.310222 
L 233.421162 111.310222 
L 233.421162 110.812444 
L 234.81102 110.812444 
L 234.81102 110.314667 
L 235.71034 110.314667 
L 235.71034 109.816889 
L 237.181955 109.816889 
L 237.181955 109.319111 
L 238.490057 109.319111 
L 238.490057 108.821333 
L 238.817082 108.821333 
L 238.817082 108.323556 
L 241.515042 108.323556 
L 241.515042 107.825778 
L 241.678555 107.825778 
L 241.678555 107.328 
L 243.15017 107.328 
L 243.15017 106.830222 
L 243.967733 106.830222 
L 243.967733 106.332444 
L 244.294759 106.332444 
L 244.294759 105.834667 
L 245.030566 105.834667 
L 245.030566 105.336889 
L 245.929886 105.336889 
L 245.929886 104.839111 
L 246.665694 104.839111 
L 246.665694 104.341333 
L 247.074475 104.341333 
L 247.074475 103.843556 
L 248.219065 103.843556 
L 248.219065 103.345778 
L 250.835268 103.345778 
L 250.835268 102.848 
L 252.633909 102.848 
L 252.633909 102.350222 
L 253.860254 102.350222 
L 253.860254 101.852444 
L 254.350792 101.852444 
L 254.350792 101.354667 
L 254.596061 101.354667 
L 254.596061 100.856889 
L 255.577138 100.856889 
L 255.577138 100.359111 
L 256.149432 100.359111 
L 256.149432 99.861333 
L 258.602124 99.861333 
L 258.602124 99.363556 
L 259.419687 99.363556 
L 259.419687 98.865778 
L 260.400764 98.865778 
L 260.400764 98.368 
L 262.935211 98.368 
L 263.016968 97.372444 
L 265.22439 97.372444 
L 265.22439 96.874667 
L 265.633171 96.874667 
L 265.633171 96.376889 
L 266.532491 96.376889 
L 266.532491 95.879111 
L 267.186542 95.879111 
L 267.186542 95.381333 
L 268.739913 95.381333 
L 268.739913 94.883556 
L 272.173681 94.883556 
L 272.173681 94.385778 
L 275.11691 94.385778 
L 275.11691 93.390222 
L 278.141896 93.390222 
L 278.141896 92.892444 
L 279.204729 92.892444 
L 279.204729 91.896889 
L 279.449998 91.896889 
L 279.449998 91.399111 
L 280.349318 91.399111 
L 280.349318 90.901333 
L 280.839856 90.901333 
L 280.839856 90.403556 
L 283.210791 90.403556 
L 283.292547 89.408 
L 283.374304 89.408 
L 283.374304 88.910222 
L 285.091187 88.910222 
L 285.091187 88.412444 
L 285.908751 88.412444 
L 285.908751 87.914667 
L 289.99657 87.914667 
L 289.99657 87.416889 
L 291.958723 87.416889 
L 291.958723 86.919111 
L 292.285748 86.919111 
L 292.285748 86.421333 
L 292.531017 86.421333 
L 292.531017 85.923556 
L 293.103312 85.923556 
L 293.103312 85.425778 
L 294.411414 85.425778 
L 294.411414 84.928 
L 297.763425 84.928 
L 297.763425 84.430222 
L 298.417476 84.430222 
L 298.417476 83.932444 
L 299.235039 83.932444 
L 299.235039 83.434667 
L 299.807334 83.434667 
L 299.807334 82.936889 
L 300.543141 82.936889 
L 300.543141 82.439111 
L 301.278949 82.439111 
L 301.360705 81.443556 
L 302.505294 81.443556 
L 302.505294 80.945778 
L 302.995833 80.945778 
L 302.995833 80.448 
L 305.448524 80.448 
L 305.448524 79.452444 
L 305.612036 79.452444 
L 305.612036 78.954667 
L 306.756626 78.954667 
L 306.756626 78.456889 
L 307.901215 78.456889 
L 307.901215 77.959111 
L 309.291073 77.959111 
L 309.291073 77.461333 
L 310.762688 77.461333 
L 310.762688 76.963556 
L 311.498495 76.963556 
L 311.498495 76.465778 
L 311.82552 76.465778 
L 311.82552 75.968 
L 313.951186 75.968 
L 313.951186 75.470222 
L 314.932263 75.470222 
L 314.932263 74.972444 
L 315.095775 74.972444 
L 315.095775 74.474667 
L 315.422801 74.474667 
L 315.422801 73.976889 
L 318.120761 73.976889 
L 318.120761 73.479111 
L 325.151809 73.479111 
L 325.151809 72.981333 
L 328.340307 72.981333 
L 328.340307 72.483556 
L 333.082177 72.483556 
L 333.082177 71.985778 
L 336.107162 71.985778 
L 336.107162 71.488 
L 337.415264 71.488 
L 337.415264 70.990222 
L 338.968635 70.990222 
L 338.968635 70.492444 
L 339.132148 70.492444 
L 339.132148 69.994667 
L 339.786199 69.994667 
L 339.867955 68.999111 
L 341.666596 68.999111 
L 341.666596 68.501333 
L 345.018607 68.501333 
L 345.018607 68.003556 
L 350.659796 68.003556 
L 350.659796 67.505778 
L 356.464499 67.505778 
L 356.464499 67.008 
L 358.263139 67.008 
L 358.263139 66.510222 
L 360.061779 66.510222 
L 360.061779 66.012444 
L 362.350957 66.012444 
L 362.350957 65.514667 
L 364.394866 65.514667 
L 364.394866 65.016889 
L 365.048917 65.016889 
L 365.048917 64.519111 
L 365.294186 64.519111 
L 365.294186 64.021333 
L 366.929314 64.021333 
L 366.929314 63.523556 
L 372.243478 63.523556 
L 372.243478 63.025778 
L 372.897529 63.025778 
L 372.897529 62.528 
L 373.633336 62.528 
L 373.633336 62.030222 
L 374.123874 62.030222 
L 374.123874 61.532444 
L 376.413053 61.532444 
L 376.413053 61.034667 
L 376.658322 61.034667 
L 376.658322 60.536889 
L 377.14886 60.536889 
L 377.14886 60.039111 
L 378.783988 60.039111 
L 378.783988 59.541333 
L 380.99141 59.541333 
L 380.99141 59.043556 
L 384.833959 59.043556 
L 384.833959 58.545778 
L 385.242741 58.545778 
L 385.242741 58.048 
L 387.041381 58.048 
L 387.041381 57.550222 
L 389.08529 57.550222 
L 389.08529 57.052444 
L 389.657585 57.052444 
L 389.657585 56.554667 
L 390.393392 56.554667 
L 390.393392 56.056889 
L 390.802174 56.056889 
L 390.802174 55.559111 
L 392.355545 55.559111 
L 392.355545 55.061333 
L 393.418378 55.061333 
L 393.418378 54.563556 
L 394.644723 54.563556 
L 394.644723 54.065778 
L 394.808236 54.065778 
L 394.808236 53.568 
L 398.487273 53.568 
L 398.487273 53.568 
" clip-path="url(#pa59c73b248)" style="fill: none; stroke: #1f77b4; stroke-width: 1.5; stroke-linecap: square"/>
   </g>
   <g id="patch_3">
    <path d="M 57.6 307.584 
L 57.6 41.472 
" style="fill: none; stroke: #000000; stroke-width: 0.8; stroke-linejoin: miter; stroke-linecap: square"/>
   </g>
   <g id="patch_4">
    <path d="M 414.72 307.584 
L 414.72 41.472 
" style="fill: none; stroke: #000000; stroke-width: 0.8; stroke-linejoin: miter; stroke-linecap: square"/>
   </g>
   <g id="patch_5">
    <path d="M 57.6 307.584 
L 414.72 307.584 
" style="fill: none; stroke: #000000; stroke-width: 0.8; stroke-linejoin: miter; stroke-linecap: square"/>
   </g>
   <g id="patch_6">
    <path d="M 57.6 41.472 
L 414.72 41.472 
" style="fill: none; stroke: #000000; stroke-width: 0.8; stroke-linejoin: miter; stroke-linecap: square"/>
   </g>
   <g id="text_15">
    <!-- ROC Curve -->
    <g transform="translate(203.469375 35.472) scale(0.12 -0.12)">
     <defs>
      <path id="DejaVuSans-4f" d="M 2522 4238 
Q 1834 4238 1429 3725 
Q 1025 3213 1025 2328 
Q 1025 1447 1429 934 
Q 1834 422 2522 422 
Q 3209 422 3611 934 
Q 4013 1447 4013 2328 
Q 4013 3213 3611 3725 
Q 3209 4238 2522 4238 
z
M 2522 4750 
Q 3503 4750 4090 4092 
Q 4678 3434 4678 2328 
Q 4678 1225 4090 567 
Q 3503 -91 2522 -91 
Q 1538 -91 948 565 
Q 359 1222 359 2328 
Q 359 3434 948 4092 
Q 1538 4750 2522 4750 
z
" transform="scale(0.015625)"/>
      <path id="DejaVuSans-43" d="M 4122 4306 
L 4122 3641 
Q 3803 3938 3442 4084 
Q 3081 4231 2675 4231 
Q 1875 4231 1450 3742 
Q 1025 3253 1025 2328 
Q 1025 1406 1450 917 
Q 1875 428 2675 428 
Q 3081 428 3442 575 
Q 3803 722 4122 1019 
L 4122 359 
Q 3791 134 3420 21 
Q 3050 -91 2638 -91 
Q 1578 -91 968 557 
Q 359 1206 359 2328 
Q 359 3453 968 4101 
Q 1578 4750 2638 4750 
Q 3056 4750 3426 4639 
Q 3797 4528 4122 4306 
z
" transform="scale(0.015625)"/>
      <path id="DejaVuSans-20" transform="scale(0.015625)"/>
      <path id="DejaVuSans-75" d="M 544 1381 
L 544 3500 
L 1119 3500 
L 1119 1403 
Q 1119 906 1312 657 
Q 1506 409 1894 409 
Q 2359 409 2629 706 
Q 2900 1003 2900 1516 
L 2900 3500 
L 3475 3500 
L 3475 0 
L 2900 0 
L 2900 538 
Q 2691 219 2414 64 
Q 2138 -91 1772 -91 
Q 1169 -91 856 284 
Q 544 659 544 1381 
z
M 1991 3584 
L 1991 3584 
z
" transform="scale(0.015625)"/>
      <path id="DejaVuSans-72" d="M 2631 2963 
Q 2534 3019 2420 3045 
Q 2306 3072 2169 3072 
Q 1681 3072 1420 2755 
Q 1159 2438 1159 1844 
L 1159 0 
L 581 0 
L 581 3500 
L 1159 3500 
L 1159 2956 
Q 1341 3275 1631 3429 
Q 1922 3584 2338 3584 
Q 2397 3584 2469 3576 
Q 2541 3569 2628 3553 
L 2631 2963 
z
" transform="scale(0.015625)"/>
      <path id="DejaVuSans-76" d="M 191 3500 
L 800 3500 
L 1894 563 
L 2988 3500 
L 3597 3500 
L 2284 0 
L 1503 0 
L 191 3500 
z
" transform="scale(0.015625)"/>
      <path id="DejaVuSans-65" d="M 3597 1894 
L 3597 1613 
L 953 1613 
Q 991 1019 1311 708 
Q 1631 397 2203 397 
Q 2534 397 2845 478 
Q 3156 559 3463 722 
L 3463 178 
Q 3153 47 2828 -22 
Q 2503 -91 2169 -91 
Q 1331 -91 842 396 
Q 353 884 353 1716 
Q 353 2575 817 3079 
Q 1281 3584 2069 3584 
Q 2775 3584 3186 3129 
Q 3597 2675 3597 1894 
z
M 3022 2063 
Q 3016 2534 2758 2815 
Q 2500 3097 2075 3097 
Q 1594 3097 1305 2825 
Q 1016 2553 972 2059 
L 3022 2063 
z
" transform="scale(0.015625)"/>
     </defs>
     <use xlink:href="#DejaVuSans-52"/>
     <use xlink:href="#DejaVuSans-4f" x="69.482422"/>
     <use xlink:href="#DejaVuSans-43" x="148.193359"/>
     <use xlink:href="#DejaVuSans-20" x="218.017578"/>
     <use xlink:href="#DejaVuSans-43" x="249.804688"/>
     <use xlink:href="#DejaVuSans-75" x="319.628906"/>
     <use xlink:href="#DejaVuSans-72" x="383.007812"/>
     <use xlink:href="#DejaVuSans-76" x="424.121094"/>
     <use xlink:href="#DejaVuSans-65" x="483.300781"/>
    </g>
   </g>
  </g>
 </g>
 <defs>
  <clipPath id="pa59c73b248">
   <rect x="57.6" y="41.472" width="357.12" height="266.112"/>
  </clipPath>
 </defs>
</svg>
