<?xml version="1.0" encoding="utf-8" standalone="no"?>
<!DOCTYPE svg PUBLIC "-//W3C//DTD SVG 1.1//EN"
  "http://www.w3.org/Graphics/SVG/1.1/DTD/svg11.dtd">
<svg xmlns:xlink="http://www.w3.org/1999/xlink" width="460.8pt" height="345.6pt" viewBox="0 0 460.8 345.6" xmlns="http://www.w3.org/2000/svg" version="1.1">
 <metadata>
  <rdf:RDF xmlns:dc="http://purl.org/dc/elements/1.1/" xmlns:cc="http://creativecommons.org/ns#" xmlns:rdf="http://www.w3.org/1999/02/22-rdf-syntax-ns#">
   <cc:Work>
    <dc:type rdf:resource="http://purl.org/dc/dcmitype/StillImage"/>
    <dc:date>2023-05-29T12:56:49.970274</dc:date>
    <dc:format>image/svg+xml</dc:format>
    <dc:creator>
     <cc:Agent>
      <dc:title>Matplotlib v3.7.1, https://matplotlib.org/</dc:title>
     </cc:Agent>
    </dc:creator>
   </cc:Work>
  </rdf:RDF>
 </metadata>
 <defs>
  <style type="text/css">*{stroke-linejoin: round; stroke-linecap: butt}</style>
 </defs>
 <g id="figure_1">
  <g id="patch_1">
   <path d="M 0 345.6 
L 460.8 345.6 
L 460.8 0 
L 0 0 
z
" style="fill: #ffffff"/>
  </g>
  <g id="axes_1">
   <g id="patch_2">
    <path d="M 57.6 307.584 
L 414.72 307.584 
L 414.72 41.472 
L 57.6 41.472 
z
" style="fill: #ffffff"/>
   </g>
   <g id="matplotlib.axis_1">
    <g id="xtick_1">
     <g id="line2d_1">
      <defs>
       <path id="m54ccb12805" d="M 0 0 
L 0 3.5 
" style="stroke: #000000; stroke-width: 0.8"/>
      </defs>
      <g>
       <use xlink:href="#m54ccb12805" x="73.832727" y="307.584" style="stroke: #000000; stroke-width: 0.8"/>
      </g>
     </g>
     <g id="text_1">
      <!-- 0.0 -->
      <g transform="translate(65.881165 322.182437) scale(0.1 -0.1)">
       <defs>
        <path id="DejaVuSans-30" d="M 2034 4250 
Q 1547 4250 1301 3770 
Q 1056 3291 1056 2328 
Q 1056 1369 1301 889 
Q 1547 409 2034 409 
Q 2525 409 2770 889 
Q 3016 1369 3016 2328 
Q 3016 3291 2770 3770 
Q 2525 4250 2034 4250 
z
M 2034 4750 
Q 2819 4750 3233 4129 
Q 3647 3509 3647 2328 
Q 3647 1150 3233 529 
Q 2819 -91 2034 -91 
Q 1250 -91 836 529 
Q 422 1150 422 2328 
Q 422 3509 836 4129 
Q 1250 4750 2034 4750 
z
" transform="scale(0.015625)"/>
        <path id="DejaVuSans-2e" d="M 684 794 
L 1344 794 
L 1344 0 
L 684 0 
L 684 794 
z
" transform="scale(0.015625)"/>
       </defs>
       <use xlink:href="#DejaVuSans-30"/>
       <use xlink:href="#DejaVuSans-2e" x="63.623047"/>
       <use xlink:href="#DejaVuSans-30" x="95.410156"/>
      </g>
     </g>
    </g>
    <g id="xtick_2">
     <g id="line2d_2">
      <g>
       <use xlink:href="#m54ccb12805" x="138.763636" y="307.584" style="stroke: #000000; stroke-width: 0.8"/>
      </g>
     </g>
     <g id="text_2">
      <!-- 0.2 -->
      <g transform="translate(130.812074 322.182437) scale(0.1 -0.1)">
       <defs>
        <path id="DejaVuSans-32" d="M 1228 531 
L 3431 531 
L 3431 0 
L 469 0 
L 469 531 
Q 828 903 1448 1529 
Q 2069 2156 2228 2338 
Q 2531 2678 2651 2914 
Q 2772 3150 2772 3378 
Q 2772 3750 2511 3984 
Q 2250 4219 1831 4219 
Q 1534 4219 1204 4116 
Q 875 4013 500 3803 
L 500 4441 
Q 881 4594 1212 4672 
Q 1544 4750 1819 4750 
Q 2544 4750 2975 4387 
Q 3406 4025 3406 3419 
Q 3406 3131 3298 2873 
Q 3191 2616 2906 2266 
Q 2828 2175 2409 1742 
Q 1991 1309 1228 531 
z
" transform="scale(0.015625)"/>
       </defs>
       <use xlink:href="#DejaVuSans-30"/>
       <use xlink:href="#DejaVuSans-2e" x="63.623047"/>
       <use xlink:href="#DejaVuSans-32" x="95.410156"/>
      </g>
     </g>
    </g>
    <g id="xtick_3">
     <g id="line2d_3">
      <g>
       <use xlink:href="#m54ccb12805" x="203.694545" y="307.584" style="stroke: #000000; stroke-width: 0.8"/>
      </g>
     </g>
     <g id="text_3">
      <!-- 0.4 -->
      <g transform="translate(195.742983 322.182437) scale(0.1 -0.1)">
       <defs>
        <path id="DejaVuSans-34" d="M 2419 4116 
L 825 1625 
L 2419 1625 
L 2419 4116 
z
M 2253 4666 
L 3047 4666 
L 3047 1625 
L 3713 1625 
L 3713 1100 
L 3047 1100 
L 3047 0 
L 2419 0 
L 2419 1100 
L 313 1100 
L 313 1709 
L 2253 4666 
z
" transform="scale(0.015625)"/>
       </defs>
       <use xlink:href="#DejaVuSans-30"/>
       <use xlink:href="#DejaVuSans-2e" x="63.623047"/>
       <use xlink:href="#DejaVuSans-34" x="95.410156"/>
      </g>
     </g>
    </g>
    <g id="xtick_4">
     <g id="line2d_4">
      <g>
       <use xlink:href="#m54ccb12805" x="268.625455" y="307.584" style="stroke: #000000; stroke-width: 0.8"/>
      </g>
     </g>
     <g id="text_4">
      <!-- 0.6 -->
      <g transform="translate(260.673892 322.182437) scale(0.1 -0.1)">
       <defs>
        <path id="DejaVuSans-36" d="M 2113 2584 
Q 1688 2584 1439 2293 
Q 1191 2003 1191 1497 
Q 1191 994 1439 701 
Q 1688 409 2113 409 
Q 2538 409 2786 701 
Q 3034 994 3034 1497 
Q 3034 2003 2786 2293 
Q 2538 2584 2113 2584 
z
M 3366 4563 
L 3366 3988 
Q 3128 4100 2886 4159 
Q 2644 4219 2406 4219 
Q 1781 4219 1451 3797 
Q 1122 3375 1075 2522 
Q 1259 2794 1537 2939 
Q 1816 3084 2150 3084 
Q 2853 3084 3261 2657 
Q 3669 2231 3669 1497 
Q 3669 778 3244 343 
Q 2819 -91 2113 -91 
Q 1303 -91 875 529 
Q 447 1150 447 2328 
Q 447 3434 972 4092 
Q 1497 4750 2381 4750 
Q 2619 4750 2861 4703 
Q 3103 4656 3366 4563 
z
" transform="scale(0.015625)"/>
       </defs>
       <use xlink:href="#DejaVuSans-30"/>
       <use xlink:href="#DejaVuSans-2e" x="63.623047"/>
       <use xlink:href="#DejaVuSans-36" x="95.410156"/>
      </g>
     </g>
    </g>
    <g id="xtick_5">
     <g id="line2d_5">
      <g>
       <use xlink:href="#m54ccb12805" x="333.556364" y="307.584" style="stroke: #000000; stroke-width: 0.8"/>
      </g>
     </g>
     <g id="text_5">
      <!-- 0.8 -->
      <g transform="translate(325.604801 322.182437) scale(0.1 -0.1)">
       <defs>
        <path id="DejaVuSans-38" d="M 2034 2216 
Q 1584 2216 1326 1975 
Q 1069 1734 1069 1313 
Q 1069 891 1326 650 
Q 1584 409 2034 409 
Q 2484 409 2743 651 
Q 3003 894 3003 1313 
Q 3003 1734 2745 1975 
Q 2488 2216 2034 2216 
z
M 1403 2484 
Q 997 2584 770 2862 
Q 544 3141 544 3541 
Q 544 4100 942 4425 
Q 1341 4750 2034 4750 
Q 2731 4750 3128 4425 
Q 3525 4100 3525 3541 
Q 3525 3141 3298 2862 
Q 3072 2584 2669 2484 
Q 3125 2378 3379 2068 
Q 3634 1759 3634 1313 
Q 3634 634 3220 271 
Q 2806 -91 2034 -91 
Q 1263 -91 848 271 
Q 434 634 434 1313 
Q 434 1759 690 2068 
Q 947 2378 1403 2484 
z
M 1172 3481 
Q 1172 3119 1398 2916 
Q 1625 2713 2034 2713 
Q 2441 2713 2670 2916 
Q 2900 3119 2900 3481 
Q 2900 3844 2670 4047 
Q 2441 4250 2034 4250 
Q 1625 4250 1398 4047 
Q 1172 3844 1172 3481 
z
" transform="scale(0.015625)"/>
       </defs>
       <use xlink:href="#DejaVuSans-30"/>
       <use xlink:href="#DejaVuSans-2e" x="63.623047"/>
       <use xlink:href="#DejaVuSans-38" x="95.410156"/>
      </g>
     </g>
    </g>
    <g id="xtick_6">
     <g id="line2d_6">
      <g>
       <use xlink:href="#m54ccb12805" x="398.487273" y="307.584" style="stroke: #000000; stroke-width: 0.8"/>
      </g>
     </g>
     <g id="text_6">
      <!-- 1.0 -->
      <g transform="translate(390.53571 322.182437) scale(0.1 -0.1)">
       <defs>
        <path id="DejaVuSans-31" d="M 794 531 
L 1825 531 
L 1825 4091 
L 703 3866 
L 703 4441 
L 1819 4666 
L 2450 4666 
L 2450 531 
L 3481 531 
L 3481 0 
L 794 0 
L 794 531 
z
" transform="scale(0.015625)"/>
       </defs>
       <use xlink:href="#DejaVuSans-31"/>
       <use xlink:href="#DejaVuSans-2e" x="63.623047"/>
       <use xlink:href="#DejaVuSans-30" x="95.410156"/>
      </g>
     </g>
    </g>
    <g id="text_7">
     <!-- FPR -->
     <g transform="translate(226.795156 335.860562) scale(0.1 -0.1)">
      <defs>
       <path id="DejaVuSans-46" d="M 628 4666 
L 3309 4666 
L 3309 4134 
L 1259 4134 
L 1259 2759 
L 3109 2759 
L 3109 2228 
L 1259 2228 
L 1259 0 
L 628 0 
L 628 4666 
z
" transform="scale(0.015625)"/>
       <path id="DejaVuSans-50" d="M 1259 4147 
L 1259 2394 
L 2053 2394 
Q 2494 2394 2734 2622 
Q 2975 2850 2975 3272 
Q 2975 3691 2734 3919 
Q 2494 4147 2053 4147 
L 1259 4147 
z
M 628 4666 
L 2053 4666 
Q 2838 4666 3239 4311 
Q 3641 3956 3641 3272 
Q 3641 2581 3239 2228 
Q 2838 1875 2053 1875 
L 1259 1875 
L 1259 0 
L 628 0 
L 628 4666 
z
" transform="scale(0.015625)"/>
       <path id="DejaVuSans-52" d="M 2841 2188 
Q 3044 2119 3236 1894 
Q 3428 1669 3622 1275 
L 4263 0 
L 3584 0 
L 2988 1197 
Q 2756 1666 2539 1819 
Q 2322 1972 1947 1972 
L 1259 1972 
L 1259 0 
L 628 0 
L 628 4666 
L 2053 4666 
Q 2853 4666 3247 4331 
Q 3641 3997 3641 3322 
Q 3641 2881 3436 2590 
Q 3231 2300 2841 2188 
z
M 1259 4147 
L 1259 2491 
L 2053 2491 
Q 2509 2491 2742 2702 
Q 2975 2913 2975 3322 
Q 2975 3731 2742 3939 
Q 2509 4147 2053 4147 
L 1259 4147 
z
" transform="scale(0.015625)"/>
      </defs>
      <use xlink:href="#DejaVuSans-46"/>
      <use xlink:href="#DejaVuSans-50" x="57.519531"/>
      <use xlink:href="#DejaVuSans-52" x="117.822266"/>
     </g>
    </g>
   </g>
   <g id="matplotlib.axis_2">
    <g id="ytick_1">
     <g id="line2d_7">
      <defs>
       <path id="mee6a874d4f" d="M 0 0 
L -3.5 0 
" style="stroke: #000000; stroke-width: 0.8"/>
      </defs>
      <g>
       <use xlink:href="#mee6a874d4f" x="57.6" y="295.488" style="stroke: #000000; stroke-width: 0.8"/>
      </g>
     </g>
     <g id="text_8">
      <!-- 0.0 -->
      <g transform="translate(34.696875 299.287219) scale(0.1 -0.1)">
       <use xlink:href="#DejaVuSans-30"/>
       <use xlink:href="#DejaVuSans-2e" x="63.623047"/>
       <use xlink:href="#DejaVuSans-30" x="95.410156"/>
      </g>
     </g>
    </g>
    <g id="ytick_2">
     <g id="line2d_8">
      <g>
       <use xlink:href="#mee6a874d4f" x="57.6" y="247.104" style="stroke: #000000; stroke-width: 0.8"/>
      </g>
     </g>
     <g id="text_9">
      <!-- 0.2 -->
      <g transform="translate(34.696875 250.903219) scale(0.1 -0.1)">
       <use xlink:href="#DejaVuSans-30"/>
       <use xlink:href="#DejaVuSans-2e" x="63.623047"/>
       <use xlink:href="#DejaVuSans-32" x="95.410156"/>
      </g>
     </g>
    </g>
    <g id="ytick_3">
     <g id="line2d_9">
      <g>
       <use xlink:href="#mee6a874d4f" x="57.6" y="198.72" style="stroke: #000000; stroke-width: 0.8"/>
      </g>
     </g>
     <g id="text_10">
      <!-- 0.4 -->
      <g transform="translate(34.696875 202.519219) scale(0.1 -0.1)">
       <use xlink:href="#DejaVuSans-30"/>
       <use xlink:href="#DejaVuSans-2e" x="63.623047"/>
       <use xlink:href="#DejaVuSans-34" x="95.410156"/>
      </g>
     </g>
    </g>
    <g id="ytick_4">
     <g id="line2d_10">
      <g>
       <use xlink:href="#mee6a874d4f" x="57.6" y="150.336" style="stroke: #000000; stroke-width: 0.8"/>
      </g>
     </g>
     <g id="text_11">
      <!-- 0.6 -->
      <g transform="translate(34.696875 154.135219) scale(0.1 -0.1)">
       <use xlink:href="#DejaVuSans-30"/>
       <use xlink:href="#DejaVuSans-2e" x="63.623047"/>
       <use xlink:href="#DejaVuSans-36" x="95.410156"/>
      </g>
     </g>
    </g>
    <g id="ytick_5">
     <g id="line2d_11">
      <g>
       <use xlink:href="#mee6a874d4f" x="57.6" y="101.952" style="stroke: #000000; stroke-width: 0.8"/>
      </g>
     </g>
     <g id="text_12">
      <!-- 0.8 -->
      <g transform="translate(34.696875 105.751219) scale(0.1 -0.1)">
       <use xlink:href="#DejaVuSans-30"/>
       <use xlink:href="#DejaVuSans-2e" x="63.623047"/>
       <use xlink:href="#DejaVuSans-38" x="95.410156"/>
      </g>
     </g>
    </g>
    <g id="ytick_6">
     <g id="line2d_12">
      <g>
       <use xlink:href="#mee6a874d4f" x="57.6" y="53.568" style="stroke: #000000; stroke-width: 0.8"/>
      </g>
     </g>
     <g id="text_13">
      <!-- 1.0 -->
      <g transform="translate(34.696875 57.367219) scale(0.1 -0.1)">
       <use xlink:href="#DejaVuSans-31"/>
       <use xlink:href="#DejaVuSans-2e" x="63.623047"/>
       <use xlink:href="#DejaVuSans-30" x="95.410156"/>
      </g>
     </g>
    </g>
    <g id="text_14">
     <!-- TPR -->
     <g transform="translate(28.617188 184.070969) rotate(-90) scale(0.1 -0.1)">
      <defs>
       <path id="DejaVuSans-54" d="M -19 4666 
L 3928 4666 
L 3928 4134 
L 2272 4134 
L 2272 0 
L 1638 0 
L 1638 4134 
L -19 4134 
L -19 4666 
z
" transform="scale(0.015625)"/>
      </defs>
      <use xlink:href="#DejaVuSans-54"/>
      <use xlink:href="#DejaVuSans-50" x="61.083984"/>
      <use xlink:href="#DejaVuSans-52" x="121.386719"/>
     </g>
    </g>
   </g>
   <g id="line2d_13">
    <path d="M 73.832727 295.488 
L 73.914484 295.488 
L 73.99624 294.492444 
L 74.077996 294.492444 
L 74.077996 291.008 
L 74.486778 291.008 
L 74.568535 289.016889 
L 74.650291 289.016889 
L 74.732047 284.536889 
L 74.813804 284.536889 
L 74.813804 282.545778 
L 74.977316 282.545778 
L 75.059073 281.052444 
L 75.140829 281.052444 
L 75.222586 279.559111 
L 75.304342 279.559111 
L 75.386098 275.079111 
L 75.79488 275.079111 
L 75.876637 273.585778 
L 76.040149 273.585778 
L 76.040149 273.088 
L 76.285418 273.088 
L 76.285418 272.590222 
L 76.530687 272.590222 
L 76.612444 269.105778 
L 76.6942 269.105778 
L 76.6942 268.110222 
L 77.266495 268.110222 
L 77.266495 266.616889 
L 77.838789 266.616889 
L 77.920546 264.128 
L 78.002302 264.128 
L 78.084059 261.639111 
L 78.165815 261.639111 
L 78.247571 259.648 
L 78.329328 259.648 
L 78.329328 258.652444 
L 78.574597 258.652444 
L 78.656353 257.656889 
L 78.738109 257.656889 
L 78.819866 256.661333 
L 79.065135 256.661333 
L 79.065135 256.163556 
L 79.228648 256.163556 
L 79.310404 254.172444 
L 79.719186 254.172444 
L 79.719186 253.674667 
L 80.209724 253.674667 
L 80.209724 252.679111 
L 80.618506 252.679111 
L 80.618506 251.683556 
L 80.863775 251.683556 
L 80.945531 248.696889 
L 81.354313 248.696889 
L 81.43607 247.701333 
L 81.763095 247.701333 
L 81.763095 247.203556 
L 82.744172 247.203556 
L 82.744172 246.705778 
L 83.23471 246.705778 
L 83.23471 246.208 
L 83.725248 246.208 
L 83.725248 245.710222 
L 83.888761 245.710222 
L 83.888761 245.212444 
L 84.215786 245.212444 
L 84.297543 243.719111 
L 84.461055 243.719111 
L 84.461055 243.221333 
L 84.706324 243.221333 
L 84.788081 242.225778 
L 85.196863 242.225778 
L 85.278619 241.230222 
L 85.360375 241.230222 
L 85.442132 240.234667 
L 85.605645 240.234667 
L 85.605645 239.736889 
L 86.177939 239.736889 
L 86.259696 237.745778 
L 86.341452 237.745778 
L 86.423208 236.750222 
L 86.586721 236.750222 
L 86.586721 236.252444 
L 86.913746 236.252444 
L 86.913746 234.759111 
L 87.159016 234.759111 
L 87.240772 233.763556 
L 87.322528 233.763556 
L 87.322528 232.768 
L 87.486041 232.768 
L 87.486041 232.270222 
L 87.813067 232.270222 
L 87.813067 231.274667 
L 88.221848 231.274667 
L 88.221848 230.776889 
L 88.385361 230.776889 
L 88.385361 230.279111 
L 88.548874 230.279111 
L 88.63063 228.785778 
L 88.957656 228.785778 
L 89.039412 227.790222 
L 89.121168 227.790222 
L 89.202925 225.301333 
L 89.693463 225.301333 
L 89.693463 223.310222 
L 90.020489 223.310222 
L 90.020489 222.812444 
L 90.184001 222.812444 
L 90.184001 220.323556 
L 90.67454 220.323556 
L 90.756296 218.332444 
L 90.838052 218.332444 
L 90.838052 217.336889 
L 91.982641 217.336889 
L 91.982641 216.341333 
L 92.554936 216.341333 
L 92.554936 215.843556 
L 92.718449 215.843556 
L 92.718449 215.345778 
L 92.881961 215.345778 
L 92.881961 214.848 
L 93.127231 214.848 
L 93.127231 214.350222 
L 94.435333 214.350222 
L 94.517089 213.354667 
L 95.416409 213.354667 
L 95.498165 212.359111 
L 95.825191 212.359111 
L 95.825191 211.363556 
L 95.988704 211.363556 
L 95.988704 210.368 
L 96.806267 210.368 
L 96.806267 209.870222 
L 96.96978 209.870222 
L 97.051536 207.381333 
L 97.133293 207.381333 
L 97.133293 206.883556 
L 97.378562 206.883556 
L 97.378562 206.385778 
L 97.542075 206.385778 
L 97.623831 205.390222 
L 98.114369 205.390222 
L 98.196126 203.896889 
L 98.686664 203.896889 
L 98.76842 201.905778 
L 99.504227 201.905778 
L 99.504227 201.408 
L 99.66774 201.408 
L 99.66774 200.910222 
L 100.485304 200.910222 
L 100.485304 200.412444 
L 100.730573 200.412444 
L 100.812329 199.416889 
L 101.139355 199.416889 
L 101.221111 197.425778 
L 101.46638 197.425778 
L 101.46638 196.928 
L 101.629893 196.928 
L 101.629893 196.430222 
L 101.793406 196.430222 
L 101.793406 195.932444 
L 102.61097 195.932444 
L 102.61097 195.434667 
L 102.774482 195.434667 
L 102.774482 194.439111 
L 104.900148 194.439111 
L 104.900148 193.941333 
L 105.554199 193.941333 
L 105.554199 192.945778 
L 106.698788 192.945778 
L 106.698788 192.448 
L 107.598108 192.448 
L 107.598108 191.950222 
L 108.497428 191.950222 
L 108.497428 191.452444 
L 108.824454 191.452444 
L 108.824454 190.954667 
L 109.314992 190.954667 
L 109.314992 190.456889 
L 110.868363 190.456889 
L 110.950119 189.461333 
L 111.113632 189.461333 
L 111.113632 188.963556 
L 111.358901 188.963556 
L 111.358901 188.465778 
L 114.792669 188.465778 
L 114.874425 186.972444 
L 116.34604 186.972444 
L 116.34604 186.474667 
L 116.754822 186.474667 
L 116.754822 185.976889 
L 116.918334 185.976889 
L 116.918334 185.479111 
L 117.081847 185.479111 
L 117.081847 184.981333 
L 117.817654 184.981333 
L 117.817654 184.483556 
L 117.981167 184.483556 
L 117.981167 183.985778 
L 119.125756 183.985778 
L 119.207513 182.990222 
L 121.169666 182.990222 
L 121.169666 182.492444 
L 122.232498 182.492444 
L 122.232498 181.994667 
L 122.804793 181.994667 
L 122.804793 181.496889 
L 123.458844 181.496889 
L 123.458844 180.999111 
L 123.867626 180.999111 
L 123.867626 180.501333 
L 124.43992 180.501333 
L 124.43992 179.505778 
L 126.974368 179.505778 
L 126.974368 179.008 
L 127.137881 179.008 
L 127.137881 178.510222 
L 127.791932 178.510222 
L 127.791932 178.012444 
L 128.773008 178.012444 
L 128.854764 176.519111 
L 129.18179 176.519111 
L 129.18179 176.021333 
L 129.427059 176.021333 
L 129.427059 175.523556 
L 130.326379 175.523556 
L 130.326379 175.025778 
L 132.125019 175.025778 
L 132.206775 174.030222 
L 132.370288 174.030222 
L 132.452045 173.034667 
L 133.024339 173.034667 
L 133.106096 172.039111 
L 134.168928 172.039111 
L 134.168928 171.541333 
L 134.822979 171.541333 
L 134.822979 171.043556 
L 135.231761 171.043556 
L 135.231761 170.545778 
L 135.804056 170.545778 
L 135.804056 170.048 
L 137.112158 170.048 
L 137.112158 169.550222 
L 137.27567 169.550222 
L 137.27567 169.052444 
L 137.52094 169.052444 
L 137.52094 168.554667 
L 138.17499 168.554667 
L 138.256747 167.061333 
L 138.829041 167.061333 
L 138.829041 166.065778 
L 139.31958 166.065778 
L 139.31958 165.568 
L 139.891874 165.568 
L 139.891874 165.070222 
L 140.464169 165.070222 
L 140.464169 164.572444 
L 141.445245 164.572444 
L 141.445245 164.074667 
L 141.935784 164.074667 
L 141.935784 163.576889 
L 142.508078 163.576889 
L 142.508078 163.079111 
L 142.753347 163.079111 
L 142.753347 162.581333 
L 142.998616 162.581333 
L 142.998616 162.083556 
L 144.224962 162.083556 
L 144.224962 161.585778 
L 144.7155 161.585778 
L 144.797256 160.590222 
L 145.124282 160.590222 
L 145.124282 160.092444 
L 146.677653 160.092444 
L 146.677653 159.594667 
L 147.576973 159.594667 
L 147.658729 158.599111 
L 148.31278 158.599111 
L 148.31278 158.101333 
L 148.476293 158.101333 
L 148.476293 157.603556 
L 149.866151 157.603556 
L 149.866151 157.105778 
L 151.991817 157.105778 
L 151.991817 156.608 
L 152.318843 156.608 
L 152.318843 156.110222 
L 152.564112 156.110222 
L 152.564112 155.114667 
L 153.218163 155.114667 
L 153.218163 154.119111 
L 153.626944 154.119111 
L 153.626944 153.621333 
L 154.199239 153.621333 
L 154.199239 152.625778 
L 155.180315 152.625778 
L 155.262072 151.132444 
L 158.287058 151.132444 
L 158.287058 150.634667 
L 158.859352 150.634667 
L 158.859352 150.136889 
L 161.3938 150.136889 
L 161.3938 149.639111 
L 162.129607 149.639111 
L 162.129607 149.141333 
L 163.682978 149.141333 
L 163.682978 148.643556 
L 165.236349 148.643556 
L 165.236349 147.648 
L 165.481618 147.648 
L 165.481618 147.150222 
L 166.462695 147.150222 
L 166.462695 146.652444 
L 166.953233 146.652444 
L 166.953233 146.154667 
L 168.670117 146.154667 
L 168.670117 145.159111 
L 171.940371 145.159111 
L 171.940371 144.661333 
L 173.248473 144.661333 
L 173.248473 144.163556 
L 173.493742 144.163556 
L 173.493742 143.665778 
L 174.474819 143.665778 
L 174.556575 142.670222 
L 174.638332 142.670222 
L 174.638332 142.172444 
L 175.210626 142.172444 
L 175.292383 141.176889 
L 176.518728 141.176889 
L 176.518728 140.181333 
L 176.682241 140.181333 
L 176.682241 139.683556 
L 176.845754 139.683556 
L 176.845754 139.185778 
L 177.009266 139.185778 
L 177.009266 138.688 
L 179.62547 138.688 
L 179.62547 138.190222 
L 182.32343 138.190222 
L 182.32343 137.692444 
L 183.713289 137.692444 
L 183.713289 137.194667 
L 184.449096 137.194667 
L 184.449096 136.696889 
L 185.103147 136.696889 
L 185.103147 136.199111 
L 185.430172 136.199111 
L 185.430172 135.701333 
L 186.16598 135.701333 
L 186.16598 135.203556 
L 186.820031 135.203556 
L 186.820031 134.705778 
L 188.128133 134.705778 
L 188.209889 133.710222 
L 189.845016 133.710222 
L 189.845016 133.212444 
L 190.499067 133.212444 
L 190.499067 132.714667 
L 191.316631 132.714667 
L 191.316631 132.216889 
L 192.215951 132.216889 
L 192.215951 131.719111 
L 192.624733 131.719111 
L 192.624733 130.225778 
L 194.505129 130.225778 
L 194.505129 129.728 
L 196.957821 129.728 
L 196.957821 129.230222 
L 197.611872 129.230222 
L 197.611872 128.732444 
L 197.857141 128.732444 
L 197.857141 128.234667 
L 198.265922 128.234667 
L 198.265922 127.736889 
L 201.127395 127.736889 
L 201.127395 127.239111 
L 201.536177 127.239111 
L 201.536177 126.741333 
L 203.580087 126.741333 
L 203.580087 126.243556 
L 205.29697 126.243556 
L 205.29697 125.745778 
L 205.623996 125.745778 
L 205.623996 125.248 
L 206.359803 125.248 
L 206.359803 124.750222 
L 206.768585 124.750222 
L 206.768585 124.252444 
L 207.994931 124.252444 
L 207.994931 123.754667 
L 208.485469 123.754667 
L 208.485469 123.256889 
L 208.648981 123.256889 
L 208.648981 122.759111 
L 210.93816 122.759111 
L 210.93816 122.261333 
L 211.919236 122.261333 
L 211.919236 121.763556 
L 212.409775 121.763556 
L 212.409775 121.265778 
L 213.472607 121.265778 
L 213.472607 120.768 
L 213.717876 120.768 
L 213.717876 120.270222 
L 216.824618 120.270222 
L 216.824618 119.274667 
L 217.315157 119.274667 
L 217.315157 118.776889 
L 219.440822 118.776889 
L 219.440822 118.279111 
L 219.767848 118.279111 
L 219.849604 117.283556 
L 219.931361 117.283556 
L 220.013117 116.288 
L 220.421899 116.288 
L 220.421899 115.790222 
L 220.912437 115.790222 
L 220.912437 114.296889 
L 221.893513 114.296889 
L 221.893513 113.799111 
L 222.87459 113.799111 
L 222.87459 113.301333 
L 224.67323 113.301333 
L 224.67323 112.803556 
L 227.044165 112.803556 
L 227.044165 112.305778 
L 228.27051 112.305778 
L 228.27051 111.808 
L 228.924561 111.808 
L 228.924561 111.310222 
L 230.968471 111.310222 
L 230.968471 110.812444 
L 232.031303 110.812444 
L 232.031303 110.314667 
L 233.339405 110.314667 
L 233.339405 109.816889 
L 234.729264 109.816889 
L 234.729264 109.319111 
L 235.792096 109.319111 
L 235.792096 108.323556 
L 237.836006 108.323556 
L 237.836006 107.825778 
L 238.081275 107.825778 
L 238.081275 107.328 
L 238.980595 107.328 
L 238.980595 106.830222 
L 239.471133 106.830222 
L 239.471133 106.332444 
L 240.942748 106.332444 
L 240.942748 105.834667 
L 241.269773 105.834667 
L 241.269773 105.336889 
L 243.967733 105.336889 
L 243.967733 104.839111 
L 244.94881 104.839111 
L 244.94881 104.341333 
L 245.602861 104.341333 
L 245.602861 103.843556 
L 248.219065 103.843556 
L 248.219065 103.345778 
L 248.54609 103.345778 
L 248.54609 102.848 
L 251.325807 102.848 
L 251.325807 102.350222 
L 254.105523 102.350222 
L 254.105523 101.852444 
L 256.067676 101.852444 
L 256.067676 101.354667 
L 256.231189 101.354667 
L 256.231189 100.856889 
L 257.294022 100.856889 
L 257.294022 100.359111 
L 257.457534 100.359111 
L 257.457534 99.861333 
L 258.111585 99.861333 
L 258.111585 99.363556 
L 259.5832 99.363556 
L 259.5832 98.865778 
L 260.727789 98.865778 
L 260.727789 98.368 
L 261.300084 98.368 
L 261.38184 97.372444 
L 261.463597 97.372444 
L 261.463597 96.874667 
L 267.840593 96.874667 
L 267.840593 96.376889 
L 268.576401 96.376889 
L 268.576401 95.879111 
L 269.966259 95.879111 
L 269.966259 95.381333 
L 270.538554 95.381333 
L 270.538554 94.883556 
L 272.582463 94.883556 
L 272.582463 94.385778 
L 273.890565 94.385778 
L 273.972321 92.892444 
L 274.135834 92.892444 
L 274.135834 92.394667 
L 275.443936 92.394667 
L 275.443936 91.399111 
L 279.777023 91.399111 
L 279.777023 90.901333 
L 280.104049 90.901333 
L 280.104049 90.403556 
L 282.066202 90.403556 
L 282.066202 89.905778 
L 282.802009 89.905778 
L 282.802009 89.408 
L 283.619573 89.408 
L 283.619573 88.910222 
L 284.764162 88.910222 
L 284.764162 88.412444 
L 285.091187 88.412444 
L 285.091187 87.914667 
L 287.05334 87.914667 
L 287.05334 87.416889 
L 287.462122 87.416889 
L 287.462122 86.919111 
L 288.688468 86.919111 
L 288.688468 86.421333 
L 289.587788 86.421333 
L 289.587788 85.923556 
L 290.89589 85.923556 
L 290.89589 85.425778 
L 291.876966 85.425778 
L 291.876966 84.928 
L 293.185068 84.928 
L 293.185068 84.430222 
L 294.411414 84.430222 
L 294.411414 83.932444 
L 294.574926 83.932444 
L 294.574926 83.434667 
L 295.310734 83.434667 
L 295.310734 82.936889 
L 296.537079 82.936889 
L 296.537079 82.439111 
L 297.599912 82.439111 
L 297.599912 81.941333 
L 298.417476 81.941333 
L 298.417476 81.443556 
L 298.662745 81.443556 
L 298.662745 80.945778 
L 299.153283 80.945778 
L 299.153283 80.448 
L 303.568127 80.448 
L 303.568127 79.950222 
L 304.303934 79.950222 
L 304.303934 79.452444 
L 307.655946 79.452444 
L 307.655946 78.954667 
L 309.372829 78.954667 
L 309.372829 78.456889 
L 309.618098 78.456889 
L 309.618098 77.959111 
L 311.580251 77.959111 
L 311.580251 76.963556 
L 312.724841 76.963556 
L 312.724841 76.465778 
L 313.051866 76.465778 
L 313.051866 75.470222 
L 314.114699 75.470222 
L 314.114699 74.972444 
L 315.504557 74.972444 
L 315.504557 74.474667 
L 317.303197 74.474667 
L 317.303197 73.976889 
L 317.630223 73.976889 
L 317.630223 73.479111 
L 317.957248 73.479111 
L 317.957248 72.981333 
L 319.755888 72.981333 
L 319.755888 72.483556 
L 322.453849 72.483556 
L 322.453849 71.985778 
L 327.440987 71.985778 
L 327.440987 71.488 
L 331.855831 71.488 
L 331.855831 70.492444 
L 332.1011 70.492444 
L 332.1011 69.994667 
L 334.880817 69.994667 
L 334.880817 69.496889 
L 335.534868 69.496889 
L 335.534868 68.999111 
L 338.314584 68.999111 
L 338.314584 68.501333 
L 339.050392 68.501333 
L 339.050392 68.003556 
L 342.729428 68.003556 
L 342.729428 67.505778 
L 343.465236 67.505778 
L 343.465236 67.008 
L 345.917927 67.008 
L 345.917927 66.510222 
L 354.911127 66.510222 
L 354.911127 66.012444 
L 357.282062 66.012444 
L 357.282062 65.514667 
L 359.080702 65.514667 
L 359.080702 65.016889 
L 359.652997 65.016889 
L 359.652997 64.519111 
L 365.702968 64.519111 
L 365.702968 64.021333 
L 366.357019 64.021333 
L 366.357019 63.523556 
L 367.665121 63.523556 
L 367.665121 63.025778 
L 368.073903 63.025778 
L 368.073903 62.528 
L 369.136736 62.528 
L 369.136736 62.030222 
L 372.815773 62.030222 
L 372.815773 61.532444 
L 374.123874 61.532444 
L 374.123874 61.034667 
L 375.023195 61.034667 
L 375.023195 60.536889 
L 376.24954 60.536889 
L 376.24954 60.039111 
L 376.985347 60.039111 
L 376.985347 59.541333 
L 380.74614 59.541333 
L 380.74614 59.043556 
L 381.563704 59.043556 
L 381.563704 58.545778 
L 386.877868 58.545778 
L 386.877868 58.048 
L 387.695432 58.048 
L 387.695432 57.550222 
L 388.022457 57.550222 
L 388.022457 57.052444 
L 388.431239 57.052444 
L 388.431239 56.056889 
L 388.758265 56.056889 
L 388.758265 55.559111 
L 389.575828 55.559111 
L 389.575828 55.061333 
L 391.946763 55.061333 
L 391.946763 54.563556 
L 394.562967 54.563556 
L 394.562967 54.065778 
L 395.380531 54.065778 
L 395.380531 53.568 
L 398.487273 53.568 
L 398.487273 53.568 
" clip-path="url(#p8e1ac0f76e)" style="fill: none; stroke: #1f77b4; stroke-width: 1.5; stroke-linecap: square"/>
   </g>
   <g id="patch_3">
    <path d="M 57.6 307.584 
L 57.6 41.472 
" style="fill: none; stroke: #000000; stroke-width: 0.8; stroke-linejoin: miter; stroke-linecap: square"/>
   </g>
   <g id="patch_4">
    <path d="M 414.72 307.584 
L 414.72 41.472 
" style="fill: none; stroke: #000000; stroke-width: 0.8; stroke-linejoin: miter; stroke-linecap: square"/>
   </g>
   <g id="patch_5">
    <path d="M 57.6 307.584 
L 414.72 307.584 
" style="fill: none; stroke: #000000; stroke-width: 0.8; stroke-linejoin: miter; stroke-linecap: square"/>
   </g>
   <g id="patch_6">
    <path d="M 57.6 41.472 
L 414.72 41.472 
" style="fill: none; stroke: #000000; stroke-width: 0.8; stroke-linejoin: miter; stroke-linecap: square"/>
   </g>
   <g id="text_15">
    <!-- ROC Curve -->
    <g transform="translate(203.469375 35.472) scale(0.12 -0.12)">
     <defs>
      <path id="DejaVuSans-4f" d="M 2522 4238 
Q 1834 4238 1429 3725 
Q 1025 3213 1025 2328 
Q 1025 1447 1429 934 
Q 1834 422 2522 422 
Q 3209 422 3611 934 
Q 4013 1447 4013 2328 
Q 4013 3213 3611 3725 
Q 3209 4238 2522 4238 
z
M 2522 4750 
Q 3503 4750 4090 4092 
Q 4678 3434 4678 2328 
Q 4678 1225 4090 567 
Q 3503 -91 2522 -91 
Q 1538 -91 948 565 
Q 359 1222 359 2328 
Q 359 3434 948 4092 
Q 1538 4750 2522 4750 
z
" transform="scale(0.015625)"/>
      <path id="DejaVuSans-43" d="M 4122 4306 
L 4122 3641 
Q 3803 3938 3442 4084 
Q 3081 4231 2675 4231 
Q 1875 4231 1450 3742 
Q 1025 3253 1025 2328 
Q 1025 1406 1450 917 
Q 1875 428 2675 428 
Q 3081 428 3442 575 
Q 3803 722 4122 1019 
L 4122 359 
Q 3791 134 3420 21 
Q 3050 -91 2638 -91 
Q 1578 -91 968 557 
Q 359 1206 359 2328 
Q 359 3453 968 4101 
Q 1578 4750 2638 4750 
Q 3056 4750 3426 4639 
Q 3797 4528 4122 4306 
z
" transform="scale(0.015625)"/>
      <path id="DejaVuSans-20" transform="scale(0.015625)"/>
      <path id="DejaVuSans-75" d="M 544 1381 
L 544 3500 
L 1119 3500 
L 1119 1403 
Q 1119 906 1312 657 
Q 1506 409 1894 409 
Q 2359 409 2629 706 
Q 2900 1003 2900 1516 
L 2900 3500 
L 3475 3500 
L 3475 0 
L 2900 0 
L 2900 538 
Q 2691 219 2414 64 
Q 2138 -91 1772 -91 
Q 1169 -91 856 284 
Q 544 659 544 1381 
z
M 1991 3584 
L 1991 3584 
z
" transform="scale(0.015625)"/>
      <path id="DejaVuSans-72" d="M 2631 2963 
Q 2534 3019 2420 3045 
Q 2306 3072 2169 3072 
Q 1681 3072 1420 2755 
Q 1159 2438 1159 1844 
L 1159 0 
L 581 0 
L 581 3500 
L 1159 3500 
L 1159 2956 
Q 1341 3275 1631 3429 
Q 1922 3584 2338 3584 
Q 2397 3584 2469 3576 
Q 2541 3569 2628 3553 
L 2631 2963 
z
" transform="scale(0.015625)"/>
      <path id="DejaVuSans-76" d="M 191 3500 
L 800 3500 
L 1894 563 
L 2988 3500 
L 3597 3500 
L 2284 0 
L 1503 0 
L 191 3500 
z
" transform="scale(0.015625)"/>
      <path id="DejaVuSans-65" d="M 3597 1894 
L 3597 1613 
L 953 1613 
Q 991 1019 1311 708 
Q 1631 397 2203 397 
Q 2534 397 2845 478 
Q 3156 559 3463 722 
L 3463 178 
Q 3153 47 2828 -22 
Q 2503 -91 2169 -91 
Q 1331 -91 842 396 
Q 353 884 353 1716 
Q 353 2575 817 3079 
Q 1281 3584 2069 3584 
Q 2775 3584 3186 3129 
Q 3597 2675 3597 1894 
z
M 3022 2063 
Q 3016 2534 2758 2815 
Q 2500 3097 2075 3097 
Q 1594 3097 1305 2825 
Q 1016 2553 972 2059 
L 3022 2063 
z
" transform="scale(0.015625)"/>
     </defs>
     <use xlink:href="#DejaVuSans-52"/>
     <use xlink:href="#DejaVuSans-4f" x="69.482422"/>
     <use xlink:href="#DejaVuSans-43" x="148.193359"/>
     <use xlink:href="#DejaVuSans-20" x="218.017578"/>
     <use xlink:href="#DejaVuSans-43" x="249.804688"/>
     <use xlink:href="#DejaVuSans-75" x="319.628906"/>
     <use xlink:href="#DejaVuSans-72" x="383.007812"/>
     <use xlink:href="#DejaVuSans-76" x="424.121094"/>
     <use xlink:href="#DejaVuSans-65" x="483.300781"/>
    </g>
   </g>
  </g>
 </g>
 <defs>
  <clipPath id="p8e1ac0f76e">
   <rect x="57.6" y="41.472" width="357.12" height="266.112"/>
  </clipPath>
 </defs>
</svg>
